<svg width="66" height="101" viewBox="0 0 66 101" fill="none" xmlns="http://www.w3.org/2000/svg">
<path d="M28.2601,37.9895c1.8837,1.4965 3.206,3.5859 3.7522,5.9288h30.3205c0.6498,0 1.2729,0.2581 1.7323,0.7176c0.4595,0.4594 0.7176,1.0825 0.7176,1.7323c0,0.6497 -0.2581,1.2729 -0.7176,1.7323c-0.4594,0.4594 -1.0825,0.7175 -1.7323,0.7175h-30.3205c-0.5543,2.3353 -1.88,4.4153 -3.763,5.9036c-1.8829,1.4883 -4.2128,2.298 -6.6129,2.298c-2.4001,0 -4.73,-0.8097 -6.6129,-2.298c-1.8829,-1.4883 -3.2087,-3.5683 -3.7629,-5.9036h-7.81075c-0.64974,0 -1.27287,-0.2581 -1.7323,-0.7175c-0.45944,-0.4594 -0.71755,-1.0826 -0.71755,-1.7323c0,-0.6498 0.25811,-1.2729 0.71755,-1.7323c0.45943,-0.4595 1.08256,-0.7176 1.7323,-0.7176h7.81075c0.5461,-2.3429 1.8685,-4.4323 3.7521,-5.9288c1.8837,-1.4964 4.218,-2.312 6.6237,-2.3142c2.4057,0.0022 4.7401,0.8178 6.6237,2.3142zM25.7124,50.473c1.0811,-1.081 1.6884,-2.5472 1.6884,-4.076c0,-1.1401 -0.3381,-2.2546 -0.9715,-3.2025c-0.6334,-0.9479 -1.5337,-1.6868 -2.587,-2.1231c-1.0533,-0.4363 -2.2123,-0.5504 -3.3305,-0.328c-1.1181,0.2224 -2.1452,0.7714 -2.9514,1.5776c-0.8062,0.8061 -1.3552,1.8333 -1.5776,2.9514c-0.2224,1.1182 -0.1083,2.2772 0.328,3.3305c0.4363,1.0533 1.1752,1.9536 2.1231,2.587c0.948,0.6334 2.0624,0.9715 3.2025,0.9715c1.5288,0 2.995,-0.6073 4.076,-1.6884z" fill="black"/>
<path d="M50.8039,61.9432c1.866,1.4949 3.1755,3.5736 3.7182,5.9021h7.8107c0.6498,0 1.2729,0.2581 1.7323,0.7176c0.4595,0.4594 0.7176,1.0825 0.7176,1.7323c0,0.6497 -0.2581,1.2729 -0.7176,1.7323c-0.4594,0.4594 -1.0825,0.7175 -1.7323,0.7175h-7.8107c-0.5542,2.3353 -1.88,4.4153 -3.7629,5.9036c-1.8829,1.4883 -4.2129,2.298 -6.613,2.298c-2.4001,0 -4.73,-0.8097 -6.6129,-2.298c-1.8829,-1.4883 -3.2087,-3.5683 -3.7629,-5.9036h-30.32055c-0.64974,0 -1.27287,-0.2581 -1.7323,-0.7175c-0.45944,-0.4594 -0.71755,-1.0826 -0.71755,-1.7323c0,-0.6498 0.25811,-1.2729 0.71755,-1.7323c0.45943,-0.4595 1.08256,-0.7176 1.7323,-0.7176h30.40705c0.5461,-2.3429 1.8685,-4.4323 3.7521,-5.9288c1.8837,-1.4964 4.218,-2.312 6.6237,-2.3142c2.3909,0.0216 4.7051,0.846 6.5712,2.3409zM48.3087,74.3424c1.0811,-1.081 1.6884,-2.5472 1.6884,-4.076c0,-1.1401 -0.3381,-2.2546 -0.9715,-3.2025c-0.6334,-0.948 -1.5337,-1.6868 -2.587,-2.1231c-1.0533,-0.4363 -2.2123,-0.5505 -3.3305,-0.328c-1.1181,0.2224 -2.1452,0.7714 -2.9514,1.5775c-0.8062,0.8062 -1.3552,1.8333 -1.5776,2.9515c-0.2224,1.1182 -0.1083,2.2772 0.328,3.3305c0.4363,1.0533 1.1752,1.9536 2.1231,2.587c0.948,0.6334 2.0624,0.9714 3.2025,0.9714c1.5288,0 2.995,-0.6073 4.076,-1.6883z" fill="black"/>
</svg>
