<svg width="47" height="48" viewBox="0 0 47 48" fill="none" xmlns="http://www.w3.org/2000/svg">
<path fill-rule="evenodd" clip-rule="evenodd" d="M17.49,6h0.5v1h-0.5h-11.49v28h11.5h0.5h0.5c1.8602,0 3.5046,0.9234 4.5,2.3369v-25.3369v-0.5c0,-2.48528 -2.0147,-4.5 -4.5,-4.5h-0.5v-1h0.5c2.2186,0 4.1304,1.31363 5,3.20551c0.8696,-1.89188 2.7814,-3.20551 5,-3.20551h0.5v1h-0.5c-2.4853,0 -4.5,2.01472 -4.5,4.5v0.5v25.3369c0.9954,-1.4135 2.6398,-2.3369 4.5,-2.3369h0.5h0.5h11.5v-28h-11.49h-0.5v-1h0.5h11.99h0.5v0.5v29v0.5h-0.5h-12h-0.5h-0.5c-2.3163,0 -4.2238,1.75 -4.4725,4h21.9725v-28h-2.5h-0.5v-1h0.5h3h0.5v0.5v29v0.5h-0.5h-22.5h-0.5h-0.5h-22.5h-0.5v-0.5v-29v-0.5h0.5h3h0.5v1h-0.5h-2.5v28h21.9725c-0.2487,-2.25 -2.1562,-4 -4.4725,-4h-0.5h-0.5h-12h-0.5v-0.5v-29v-0.5h0.5zM9.25,22.75h0.5h7.5h0.5v1h-0.5h-7.5h-0.5zM17.25,28.75h0.5v1h-0.5h-7.5h-0.5v-1h0.5zM17.75,11.75h-0.5h-7.5h-0.5v-1h0.5h7.5h0.5zM17.25,16.75h0.5v1h-0.5h-7.5h-0.5v-1h0.5zM37.75,23.75h-0.5h-7.5h-0.5v-1h0.5h7.5h0.5zM37.25,28.75h0.5v1h-0.5h-7.5h-0.5v-1h0.5zM29.25,10.75h0.5h7.5h0.5v1h-0.5h-7.5h-0.5zM37.25,16.75h0.5v1h-0.5h-7.5h-0.5v-1h0.5z" fill="black"/>
</svg>
