<svg width="47" height="48" viewBox="0 0 47 48" fill="none" xmlns="http://www.w3.org/2000/svg">
<path fill-rule="evenodd" clip-rule="evenodd" d="M5.5 6H5V6.5V35.5V36H5.5H17.5H18H18.5C20.8163 36 22.7238 37.75 22.9725 40H1V12H3.5H4V11H3.5H0.5H0V11.5V40.5V41H0.5H23H23.5H24H46.5H47V40.5V11.5V11H46.5H43.5H43V12H43.5H46V40H24.0275C24.2762 37.75 26.1837 36 28.5 36H29H29.5H41.5H42V35.5V6.5V6H41.5H29.51H29.01V7H29.51H41V35H29.5H29H28.5C26.6398 35 24.9954 35.9234 24 37.3369V12V11.5C24 9.01472 26.0147 7 28.5 7H29V6H28.5C26.2814 6 24.3696 7.31363 23.5 9.20551C22.6304 7.31363 20.7186 6 18.5 6H18V7H18.5C20.9853 7 23 9.01472 23 11.5V12V37.3369C22.0046 35.9234 20.3602 35 18.5 35H18H17.5H6V7H17.49H17.99V6H17.49H5.5ZM9.25 22.75H9.75H17.25H17.75V23.75H17.25H9.75H9.25V22.75ZM9.75 28.75H9.25V29.75H9.75H17.25H17.75V28.75H17.25H9.75ZM17.75 10.75H17.25H9.75H9.25V11.75H9.75H17.25H17.75V10.75ZM17.25 16.75H17.75V17.75H17.25H9.75H9.25V16.75H9.75H17.25ZM37.75 22.75H37.25H29.75H29.25V23.75H29.75H37.25H37.75V22.75ZM37.25 28.75H37.75V29.75H37.25H29.75H29.25V28.75H29.75H37.25ZM29.25 10.75H29.75H37.25H37.75V11.75H37.25H29.75H29.25V10.75ZM29.75 16.75H29.25V17.75H29.75H37.25H37.75V16.75H37.25H29.75Z" fill="black"/>
</svg>
