<svg width="8" height="8" viewBox="0 0 8 8" fill="none" xmlns="http://www.w3.org/2000/svg">
<path fill-rule="evenodd" clip-rule="evenodd" d="M2.99,1v1h-1.99v4h2c0.38418,0 0.73462,0.14443 1,0.38195c0.26538,-0.23752 0.61582,-0.38195 1,-0.38195h2v-4h-2c-0.27614,0 -0.5,0.22386 -0.5,0.5h-1c0,-0.27614 -0.22386,-0.5 -0.5,-0.5v-1c0.38418,0 0.73462,0.14443 1,0.38195c0.26538,-0.23752 0.61582,-0.38195 1,-0.38195h2.5h0.5v0.5v5v0.5h-0.5h-2.5c-0.27614,0 -0.5,0.22386 -0.5,0.5h-1c0,-0.27614 -0.22386,-0.5 -0.5,-0.5h-2.5h-0.5v-0.5v-5v-0.5h0.5z" fill="black"/>
</svg>
