<svg width="40" height="100" viewBox="0 0 40 100" fill="none" xmlns="http://www.w3.org/2000/svg">
<path fill-rule="evenodd" clip-rule="evenodd" d="M39.6367,54.6264c0.3759,0.4046 0.3527,1.0373 -0.0519,1.4133l-18.5393,17.2265l-0.6807,0.6325l-0.6807,-0.6325l-18.53939,-17.2267c-0.40459,-0.3759 -0.42781,-1.0087 -0.05188,-1.4132c0.37594,-0.4046 1.00868,-0.4279 1.41327,-0.0519l16.853,15.6597v-35.572h2v35.5826l16.8643,-15.6702c0.4046,-0.3759 1.0373,-0.3527 1.4133,0.0519zM2.00837,80c-0.55229,0 -1,-0.4477 -1,-1c0,-0.5522 0.44771,-1 1,-1h36.67803c0.5523,0 1,0.4478 1,1c0,0.5523 -0.4477,1 -1,1z" fill="black"/>
</svg>
