<svg width="50" height="100" viewBox="0 0 50 100" fill="none" xmlns="http://www.w3.org/2000/svg">
<path fill-rule="evenodd" clip-rule="evenodd" d="M27.4142,43.9999l10.8358,10.8358l6.5995,-6.5995c0.3962,-0.3962 0.3896,-1.0405 -0.0146,-1.4285l-9.6138,-9.2293c-0.3927,-0.3769 -1.0147,-0.3706 -1.3996,0.0143zM26,45.4142l-18.70711,18.7071c-0.18753,0.1875 -0.29289,0.4419 -0.29289,0.7071v10.1715h10.6716c0.2652,0 0.5195,-0.1053 0.7071,-0.2928l18.4571,-18.4572zM46.22,45.3649c1.2125,1.1641 1.2323,3.097 0.0437,4.2855l-26.4708,26.4709c-0.5626,0.5626 -1.3257,0.8786 -2.1213,0.8786h-10.6716c-1.10457,0 -2,-0.8954 -2,-2v-10.1715c0,-0.7957 0.31607,-1.5587 0.87868,-2.1213l26.52852,-26.5286c1.1548,-1.1547 3.0209,-1.1738 4.199,-0.0429z" fill="black"/>
</svg>
