<svg width="41" height="100" viewBox="0 0 41 100" fill="none" xmlns="http://www.w3.org/2000/svg">
<path fill-rule="evenodd" clip-rule="evenodd" d="M19.084,58.6469l-17.8038,-17.8038c-0.39052,-0.3905 -0.39052,-1.0237 0,-1.4142c0.39052,-0.3905 1.02369,-0.3905 1.41421,0l17.80379,17.8038l17.8073,-17.8072c0.3905,-0.3906 1.0237,-0.3906 1.4142,0c0.3905,0.3905 0.3905,1.0237 0,1.4142l-17.8073,17.8072l17.8035,17.8035c0.3905,0.3905 0.3905,1.0237 0,1.4142c-0.3905,0.3906 -1.0237,0.3906 -1.4142,0l-17.8035,-17.8034l-17.79955,17.7995c-0.39052,0.3906 -1.02369,0.3906 -1.41421,0c-0.39053,-0.3905 -0.39053,-1.0237 0,-1.4142z" fill="black"/>
</svg>
