<svg width="12" height="16" viewBox="0 0 12 16" fill="none" xmlns="http://www.w3.org/2000/svg">
<path fill-rule="evenodd" clip-rule="evenodd" d="M2.50001,2c0.26731,0 0.48735,0.21026 0.49948,0.4773l0.02376,0.5227h7.47675c0.2762,0 0.5,0.22386 0.5,0.5v1c0,0.24679 -0.18,0.45666 -0.424,0.49419l-0.576,0.08862v5.50259c0.5826,0.2059 1,0.7615 1,1.4146c0,0.8284 -0.6716,1.5 -1.49999,1.5c-0.82843,0 -1.5,-0.6716 -1.5,-1.5c0,-0.2761 0.22386,-0.5 0.5,-0.5c0.27614,0 0.5,0.2239 0.5,0.5c0,0.2761 0.22386,0.5 0.5,0.5c0.27614,0 0.49999,-0.2239 0.49999,-0.5c0,-0.2761 -0.22385,-0.5 -0.49999,-0.5c-0.27614,0 -0.5,-0.2239 -0.5,-0.5v-5.76335l-4.92397,0.75754c-0.27293,0.04199 -0.52823,-0.14523 -0.57022,-0.41816c-0.04199,-0.27293 0.14523,-0.52823 0.41816,-0.57022l6.07602,-0.93477v-0.07104h-6.93129l0.43078,9.4773c0.01254,0.2759 -0.20092,0.5096 -0.47678,0.5222c-0.27585,0.0125 -0.50965,-0.2009 -0.52218,-0.4768l-0.47831,-10.5227h-0.54442l-0.47831,10.5227c-0.01254,0.2759 -0.24633,0.4893 -0.52219,0.4768c-0.27586,-0.0126 -0.48932,-0.2463 -0.47678,-0.5222l0.5,-11c0.01214,-0.26704 0.23217,-0.4773 0.49949,-0.4773z" fill="black"/>
</svg>
