<svg width="17" height="16" viewBox="0 0 17 16" fill="none" xmlns="http://www.w3.org/2000/svg">
<path fill-rule="evenodd" clip-rule="evenodd" d="M2.51868 2H2.01972L2.01868 2.49896L2 11.499L1.99896 12H2.5H5H5.22207H5.5H5.72207C6.5505 12 7.22207 12.6716 7.22207 13.5V14H7.78814H8.22207H8.78814V13.5C8.78814 12.6716 9.45971 12 10.2881 12H10.5102H10.7881H11.0102H13.5102H14.0112L14.0102 11.499L13.9915 2.49896L13.9905 2H13.4915H10.5215H10.5H10.0215H10C9.1822 2 8.45612 2.39267 8 2.99976C7.54389 2.39267 6.8178 2 6 2H5.95088H5.5H5.45088V3H5.5H5.95088C6.70335 3 7.33133 3.53298 7.4779 4.24203C7.49243 4.32584 7.5 4.41203 7.5 4.5V5H7.50454V5.00007L7.50549 11.748C7.0519 11.2863 6.42042 11 5.72207 11H5.5H5.22207H5H3.00104L3.01764 3H4.94H5.44V2H4.94H2.51868ZM10.2881 11C9.59018 11 8.95902 11.286 8.50549 11.7472L8.50455 5.05932H8.51021V4.55932C8.51021 4.50069 8.50823 4.44252 8.50435 4.38487C8.56315 3.61023 9.21031 3 10 3H10.0215H10.5H10.5215H12.9926L13.0092 11H11.0102H10.7881H10.5102H10.2881ZM1 13V3H0V13.5V14H0.5H6H6.5V13H6H1ZM15 3.00049L15.0097 13H10H9.5V14H10H15.5102H16.0107L16.0102 13.4995L16 2.99951L15 3.00049ZM6 5H4V4H6V5ZM4 7H6V6H4V7ZM6 9H4V8H6V9ZM10 5H12V4H10V5ZM12 7H10V6H12V7ZM10 9H12V8H10V9Z" fill="black"/>
</svg>
