<svg width="9" height="16" viewBox="0 0 9 16" fill="none" xmlns="http://www.w3.org/2000/svg">
<path fill-rule="evenodd" clip-rule="evenodd" d="M1.61053 5.31562C1.61062 6.33458 1.92444 7.62449 2.576 8.92732C3.22756 10.2302 4.07137 11.255 4.88658 11.8663C5.72855 12.4977 6.4026 12.5987 6.82057 12.3897L7.25103 12.1744L6.29377 10.2603L5.8633 10.4755C5.86234 10.476 5.86137 10.4765 5.86041 10.477C5.30975 10.7505 4.71445 10.5048 4.28644 10.1839C3.83092 9.8423 3.40395 9.30836 3.08586 8.67233C2.76778 8.0363 2.5967 7.37439 2.59665 6.80503C2.59661 6.26911 2.75772 5.64421 3.30918 5.36841L3.73965 5.15314L3.26101 4.19608L2.78238 3.23902L2.37024 3.44514L1.92295 2.55075L2.37015 2.32711L2.78229 2.12099L3.22948 1.89735L3.45313 2.34454L4.1554 3.74879L4.85768 5.15304L5.08133 5.60023L4.63413 5.82388L3.75647 6.2628C3.72628 6.2779 3.59662 6.38788 3.59665 6.80494C3.59668 7.18858 3.71655 7.69775 3.98025 8.22504C4.24395 8.75233 4.57945 9.15367 4.88637 9.38383C5.22005 9.63404 5.38582 9.59626 5.41601 9.58116L6.29367 9.14224L6.74086 8.91859L6.96451 9.36579L8.36906 12.1743L8.59271 12.6215L8.14551 12.8451L7.26786 13.284C6.32862 13.7538 5.22371 13.369 4.28665 12.6664C3.32284 11.9436 2.38755 10.7862 1.68161 9.37461C0.975673 7.96303 0.610632 6.52039 0.610528 5.31571C0.610427 4.14446 0.965391 3.02963 1.90463 2.55991L2.35192 3.4543C1.93396 3.66333 1.61044 4.26323 1.61053 5.31562Z" fill="black"/>
</svg>
