<svg width="14" height="16" viewBox="0 0 14 16" fill="none" xmlns="http://www.w3.org/2000/svg">
<path fill-rule="evenodd" clip-rule="evenodd" d="M12.5,2c0.8284,0 1.5,0.67157 1.5,1.5v8c0,0.2761 -0.2239,0.5 -0.5,0.5c-0.2761,0 -0.5,-0.2239 -0.5,-0.5v-8c0,-0.27614 -0.2239,-0.5 -0.5,-0.5h-1c-0.2761,0 -0.5,0.22386 -0.5,0.5v8c0,0.2761 -0.2239,0.5 -0.5,0.5c-0.2761,0 -0.5,-0.2239 -0.5,-0.5v-8c0,-0.82843 0.6716,-1.5 1.5,-1.5zM2.5,8c0.82843,0 1.5,0.67157 1.5,1.5v2c0,0.2761 -0.22386,0.5 -0.5,0.5c-0.27614,0 -0.5,-0.2239 -0.5,-0.5v-2c0,-0.27614 -0.22386,-0.5 -0.5,-0.5h-1c-0.27614,0 -0.5,0.22386 -0.5,0.5v2c0,0.2761 -0.22386,0.5 -0.5,0.5c-0.27614,0 -0.5,-0.2239 -0.5,-0.5v-2c0,-0.82843 0.67157,-1.5 1.5,-1.5zM5,7.5c0,-0.82842 0.67157,-1.5 1.5,-1.5h1c0.82843,0 1.5,0.67157 1.5,1.5v4.04c0,0.2761 -0.22386,0.5 -0.5,0.5c-0.27614,0 -0.5,-0.2239 -0.5,-0.5v-4.04c0,-0.27614 -0.22386,-0.5 -0.5,-0.5h-1c-0.27614,0 -0.5,0.22386 -0.5,0.5v4.04c0,0.2761 -0.22386,0.5 -0.5,0.5c-0.27614,0 -0.5,-0.2239 -0.5,-0.5zM13.5,13c0.2761,0 0.5,0.2239 0.5,0.5c0,0.2761 -0.2239,0.5 -0.5,0.5h-13c-0.27614,0 -0.5,-0.2239 -0.5,-0.5c0,-0.2761 0.22386,-0.5 0.5,-0.5z" fill="black"/>
</svg>
