<svg width="12" height="16" viewBox="0 0 12 16" fill="none" xmlns="http://www.w3.org/2000/svg">
<path fill-rule="evenodd" clip-rule="evenodd" d="M10,4h-7.999v-1h7.999zM10.001,4.29189l0.2919,-0.29189h-0.2919v-1h1.499h0.5v0.5v9v0.5h-0.5h-1.499v-1h0.2919l-0.2919,-0.2919v-1.4142l0.999,0.999v-6.58579l-0.999,0.999zM10,5.70711l-2.29288,2.29287l2.29288,2.29292v1.4142l-2.99998,-3.00001l-0.64647,0.64646l-0.35355,0.35356l-0.35355,-0.35356l-0.64643,-0.64642l-2.99902,2.99907v-1.4143l2.29192,-2.29188l-2.29192,-2.29191v-1.41422l3.999,3.999l4,-4zM10,13h-7.999v-1h7.999zM0.5,3h1.5v1h-0.29289l0.29289,0.29289v1.41422l-1,-1v6.58579l1,-1v1.4143l-0.29285,0.2928h0.29285v1h-1.5h-0.5v-0.5v-9v-0.5z" fill="black"/>
</svg>
