<svg width="12" height="16" viewBox="0 0 12 16" fill="none" xmlns="http://www.w3.org/2000/svg">
<path fill-rule="evenodd" clip-rule="evenodd" d="M10.5,2c0.8284,0 1.5,0.67157 1.5,1.5v9c0,0.8284 -0.6716,1.5 -1.5,1.5h-9c-0.82843,0 -1.5,-0.6716 -1.5,-1.5v-9c0,-0.82843 0.67157,-1.5 1.5,-1.5zM1,12.5c0,0.2761 0.22386,0.5 0.5,0.5h9c0.2761,0 0.5,-0.2239 0.5,-0.5v-9c0,-0.27614 -0.2239,-0.5 -0.5,-0.5h-9c-0.27614,0 -0.5,0.22386 -0.5,0.5zM4,3.5v2.5h4v-2.5h1v3v0.5h-0.5h-5h-0.5v-0.5v-3zM6,5.5v-2h1v2zM2,10v-1h8v1zM10,11v1h-8v-1z" fill="black"/>
</svg>
