<svg width="11" height="16" viewBox="0 0 11 16" fill="none" xmlns="http://www.w3.org/2000/svg">
<path fill-rule="evenodd" clip-rule="evenodd" d="M11 12.213C9.62077 10.7532 7.66674 9.84235 5.49997 9.84235C3.33323 9.84235 1.37923 10.7532 0 12.2129V13.8209C1.17203 12.0275 3.1976 10.8423 5.49997 10.8423C7.80238 10.8423 9.82798 12.0275 11 13.821V12.213ZM5.50001 2.99231C4.08437 2.99231 2.93677 4.13991 2.93677 5.55556C2.93677 6.9712 4.08437 8.1188 5.50001 8.1188C6.91566 8.1188 8.06326 6.9712 8.06326 5.55556C8.06326 4.13991 6.91566 2.99231 5.50001 2.99231ZM1.93677 5.55556C1.93677 3.58763 3.53209 1.99231 5.50001 1.99231C7.46794 1.99231 9.06326 3.58763 9.06326 5.55556C9.06326 7.52348 7.46794 9.1188 5.50001 9.1188C3.53209 9.1188 1.93677 7.52348 1.93677 5.55556Z" fill="black"/>
</svg>
