<svg width="17" height="16" viewBox="0 0 17 16" fill="none" xmlns="http://www.w3.org/2000/svg">
<path fill-rule="evenodd" clip-rule="evenodd" d="M4.94,2h0.5v1h-0.5h-1.92236l-0.0166,8h1.99896h0.22207h0.27793h0.22207c0.69835,0 1.32983,0.2863 1.78342,0.748l-0.00095,-6.74793v-0.00007h-0.00454v-0.5c0,-0.08797 -0.00757,-0.17416 -0.0221,-0.25797c-0.14657,-0.70905 -0.77455,-1.24203 -1.52702,-1.24203h-0.45088h-0.04912v-1h0.04912h0.45088h0.04912c0.8178,0 1.54389,0.39267 2,0.99976c0.45612,-0.60709 1.1822,-0.99976 2,-0.99976h0.0215h0.4785h0.0215h2.97h0.499l0.001,0.49896l0.0187,9.00004l0.001,0.501h-0.501h-2.5h-0.2221h-0.2779h-0.2221c-0.82839,0 -1.49996,0.6716 -1.49996,1.5v0.5h-0.56607h-0.43393h-0.56607v-0.5c0,-0.8284 -0.67157,-1.5 -1.5,-1.5h-0.22207h-0.27793h-0.22207h-2.5h-0.50104l0.00104,-0.501l0.01868,-9.00004l0.00104,-0.49896h0.49896zM10.5102,11h0.2779h0.2221h1.999l-0.0166,-8h-2.4711h-0.0215h-0.4785h-0.0215c-0.78969,0 -1.43685,0.61023 -1.49565,1.38487c0.00388,0.05765 0.00586,0.11582 0.00586,0.17445v0.5h-0.00566l0.00094,6.68788c0.45353,-0.4612 1.08469,-0.7472 1.78261,-0.7472zM6,13h0.5v1h-0.5h-5.5h-0.5v-0.5v-10.5h1v10zM16,2.99951l0.0102,10.49999l0.0005,0.5005h-0.5005h-5.5102h-0.5v-1h0.5h5.0097l-0.0097,-9.99951zM6,5h-2v-1h2zM4,6h2v1h-2zM6,9h-2v-1h2zM10,4h2v1h-2zM12,7h-2v-1h2zM10,8h2v1h-2z" fill="black"/>
</svg>
