<svg width="19" height="16" viewBox="0 0 19 16" fill="none" xmlns="http://www.w3.org/2000/svg">
<path fill-rule="evenodd" clip-rule="evenodd" d="M11,13.821c-1.17202,-1.7935 -3.19762,-2.9787 -5.50003,-2.9787c-2.30237,0 -4.32794,1.1852 -5.49997,2.9786v-1.608c1.37923,-1.4597 3.33323,-2.37055 5.49997,-2.37055c2.16677,0 4.1208,0.91085 5.50003,2.37065zM5.50001,2.99231c-1.41564,0 -2.56324,1.1476 -2.56324,2.56325c0,1.41564 1.1476,2.56324 2.56324,2.56324c1.41565,0 2.56325,-1.1476 2.56325,-2.56324c0,-1.41565 -1.1476,-2.56325 -2.56325,-2.56325zM1.93677,5.55556c0,-1.96793 1.59532,-3.56325 3.56324,-3.56325c1.96793,0 3.56325,1.59532 3.56325,3.56325c0,1.96792 -1.59532,3.56324 -3.56325,3.56324c-1.96792,0 -3.56324,-1.59532 -3.56324,-3.56324z" fill="black"/>
<path fill-rule="evenodd" clip-rule="evenodd" d="M13.5,9.84235c2.1667,0 4.1208,0.91085 5.5,2.37065v1.608c-1.172,-1.7935 -3.1976,-2.9787 -5.5,-2.9787c-1.3699,0 -2.6417,0.4196 -3.69413,1.1371l-0.83895,-0.6292c1.26338,-0.9469 2.83268,-1.50785 4.53308,-1.50785zM13.5,8.1188c1.4156,0 2.5632,-1.1476 2.5632,-2.56324c0,-1.41565 -1.1476,-2.56325 -2.5632,-2.56325c-1.4156,0 -2.5632,1.1476 -2.5632,2.56325c0,1.41564 1.1476,2.56324 2.5632,2.56324zM17.0632,5.55556c0,1.96792 -1.5953,3.56324 -3.5632,3.56324c-1.9679,0 -3.56325,-1.59532 -3.56325,-3.56324c0,-1.96793 1.59535,-3.56325 3.56325,-3.56325c1.9679,0 3.5632,1.59532 3.5632,3.56325z" fill="black"/>
</svg>
