<svg width="12" height="16" viewBox="0 0 12 16" fill="none" xmlns="http://www.w3.org/2000/svg">
<path fill-rule="evenodd" clip-rule="evenodd" d="M10 3H2.001V4H10V3ZM10.001 4.29189L10.2929 4H10.001V3H11.5H12V3.5V12.5V13H11.5H10.001V12H10.2929L10.001 11.7081V10.2939L11 11.2929V4.70711L10.001 5.70611V4.29189ZM10 4.29289L6 8.29289L2.001 4.29389V5.70811L4.29292 8.00002L2.001 10.2919V11.7062L5.00002 8.70713L5.64645 9.35355L6 9.70711L6.35355 9.35355L7.00002 8.70709L10 11.7071V10.2929L7.70712 7.99998L10 5.70711V4.29289ZM10 12H2.001V13H10V12ZM0.5 3H2V4H1.70711L2 4.29289V5.70711L1 4.70711V11.2929L2 10.2929V11.7072L1.70715 12H2V13H0.5H0V12.5V3.5V3H0.5Z" fill="black"/>
</svg>
