<svg width="9" height="16" viewBox="0 0 9 16" fill="none" xmlns="http://www.w3.org/2000/svg">
<path fill-rule="evenodd" clip-rule="evenodd" d="M1.61053,5.31562c0.00009,1.01896 0.31391,2.30887 0.96547,3.6117c0.65156,1.30288 1.49537,2.32768 2.31058,2.93898c0.84197,0.6314 1.51602,0.7324 1.93399,0.5234l0.43046,-0.2153l-0.95726,-1.9141l-0.43047,0.2152c-0.00096,0.0005 -0.00193,0.001 -0.00289,0.0015c-0.55066,0.2735 -1.14596,0.0278 -1.57397,-0.2931c-0.45552,-0.3416 -0.88249,-0.87554 -1.20058,-1.51157c-0.31808,-0.63603 -0.48916,-1.29794 -0.48921,-1.8673c-0.00004,-0.53592 0.16107,-1.16082 0.71253,-1.43662l0.43047,-0.21527l-0.47864,-0.95706l-0.47863,-0.95706l-0.41214,0.20612l-0.44729,-0.89439l0.4472,-0.22364l0.41214,-0.20612l0.44719,-0.22364l0.22365,0.44719l0.70227,1.40425l0.70228,1.40425l0.22365,0.44719l-0.4472,0.22365l-0.87766,0.43892c-0.03019,0.0151 -0.15985,0.12508 -0.15982,0.54214c0.00003,0.38364 0.1199,0.89281 0.3836,1.4201c0.2637,0.52729 0.5992,0.92863 0.90612,1.15879c0.33368,0.25021 0.49945,0.21243 0.52964,0.19733l0.87766,-0.43892l0.44719,-0.22365l0.22365,0.4472l1.40455,2.80851l0.22365,0.4472l-0.4472,0.2236l-0.87765,0.4389c-0.93924,0.4698 -2.04415,0.085 -2.98121,-0.6176c-0.96381,-0.7228 -1.8991,-1.8802 -2.60504,-3.29179c-0.70594,-1.41158 -1.07098,-2.85422 -1.07108,-4.0589c-0.0001,-1.17125 0.35486,-2.28608 1.2941,-2.7558l0.44729,0.89439c-0.41796,0.20903 -0.74148,0.80893 -0.74139,1.86132z" fill="black"/>
</svg>
