<svg width="12" height="16" viewBox="0 0 12 16" fill="none" xmlns="http://www.w3.org/2000/svg">
<path fill-rule="evenodd" clip-rule="evenodd" d="M5.5,3c1.38071,0 2.5,1.11929 2.5,2.5c0,0.17106 -0.01724,0.3383 -0.05011,0.5h1.05011c1.1046,0 2,0.89543 2,2c0,0.46824 -0.1609,0.8989 -0.4304,1.23969c0.8456,0.40085 1.4304,1.26231 1.4304,2.26031c0,1.3807 -1.1193,2.5 -2.5,2.5h-7c-1.38071,0 -2.5,-1.1193 -2.5,-2.5c0,-0.998 0.58481,-1.85946 1.43045,-2.26031c-0.26954,-0.34079 -0.43045,-0.77145 -0.43045,-1.23969c0,-1.10457 0.89543,-2 2,-2h1c0.55228,0 1,-0.44772 1,-1c0,-0.55228 -0.44772,-1 -1,-1c-0.27614,0 -0.5,-0.22386 -0.5,-0.5c0,-0.27614 0.22386,-0.5 0.5,-0.5zM6.91479,6c0.05516,-0.15607 0.08521,-0.32421 0.08521,-0.5c0,-0.74546 -0.54379,-1.3639 -1.25632,-1.48031c0.16321,0.28968 0.25632,0.62412 0.25632,0.98031c0,0.36429 -0.09739,0.70583 -0.26756,1zM4,7h-1c-0.55228,0 -1,0.44772 -1,1c0,0.55228 0.44772,1 1,1h6c0.55228,0 1,-0.44772 1,-1c0,-0.55228 -0.44772,-1 -1,-1h-1.76756zM1,11.5c0,0.8284 0.67157,1.5 1.5,1.5h7c0.8284,0 1.5,-0.6716 1.5,-1.5c0,-0.8284 -0.6716,-1.5 -1.5,-1.5h-0.5h-6h-0.5c-0.82843,0 -1.5,0.6716 -1.5,1.5z" fill="black"/>
</svg>
