<svg width="9" height="16" viewBox="0 0 9 16" fill="none" xmlns="http://www.w3.org/2000/svg">
<path fill-rule="evenodd" clip-rule="evenodd" d="M6.5,2c0.18939,0 0.36252,0.107 0.44722,0.27639c0.08469,0.1694 0.06641,0.3721 -0.04722,0.52361l-1.39465,1.85954l1.59863,7.00986c0.03823,0.1676 -0.01235,0.3431 -0.13393,0.4647l-2.11657,2.1166c-0.19526,0.1952 -0.51184,0.1952 -0.7071,0l-1.86943,-1.8694c-0.11776,-0.1178 -0.16916,-0.2865 -0.13709,-0.4499l1.41193,-7.19568l-1.45179,-1.93572c-0.11363,-0.15151 -0.13191,-0.35421 -0.04721,-0.52361c0.0847,-0.16939 0.25783,-0.27639 0.44721,-0.27639zM3.17245,11.8625l1.32748,1.3275l1.56765,-1.5676l-1.51026,-6.6224h-0.03831zM4.75,4l0.75,-1h-2l0.75,1z" fill="black"/>
</svg>
