<svg width="12" height="16" viewBox="0 0 12 16" fill="none" xmlns="http://www.w3.org/2000/svg">
<path fill-rule="evenodd" clip-rule="evenodd" d="M11 3H1.001V4.70811L4.29292 8.00002L1.001 11.2919V13H11V11.2929L7.70712 7.99998L11 4.70711V3ZM11.001 13H11.5H12V12.5V3.5V3H11.5H11.001V13ZM0.5 3H1V4.70711V11.2929V13H0.5H0V12.5V3.5V3H0.5ZM1.70715 12H10.2929L7.00002 8.70709L6.35355 9.35355L6 9.70711L5.64645 9.35355L5.00002 8.70713L1.70715 12ZM6 8.29289L1.70711 4H10.2929L6 8.29289Z" fill="black"/>
</svg>
