<svg width="14" height="16" viewBox="0 0 14 16" fill="none" xmlns="http://www.w3.org/2000/svg">
<path d="M12.654 10.962L12.2283 10.6997C12.1507 10.8258 12.1329 10.9797 12.1797 11.1201L12.654 10.962ZM11.0593 12.6864L11.2174 12.2121C11.0629 12.1606 10.893 12.1875 10.7621 12.2843L11.0593 12.6864ZM13.5 13.5L13.3419 13.9743C13.5216 14.0342 13.7196 13.9875 13.8536 13.8536C13.9875 13.7196 14.0342 13.5216 13.9743 13.3419L13.5 13.5ZM13 8C13 8.98017 12.7206 9.90086 12.2283 10.6997L13.0797 11.2243C13.6644 10.2754 14 9.17428 14 8H13ZM7 2.5C10.3521 2.5 13 4.99936 13 8H14C14 4.37322 10.8276 1.5 7 1.5V2.5ZM1 8C1 4.99936 3.64786 2.5 7 2.5V1.5C3.17244 1.5 0 4.37322 0 8H1ZM7 13.5C3.64786 13.5 1 11.0006 1 8H0C0 11.6268 3.17244 14.5 7 14.5V13.5ZM10.7621 12.2843C9.73554 13.0429 8.42834 13.5 7 13.5V14.5C8.64301 14.5 10.1584 13.9739 11.3564 13.0885L10.7621 12.2843ZM10.9011 13.1608L13.3419 13.9743L13.6581 13.0257L11.2174 12.2121L10.9011 13.1608ZM13.9743 13.3419L13.1284 10.8039L12.1797 11.1201L13.0257 13.6581L13.9743 13.3419Z" fill="black"/>
</svg>
