<svg width="14" height="16" viewBox="0 0 14 16" fill="none" xmlns="http://www.w3.org/2000/svg">
<path d="M1.34599 10.962L1.77167 10.6997C1.84932 10.8258 1.86714 10.9797 1.82033 11.1201L1.34599 10.962ZM2.94074 12.6864L2.78262 12.2121C2.93709 12.1606 3.10695 12.1875 3.2379 12.2843L2.94074 12.6864ZM0.5 13.5L0.658113 13.9743C0.478446 14.0342 0.280363 13.9875 0.146446 13.8536C0.0125303 13.7196 -0.0342312 13.5216 0.0256586 13.3419L0.5 13.5ZM1 8C1 8.98017 1.27943 9.90086 1.77167 10.6997L0.920308 11.2243C0.335645 10.2754 0 9.17428 0 8H1ZM7 2.5C3.64786 2.5 1 4.99936 1 8H0C0 4.37322 3.17244 1.5 7 1.5V2.5ZM13 8C13 4.99936 10.3521 2.5 7 2.5V1.5C10.8276 1.5 14 4.37322 14 8H13ZM7 13.5C10.3521 13.5 13 11.0006 13 8H14C14 11.6268 10.8276 14.5 7 14.5V13.5ZM3.2379 12.2843C4.26446 13.0429 5.57166 13.5 7 13.5V14.5C5.35699 14.5 3.84162 13.9739 2.64357 13.0885L3.2379 12.2843ZM3.09885 13.1608L0.658113 13.9743L0.341887 13.0257L2.78262 12.2121L3.09885 13.1608ZM0.0256586 13.3419L0.871649 10.8039L1.82033 11.1201L0.974341 13.6581L0.0256586 13.3419Z" fill="black"/>
</svg>
