<svg width="17" height="16" viewBox="0 0 17 16" fill="none" xmlns="http://www.w3.org/2000/svg">
<path d="M1.22275,11.3318l0.41452,-0.2796c0.08681,0.1287 0.10891,0.2904 0.05982,0.4377zM2.74048,12.7532l-0.15811,-0.4744c0.13807,-0.046 0.28935,-0.0296 0.41433,0.045zM0.5,13.5l0.15811,0.4743c-0.17967,0.0599 -0.37775,0.0132 -0.51167,-0.1207c-0.13392,-0.134 -0.18068,-0.332 -0.12079,-0.5117zM1,9c0,0.74799 0.23087,1.4496 0.63727,2.0522l-0.82905,0.5591c-0.51091,-0.7575 -0.80822,-1.65204 -0.80822,-2.6113zM5.5,5c-2.53614,0 -4.5,1.83911 -4.5,4h-1c0,-2.80967 2.51329,-5 5.5,-5zM10,9c0,-2.16089 -1.96386,-4 -4.5,-4v-1c2.98671,0 5.5,2.19033 5.5,5zM5.5,13c2.53614,0 4.5,-1.8391 4.5,-4h1c0,2.8097 -2.51329,5 -5.5,5zM2.9967,12.3238c0.7133,0.4257 1.57341,0.6762 2.5033,0.6762v1c-1.11011,0 -2.14732,-0.2992 -3.01574,-0.8175zM2.89859,13.2275l-2.24048,0.7468l-0.31623,-0.9486l2.24048,-0.7469zM0.02566,13.3419l0.72275,-2.1683l0.94868,0.3163l-0.72275,2.1682z" fill="black"/>
<path fill-rule="evenodd" clip-rule="evenodd" d="M7.35864,3.25246c0.97738,-0.78301 2.25862,-1.25246 3.64136,-1.25246c2.9867,0 5.5,2.19033 5.5,5c0,0.87128 -0.2453,1.68921 -0.6731,2.39953l0.6474,1.94237c0.0599,0.1797 0.0131,0.3777 -0.1208,0.5117c-0.1339,0.1339 -0.332,0.1806 -0.5116,0.1207l-2.0291,-0.6763c-0.7878,0.4267 -1.701,0.6785 -2.6739,0.7004c0.2046,-0.3266 0.3771,-0.6742 0.5127,-1.04c0.6797,-0.0877 1.3083,-0.3103 1.8517,-0.6346c0.125,-0.0746 0.2762,-0.091 0.4143,-0.045l1.2918,0.4306l-0.4065,-1.21953c-0.0491,-0.14727 -0.027,-0.309 0.0598,-0.4377c0.4064,-0.60255 0.6373,-1.30418 0.6373,-2.05217c0,-2.16089 -1.9639,-4 -4.5,-4c-0.9372,0 -1.79629,0.25115 -2.50697,0.67687c-0.3617,-0.17313 -0.74148,-0.31559 -1.13439,-0.42441z" fill="black"/>
</svg>
