<svg width="10" height="16" viewBox="0 0 10 16" fill="none" xmlns="http://www.w3.org/2000/svg">
<path fill-rule="evenodd" clip-rule="evenodd" d="M4.70711 3.00355L6.35355 1.3571L5.64645 0.649994L3.14645 3.14999L2.79289 3.50355L3.14645 3.8571L5.64645 6.3571L6.35355 5.64999L4.70711 4.00355H5C7.20914 4.00355 9 5.79441 9 8.00355H10C10 5.24212 7.76142 3.00355 5 3.00355H4.70711Z" fill="black"/>
<path fill-rule="evenodd" clip-rule="evenodd" d="M5.29289 12.9965L3.64645 14.6429L4.35355 15.35L6.85355 12.85L7.20711 12.4965L6.85355 12.1429L4.35355 9.6429L3.64645 10.35L5.29289 11.9965L5 11.9965C2.79086 11.9965 1 10.2056 1 7.99645L1.28574e-06 7.99645C8.02913e-07 10.7579 2.23858 12.9965 5 12.9965L5.29289 12.9965Z" fill="black"/>
</svg>
