<svg width="14" height="16" viewBox="0 0 14 16" fill="none" xmlns="http://www.w3.org/2000/svg">
<path d="M1.34599,10.962l0.42568,-0.2623c0.07765,0.1261 0.09547,0.28 0.04866,0.4204zM2.94074,12.6864l-0.15812,-0.4743c0.15447,-0.0515 0.32433,-0.0246 0.45528,0.0722zM0.5,13.5l0.15811,0.4743c-0.17967,0.0599 -0.37775,0.0132 -0.51167,-0.1207c-0.13392,-0.134 -0.18068,-0.332 -0.12079,-0.5117zM1,8c0,0.98017 0.27943,1.90086 0.77167,2.6997l-0.85136,0.5246c-0.58466,-0.9489 -0.92031,-2.05002 -0.92031,-3.2243zM7,2.5c-3.35214,0 -6,2.49936 -6,5.5h-1c0,-3.62678 3.17244,-6.5 7,-6.5zM13,8c0,-3.00064 -2.6479,-5.5 -6,-5.5v-1c3.8276,0 7,2.87322 7,6.5zM7,13.5c3.3521,0 6,-2.4994 6,-5.5h1c0,3.6268 -3.1724,6.5 -7,6.5zM3.2379,12.2843c1.02656,0.7586 2.33376,1.2157 3.7621,1.2157v1c-1.64301,0 -3.15838,-0.5261 -4.35643,-1.4115zM3.09885,13.1608l-2.44074,0.8135l-0.31623,-0.9486l2.44073,-0.8136zM0.02566,13.3419l0.84599,-2.538l0.94868,0.3162l-0.84599,2.538z" fill="black"/>
</svg>
