<svg width="10" height="16" viewBox="0 0 10 16" fill="none" xmlns="http://www.w3.org/2000/svg">
<path fill-rule="evenodd" clip-rule="evenodd" d="M5,3.00355c2.76142,0 5,2.23857 5,5h-1c0,-2.20914 -1.79086,-4 -4,-4h-0.29289l1.64644,1.64644l-0.7071,0.70711l-2.5,-2.5l-0.35356,-0.35355l0.35356,-0.35356l2.5,-2.5l0.7071,0.70711l-1.64644,1.64645z" fill="black"/>
<path fill-rule="evenodd" clip-rule="evenodd" d="M5,12.9965c-2.76142,0 -5,-2.2386 -5,-5.00005h1c0,2.20915 1.79086,4.00005 4,4.00005h0.29289l-1.64644,-1.6465l0.7071,-0.7071l2.5,2.5l0.35356,0.3536l-0.35356,0.3535l-2.5,2.5l-0.7071,-0.7071l1.64644,-1.6464z" fill="black"/>
</svg>
