<svg width="12" height="16" viewBox="0 0 12 16" fill="none" xmlns="http://www.w3.org/2000/svg">
<path fill-rule="evenodd" clip-rule="evenodd" d="M5,11c2.20914,0 4,-1.79086 4,-4c0,-2.20914 -1.79086,-4 -4,-4c-2.20914,0 -4,1.79086 -4,4c0,2.20914 1.79086,4 4,4zM10,7c0,1.20063 -0.42318,2.30243 -1.12853,3.1644l3.01363,3.0136l-0.7071,0.7071l-3.01363,-3.0136c-0.86194,0.7053 -1.96374,1.1285 -3.16437,1.1285c-2.76142,0 -5,-2.23858 -5,-5c0,-2.76142 2.23858,-5 5,-5c2.76142,0 5,2.23858 5,5z" fill="black"/>
</svg>
