<svg width="13" height="16" viewBox="0 0 13 16" fill="none" xmlns="http://www.w3.org/2000/svg">
<path fill-rule="evenodd" clip-rule="evenodd" d="M4.99998 6.5C4.99998 4.567 6.56698 3 8.49998 3C10.433 3 12 4.567 12 6.5C12 8.433 10.433 10 8.49998 10C6.56698 10 4.99998 8.433 4.99998 6.5ZM8.49998 2C6.0147 2 3.99998 4.01472 3.99998 6.5C3.99998 7.56251 4.36821 8.53901 4.98403 9.30884L0.646423 13.6464L1.35353 14.3536L5.69113 10.0159C6.46097 10.6318 7.43747 11 8.49998 11C10.9853 11 13 8.98528 13 6.5C13 4.01472 10.9853 2 8.49998 2Z" fill="black"/>
</svg>
