<svg width="13" height="16" viewBox="0 0 13 16" fill="none" xmlns="http://www.w3.org/2000/svg">
<path fill-rule="evenodd" clip-rule="evenodd" d="M3.5,1c0.27614,0 0.5,0.22386 0.5,0.5v2c0,0.27614 -0.22386,0.5 -0.5,0.5c-0.27614,0 -0.5,-0.22386 -0.5,-0.5v-2c0,-0.27614 0.22386,-0.5 0.5,-0.5zM2,3h-0.5c-0.27614,0 -0.5,0.22386 -0.5,0.5v9c0,0.2761 0.22386,0.5 0.5,0.5h10c0.2761,0 0.5,-0.2239 0.5,-0.5v-9c0,-0.27614 -0.2239,-0.5 -0.5,-0.5h-0.5v-1h0.5c0.8284,0 1.5,0.67157 1.5,1.5v9c0,0.8284 -0.6716,1.5 -1.5,1.5h-10c-0.82843,0 -1.5,-0.6716 -1.5,-1.5v-9c0,-0.82843 0.67157,-1.5 1.5,-1.5h0.5zM2,5.5c0,-0.27614 0.22386,-0.5 0.5,-0.5h8c0.2761,0 0.5,0.22386 0.5,0.5c0,0.27614 -0.2239,0.5 -0.5,0.5h-8c-0.27614,0 -0.5,-0.22386 -0.5,-0.5zM10.5,7c0.2761,0 0.5,0.22386 0.5,0.5c0,0.27614 -0.2239,0.5 -0.5,0.5h-8c-0.27614,0 -0.5,-0.22386 -0.5,-0.5c0,-0.27614 0.22386,-0.5 0.5,-0.5zM2,9.5c0,-0.27614 0.22386,-0.5 0.5,-0.5h8c0.2761,0 0.5,0.22386 0.5,0.5c0,0.27614 -0.2239,0.5 -0.5,0.5h-8c-0.27614,0 -0.5,-0.22386 -0.5,-0.5zM5.5,11c0.27614,0 0.5,0.2239 0.5,0.5c0,0.2761 -0.22386,0.5 -0.5,0.5h-3c-0.27614,0 -0.5,-0.2239 -0.5,-0.5c0,-0.2761 0.22386,-0.5 0.5,-0.5zM6,3.5c0,0.27614 -0.22386,0.5 -0.5,0.5c-0.27614,0 -0.5,-0.22386 -0.5,-0.5v-2c0,-0.27614 0.22386,-0.5 0.5,-0.5c0.27614,0 0.5,0.22386 0.5,0.5zM7.5,1c0.27614,0 0.5,0.22386 0.5,0.5v2c0,0.27614 -0.22386,0.5 -0.5,0.5c-0.27614,0 -0.5,-0.22386 -0.5,-0.5v-2c0,-0.27614 0.22386,-0.5 0.5,-0.5zM10,3.5c0,0.27614 -0.22386,0.5 -0.5,0.5c-0.27614,0 -0.5,-0.22386 -0.5,-0.5v-2c0,-0.27614 0.22386,-0.5 0.5,-0.5c0.27614,0 0.5,0.22386 0.5,0.5z" fill="black"/>
</svg>
