<svg width="13" height="16" viewBox="0 0 13 16" fill="none" xmlns="http://www.w3.org/2000/svg">
<path fill-rule="evenodd" clip-rule="evenodd" d="M8.49998,10c1.93302,0 3.50002,-1.567 3.50002,-3.5c0,-1.933 -1.567,-3.5 -3.50002,-3.5c-1.933,0 -3.5,1.567 -3.5,3.5c0,1.933 1.567,3.5 3.5,3.5zM13,6.5c0,2.48528 -2.0147,4.5 -4.50002,4.5c-1.06251,0 -2.03901,-0.3682 -2.80885,-0.9841l-4.3376,4.3377l-0.70711,-0.7072l4.33761,-4.33756c-0.61582,-0.76983 -0.98405,-1.74633 -0.98405,-2.80884c0,-2.48528 2.01472,-4.5 4.5,-4.5c2.48532,0 4.50002,2.01472 4.50002,4.5z" fill="black"/>
</svg>
