<svg width="12" height="16" viewBox="0 0 12 16" fill="none" xmlns="http://www.w3.org/2000/svg">
<path fill-rule="evenodd" clip-rule="evenodd" d="M10.9995,6.07144h0.5005c0.2761,0 0.5,0.22386 0.5,0.5v6.85716c0,0.2761 -0.2239,0.5 -0.5,0.5h-11c-0.27614,0 -0.5,-0.2239 -0.5,-0.5v-6.85716c0,-0.27614 0.22386,-0.5 0.5,-0.5h0.5005c-0.00033,-0.02377 -0.0005,-0.04759 -0.0005,-0.07144c0,-2.76142 2.23858,-5 5,-5c2.76142,0 5,2.23858 5,5c0,0.02385 -0.0002,0.04767 -0.0005,0.07144zM9.99937,6.07144c0.00042,-0.02376 0.00063,-0.04758 0.00063,-0.07144c0,-2.20914 -1.79086,-4 -4,-4c-2.20914,0 -4,1.79086 -4,4c0,0.02386 0.00021,0.04768 0.00063,0.07144zM11,12.9286v-5.85716h-10v5.85716z" fill="black"/>
</svg>
