<svg width="15" height="16" viewBox="0 0 15 16" fill="none" xmlns="http://www.w3.org/2000/svg">
<path fill-rule="evenodd" clip-rule="evenodd" d="M1 8.00398C1 4.68344 3.69183 1.99161 7.01237 1.99161C10.3329 1.99161 13.0247 4.68344 13.0247 8.00398C13.0247 11.3245 10.3329 14.0163 7.01237 14.0163C3.69183 14.0163 1 11.3245 1 8.00398ZM7.01237 0.991608C3.13954 0.991608 0 4.13115 0 8.00398C0 11.8768 3.13954 15.0163 7.01237 15.0163C10.8852 15.0163 14.0247 11.8768 14.0247 8.00398C14.0247 4.13115 10.8852 0.991608 7.01237 0.991608ZM6.57938 11.0343L7.01239 11.7843L7.4454 11.0343L10.4765 5.78434L10.9095 5.03434H10.0435L3.9813 5.03434H3.11528L3.54829 5.78434L6.57938 11.0343ZM4.84733 6.03434L9.17745 6.03434L7.01239 9.78434L4.84733 6.03434Z" fill="black"/>
</svg>
