<svg width="14" height="16" viewBox="0 0 14 16" fill="none" xmlns="http://www.w3.org/2000/svg">
<path d="M12.1797,11.1201c-0.0468,-0.1404 -0.029,-0.2943 0.0486,-0.4204l0.4257,0.2623zM10.7621,12.2843c0.1309,-0.0968 0.3008,-0.1237 0.4553,-0.0722l-0.1581,0.4743zM13.9743,13.3419c0.0599,0.1797 0.0132,0.3777 -0.1207,0.5117c-0.134,0.1339 -0.332,0.1806 -0.5117,0.1207l0.1581,-0.4743zM14,8c0,1.17428 -0.3356,2.2754 -0.9203,3.2243l-0.8514,-0.5246c0.4923,-0.79884 0.7717,-1.71953 0.7717,-2.6997zM7,1.5c3.8276,0 7,2.87322 7,6.5h-1c0,-3.00064 -2.6479,-5.5 -6,-5.5zM0,8c0,-3.62678 3.17244,-6.5 7,-6.5v1c-3.35214,0 -6,2.49936 -6,5.5zM7,14.5c-3.82756,0 -7,-2.8732 -7,-6.5h1c0,3.0006 2.64786,5.5 6,5.5zM11.3564,13.0885c-1.198,0.8854 -2.71339,1.4115 -4.3564,1.4115v-1c1.42834,0 2.73554,-0.4571 3.7621,-1.2157zM11.2174,12.2121l2.4407,0.8136l-0.3162,0.9486l-2.4408,-0.8135zM13.0257,13.6581l-0.846,-2.538l0.9487,-0.3162l0.8459,2.538z" fill="black"/>
</svg>
