<svg width="15" height="16" viewBox="0 0 15 16" fill="none" xmlns="http://www.w3.org/2000/svg">
<path fill-rule="evenodd" clip-rule="evenodd" d="M7.50003,2.46744c-3.05774,0 -5.53653,2.47879 -5.53653,5.53653c0,3.05773 2.47879,5.53653 5.53653,5.53653c3.05777,0 5.53657,-2.4788 5.53657,-5.53653c0,-3.05774 -2.4788,-5.53653 -5.53657,-5.53653zM0.9635,8.00397c0,-3.61003 2.92651,-6.53653 6.53653,-6.53653c3.61007,0 6.53657,2.9265 6.53657,6.53653c0,3.61003 -2.9265,6.53653 -6.53657,6.53653c-3.61002,0 -6.53653,-2.9265 -6.53653,-6.53653zM8,5.5c0,0.27614 -0.22386,0.5 -0.5,0.5c-0.27614,0 -0.5,-0.22386 -0.5,-0.5c0,-0.27614 0.22386,-0.5 0.5,-0.5c0.27614,0 0.5,0.22386 0.5,0.5zM7,7.5c0,-0.27614 0.22386,-0.5 0.5,-0.5c0.27614,0 0.5,0.22386 0.5,0.5v3.5c0,0.2761 -0.22386,0.5 -0.5,0.5c-0.27614,0 -0.5,-0.2239 -0.5,-0.5z" fill="black"/>
</svg>
