<svg width="16" height="16" viewBox="0 0 16 16" fill="none" xmlns="http://www.w3.org/2000/svg">
<path fill-rule="evenodd" clip-rule="evenodd" d="M9.5,1h0.5v0.5v1.49347h4.5c0.8284,0 1.5,0.67157 1.5,1.5v8.00003c0,0.8284 -0.6716,1.5 -1.5,1.5h-13c-0.82843,0 -1.5,-0.6716 -1.5,-1.5v-8.00003c0,-0.82843 0.67157,-1.5 1.5,-1.5h4.5v-1.49347v-0.5h0.5zM9,2.99347v-0.99347h-2v0.99347zM1.5,3.99347c-0.27614,0 -0.5,0.22386 -0.5,0.5v8.00003c0,0.2761 0.22386,0.5 0.5,0.5h13c0.2761,0 0.5,-0.2239 0.5,-0.5v-8.00003c0,-0.27614 -0.2239,-0.5 -0.5,-0.5zM13,10h-10v1h10zM13,9h1v1v1v1h-1h-10h-1v-1v-1v-1h1zM3,7h1v-1h-1zM2,5h1h1h1v1v1v1h-1h-1h-1v-1v-1zM13,6h-1v1h1zM13,5h1v1v1v1h-1h-1h-1v-1v-1v-1h1z" fill="black"/>
</svg>
