<svg width="12" height="16" viewBox="0 0 12 16" fill="none" xmlns="http://www.w3.org/2000/svg">
<path fill-rule="evenodd" clip-rule="evenodd" d="M6.5,2h0.5v0.5v1h-1v-0.5h-1v0.5h-1v-1v-0.5h0.5zM10.0892,9.45838c0,-2.48741 -2.01641,-4.50385 -4.50382,-4.50385c-2.48741,0 -4.50385,2.01644 -4.50385,4.50385c0,2.48742 2.01644,4.50382 4.50385,4.50382c2.48741,0 4.50382,-2.0164 4.50382,-4.50382zM5.58538,3.95453c3.03969,0 5.50382,2.46416 5.50382,5.50385c0,3.03972 -2.46413,5.50382 -5.50382,5.50382c-3.03969,0 -5.50385,-2.4641 -5.50385,-5.50382c0,-3.03969 2.46416,-5.50385 5.50385,-5.50385zM6,5.5v4.5h-1v-4.5zM1.5,9h1v1h-1zM9.5,10h-1v-1h1zM6,12.5v1h-1v-1z" fill="black"/>
</svg>
