<svg width="15" height="16" viewBox="0 0 15 16" fill="none" xmlns="http://www.w3.org/2000/svg">
<path fill-rule="evenodd" clip-rule="evenodd" d="M7.01237,1.99161c-3.32054,0 -6.01237,2.69183 -6.01237,6.01237c0,3.32052 2.69183,6.01232 6.01237,6.01232c3.32053,0 6.01233,-2.6918 6.01233,-6.01232c0,-3.32054 -2.6918,-6.01237 -6.01233,-6.01237zM0,8.00398c0,-3.87283 3.13954,-7.01237 7.01237,-7.01237c3.87283,0 7.01233,3.13954 7.01233,7.01237c0,3.87282 -3.1395,7.01232 -7.01233,7.01232c-3.87283,0 -7.01237,-3.1395 -7.01237,-7.01232zM9,5v6h-1v-6zM5.01868,11v-6h1v6z" fill="black"/>
</svg>
