<svg width="12" height="16" viewBox="0 0 12 16" fill="none" xmlns="http://www.w3.org/2000/svg">
<path fill-rule="evenodd" clip-rule="evenodd" d="M4.5 2H4V2.5V3.5H5V3H6V3.5H7V2.5V2H6.5H4.5ZM10.0892 9.45838C10.0892 6.97097 8.07279 4.95453 5.58538 4.95453C3.09797 4.95453 1.08153 6.97097 1.08153 9.45838C1.08153 11.9458 3.09797 13.9622 5.58538 13.9622C8.07279 13.9622 10.0892 11.9458 10.0892 9.45838ZM5.58538 3.95453C8.62507 3.95453 11.0892 6.41869 11.0892 9.45838C11.0892 12.4981 8.62507 14.9622 5.58538 14.9622C2.54569 14.9622 0.0815296 12.4981 0.0815296 9.45838C0.0815296 6.41869 2.54569 3.95453 5.58538 3.95453ZM6 5.5V10H5V5.5H6ZM1.5 10H2.5V9H1.5V10ZM9.5 10H8.5V9H9.5V10ZM5 12.5V13.5H6V12.5H5Z" fill="black"/>
</svg>
