<svg width="15" height="16" viewBox="0 0 15 16" fill="none" xmlns="http://www.w3.org/2000/svg">
<path fill-rule="evenodd" clip-rule="evenodd" d="M1 8.00398C1 4.68344 3.69183 1.99161 7.01237 1.99161C10.3329 1.99161 13.0247 4.68344 13.0247 8.00398C13.0247 11.3245 10.3329 14.0163 7.01237 14.0163C3.69183 14.0163 1 11.3245 1 8.00398ZM7.01237 0.991608C3.13954 0.991608 0 4.13115 0 8.00398C0 11.8768 3.13954 15.0163 7.01237 15.0163C10.8852 15.0163 14.0247 11.8768 14.0247 8.00398C14.0247 4.13115 10.8852 0.991608 7.01237 0.991608ZM10.0282 8.43301L10.7782 8L10.0282 7.56699L4.77819 4.5359L4.02819 4.10289V4.96891L4.02819 11.0311V11.8971L4.77819 11.4641L10.0282 8.43301ZM5.02819 10.1651L5.02819 5.83494L8.77819 8L5.02819 10.1651Z" fill="black"/>
</svg>
