<svg width="15" height="16" viewBox="0 0 15 16" fill="none" xmlns="http://www.w3.org/2000/svg">
<path fill-rule="evenodd" clip-rule="evenodd" d="M7.01237,14.0163c3.32053,0 6.01233,-2.6918 6.01233,-6.01232c0,-3.32054 -2.6918,-6.01237 -6.01233,-6.01237c-3.32054,0 -6.01237,2.69183 -6.01237,6.01237c0,3.32052 2.69183,6.01232 6.01237,6.01232zM14.0247,8.00398c0,3.87282 -3.1395,7.01232 -7.01233,7.01232c-3.87283,0 -7.01237,-3.1395 -7.01237,-7.01232c0,-3.87283 3.13954,-7.01237 7.01237,-7.01237c3.87283,0 7.01233,3.13954 7.01233,7.01237zM4.77819,11.4641l-0.75,0.433v-0.866v-6.06219v-0.86602l0.75,0.43301l5.25001,3.03109l0.75,0.43301l-0.75,0.43301zM8.77819,8l-3.75,-2.16506v4.33016z" fill="black"/>
</svg>
