<svg width="15" height="16" viewBox="0 0 15 16" fill="none" xmlns="http://www.w3.org/2000/svg">
<path fill-rule="evenodd" clip-rule="evenodd" d="M1.9822 7.5178C1.9822 4.4704 4.45261 2 7.5 2C8.68187 2 9.77694 2.37157 10.6748 3.00427L7.50067 3L7.49933 4L11.756 4.00572C12.0109 4.31434 12.233 4.65117 12.4167 5.01082L7.5011 5L7.4989 6L12.8097 6.01168C12.9 6.33033 12.9623 6.66071 12.9938 7H7.5V8H12.997C12.9673 8.34329 12.9062 8.67759 12.8165 9H7.5V10H12.4293C12.249 10.3574 12.031 10.6924 11.7805 11H7.5V12H10.7188C9.81284 12.6517 8.70125 13.0356 7.5 13.0356C4.45261 13.0356 1.9822 10.5652 1.9822 7.5178ZM7.5 1C3.90032 1 0.982201 3.91812 0.982201 7.5178C0.982201 11.1175 3.90032 14.0356 7.5 14.0356C11.0997 14.0356 14.0178 11.1175 14.0178 7.5178C14.0178 3.91812 11.0997 1 7.5 1Z" fill="black"/>
</svg>
