<svg width="15" height="16" viewBox="0 0 15 16" fill="none" xmlns="http://www.w3.org/2000/svg">
<path fill-rule="evenodd" clip-rule="evenodd" d="M7.5,13.0356c1.20125,0 2.31284,-0.3839 3.2188,-1.0356h-3.2188v-1h4.2805c0.2505,-0.3076 0.4685,-0.6426 0.6488,-1h-4.9293v-1h5.3165c0.0897,-0.32241 0.1508,-0.65671 0.1805,-1h-5.497v-1h5.4938c-0.0315,-0.33929 -0.0938,-0.66967 -0.1841,-0.98832l-5.3108,-0.01168l0.0022,-1l4.9156,0.01082c-0.1837,-0.35965 -0.4058,-0.69648 -0.6607,-1.0051l-4.25667,-0.00572l0.00134,-1l3.17413,0.00427c-0.89786,-0.6327 -1.99293,-1.00427 -3.1748,-1.00427c-3.04739,0 -5.5178,2.4704 -5.5178,5.5178c0,3.0474 2.47041,5.5178 5.5178,5.5178zM14.0178,7.5178c0,3.5997 -2.9181,6.5178 -6.5178,6.5178c-3.59968,0 -6.5178,-2.9181 -6.5178,-6.5178c0,-3.59968 2.91812,-6.5178 6.5178,-6.5178c3.5997,0 6.5178,2.91812 6.5178,6.5178z" fill="black"/>
</svg>
