<svg width="14" height="16" viewBox="0 0 14 16" fill="none" xmlns="http://www.w3.org/2000/svg">
<path fill-rule="evenodd" clip-rule="evenodd" d="M6.42681,2.46155c0.17422,-0.5638 0.97228,-0.56381 1.1465,0l1.09394,3.54007h3.53715c0.574,0 0.8203,0.72838 0.3643,1.07679l-2.88714,2.20556l1.10304,3.56953c0.1725,0.5581 -0.4733,1.0085 -0.9375,0.6539l-2.84704,-2.175l-2.84704,2.175c-0.46422,0.3546 -1.10996,-0.0958 -0.93749,-0.6539l1.10303,-3.56953l-2.88711,-2.20556c-0.45607,-0.34841 -0.20967,-1.07679 0.36424,-1.07679h3.53718zM7.00006,3.99352l-0.79888,2.58524c-0.07769,0.25141 -0.31012,0.42286 -0.57326,0.42286h-2.64971l2.16914,1.65707c0.19982,0.15265 0.28325,0.4137 0.20901,0.65394l-0.81592,2.64037l2.09538,-1.6007c0.21504,-0.1643 0.51344,-0.1643 0.72848,0l2.09538,1.6007l-0.81592,-2.64037c-0.07424,-0.24024 0.0092,-0.50129 0.20901,-0.65394l2.16913,-1.65707h-2.6497c-0.26314,0 -0.49557,-0.17145 -0.57325,-0.42286z" fill="black"/>
</svg>
