<svg width="14" height="16" viewBox="0 0 14 16" fill="none" xmlns="http://www.w3.org/2000/svg">
<path fill-rule="evenodd" clip-rule="evenodd" d="M8.66716,6.00161h3.83284c0.2144,0 0.4049,0.13669 0.4736,0.33979c0.0687,0.2031 0.0003,0.42739 -0.1701,0.55754l-3.12203,2.38502l1.19543,3.86844c0.0642,0.2078 -0.0133,0.4332 -0.1917,0.5577c-0.1784,0.1244 -0.4167,0.1192 -0.5896,-0.0128l-3.09563,-2.3649l-3.09566,2.3649c-0.17283,0.132 -0.41119,0.1372 -0.58958,0.0128c-0.17839,-0.1245 -0.25587,-0.3499 -0.19166,-0.5577l1.1954,-3.86844l-3.12203,-2.38502c-0.17038,-0.13015 -0.23881,-0.35444 -0.17011,-0.55754c0.0687,-0.2031 0.25924,-0.33979 0.47364,-0.33979h3.83281l1.18948,-3.84924c0.06474,-0.20951 0.25843,-0.35238 0.47771,-0.35238c0.21928,0 0.41297,0.14287 0.47771,0.35238z" fill="black"/>
</svg>
