<svg width="14" height="16" viewBox="0 0 14 16" fill="none" xmlns="http://www.w3.org/2000/svg">
<path fill-rule="evenodd" clip-rule="evenodd" d="M7 0.606476L7.47771 2.15238L8.66719 6.00163H12.5H13.9781L12.8035 6.89896L9.68149 9.28398L10.8769 13.1524L11.3387 14.647L10.0957 13.6973L7 11.3325L3.90434 13.6973L2.66125 14.647L3.1231 13.1524L4.3185 9.28398L1.19647 6.89896L0.0218506 6.00163H1.5H5.3328L6.52229 2.15238L7 0.606476ZM7 3.99353L6.17934 6.64925L6.07044 7.00163H5.70162H2.97815L5.20272 8.70105L5.47987 8.91278L5.3769 9.246L4.54038 11.953L6.69647 10.3059L7 10.0741L7.30353 10.3059L9.45962 11.953L8.6231 9.246L8.52013 8.91278L8.79728 8.70105L11.0219 7.00163H8.29837H7.92955L7.82066 6.64925L7 3.99353Z" fill="black"/>
</svg>
