<svg width="19" height="16" viewBox="0 0 19 16" fill="none" xmlns="http://www.w3.org/2000/svg">
<path fill-rule="evenodd" clip-rule="evenodd" d="M18.8535,1.85356l-11.29292,11.29294c-0.58579,0.5857 -1.53554,0.5857 -2.12132,0l-5.2929,-5.29294l0.70711,-0.70711l5.29289,5.29285c0.19527,0.1953 0.51185,0.1953 0.70711,0l11.29293,-11.29285zM13,3.50001v2.08572l-1,1v-3.08572c0,-0.27615 -0.2239,-0.5 -0.5,-0.5h-9.00002c-0.27615,0 -0.5,0.22386 -0.5,0.5v4.08584l-0.79296,-0.79295l-0.20704,-0.20705v-3.08584c0,-0.82843 0.67157,-1.5 1.5,-1.5h9.00002c0.8284,0 1.5,0.67157 1.5,1.5zM12,12.5v-3.08584l1,-1v4.08584c0,0.8284 -0.6716,1.5 -1.5,1.5h-4.08587l1,-1h3.08587c0.2761,0 0.5,-0.2239 0.5,-0.5zM2.49998,13h2.08572l1,1h-3.08572c-0.82843,0 -1.5,-0.6716 -1.5,-1.5v-3.08572l1,1.00002v2.0857c0,0.2761 0.22385,0.5 0.5,0.5z" fill="black"/>
</svg>
