<svg width="19" height="16" viewBox="0 0 19 16" fill="none" xmlns="http://www.w3.org/2000/svg">
<path fill-rule="evenodd" clip-rule="evenodd" d="M18.1464 1.14645L6.49992 12.7929L0.85347 7.14645L0.146362 7.85356L6.14636 13.8536L6.49992 14.2071L6.85347 13.8536L18.8535 1.85356L18.1464 1.14645ZM13 2.50001V5.58573L12 6.58573V3.00001H1.99998V7.58585L1.20702 6.7929L0.999977 6.58585V2.50001V2.00001H1.49998H12.5H13V2.50001ZM12 13H8.41413L7.41413 14H12.5H13V13.5V8.41416L12 9.41416V13ZM1.99998 13V10.4143L0.999977 9.41428V13.5V14H1.49998H5.5857L4.5857 13H1.99998Z" fill="black"/>
</svg>
