<svg width="14" height="16" viewBox="0 0 14 16" fill="none" xmlns="http://www.w3.org/2000/svg">
<path fill-rule="evenodd" clip-rule="evenodd" d="M5.65749,3.70353c-0.64171,0.20028 -1.22226,0.54071 -1.70562,0.98602c-0.1239,0.11415 -0.29695,0.15823 -0.46035,0.11727l-0.81667,-0.20471c-0.3208,0.40773 -0.58504,0.86169 -0.7811,1.35007l0.58576,0.60505c0.11705,0.1209 0.16543,0.29257 0.12874,0.4568c-0.07079,0.31685 -0.10824,0.64674 -0.10824,0.98597c0,0.33923 0.03745,0.66912 0.10824,0.98597c0.03669,0.16423 -0.01169,0.3359 -0.12874,0.4568l-0.58576,0.60503c0.19606,0.4884 0.4603,0.9424 0.7811,1.3501l0.81666,-0.2047c0.16341,-0.041 0.33646,0.0031 0.46036,0.1172c0.48336,0.4454 1.06391,0.7858 1.70562,0.9861c0.16085,0.0502 0.28559,0.178 0.33184,0.34l0.23077,0.8087c0.25456,0.0361 0.51493,0.0548 0.77992,0.0548c0.265,0 0.52537,-0.0187 0.77992,-0.0548l0.23078,-0.8087c0.04624,-0.162 0.17098,-0.2898 0.33183,-0.34c0.64171,-0.2003 1.22226,-0.5407 1.70565,-0.9861c0.1239,-0.1141 0.2969,-0.1582 0.4603,-0.1172l0.8167,0.2047c0.3208,-0.4077 0.585,-0.8617 0.7811,-1.3501l-0.5858,-0.60504c-0.117,-0.12091 -0.1654,-0.29258 -0.1287,-0.4568c0.0708,-0.31685 0.1082,-0.64674 0.1082,-0.98596c0,-0.33922 -0.0374,-0.66911 -0.1082,-0.98596c-0.0367,-0.16422 0.0117,-0.33589 0.1287,-0.4568l0.5858,-0.60506c-0.1961,-0.48838 -0.4603,-0.94234 -0.7811,-1.35007l-0.8167,0.20471c-0.1634,0.04096 -0.3364,-0.00312 -0.4603,-0.11726c-0.48339,-0.44531 -1.06394,-0.78574 -1.70565,-0.98602c-0.16085,-0.05021 -0.28559,-0.17805 -0.33183,-0.34008l-0.23078,-0.80865c-0.25455,-0.03611 -0.51492,-0.05481 -0.77992,-0.05481c-0.26499,0 -0.52536,0.0187 -0.77992,0.05481l-0.23077,0.80864c-0.04625,0.16203 -0.17099,0.28988 -0.33184,0.34008zM8.27167,1.62443c0.18395,0.0365 0.33202,0.17288 0.38348,0.35322l0.24534,0.85968c0.59497,0.21909 1.14131,0.53788 1.61881,0.93585l0.8675,-0.21745c0.1816,-0.04553 0.3735,0.01426 0.4971,0.15492c0.559,0.63598 0.996,1.3825 1.2739,2.20299c0.0601,0.17744 0.016,0.37359 -0.1143,0.50819l-0.6227,0.64319c0.0521,0.30416 0.0792,0.61658 0.0792,0.93498c0,0.3184 -0.0271,0.63082 -0.0792,0.93498l0.6227,0.64319c0.1303,0.1346 0.1744,0.33075 0.1143,0.50823c-0.2779,0.8204 -0.7149,1.567 -1.2739,2.203c-0.1236,0.1406 -0.3155,0.2004 -0.4971,0.1549l-0.8675,-0.2175c-0.4775,0.398 -1.02384,0.7168 -1.61881,0.9359l-0.24534,0.8596c-0.05146,0.1804 -0.19953,0.3168 -0.38348,0.3533c-0.41164,0.0816 -0.8369,0.1244 -1.27165,0.1244c-0.43474,0 -0.86,-0.0428 -1.27164,-0.1244c-0.18396,-0.0365 -0.33202,-0.1729 -0.38349,-0.3533l-0.24534,-0.8596c-0.59498,-0.2191 -1.14131,-0.5379 -1.61882,-0.9359l-0.86748,0.2175c-0.18164,0.0455 -0.3735,-0.0143 -0.49713,-0.1549c-0.55896,-0.636 -0.99597,-1.3826 -1.27388,-2.203c-0.0601,-0.17748 -0.01597,-0.37363 0.11434,-0.50823l0.62268,-0.64317c-0.05213,-0.30417 -0.07924,-0.6166 -0.07924,-0.935c0,-0.3184 0.02711,-0.63083 0.07924,-0.935l-0.62268,-0.64317c-0.13031,-0.1346 -0.17444,-0.33075 -0.11434,-0.50819c0.27791,-0.82049 0.71492,-1.56701 1.27388,-2.20299c0.12363,-0.14066 0.31549,-0.20045 0.49713,-0.15492l0.86748,0.21745c0.47751,-0.39798 1.02385,-0.71677 1.61882,-0.93585l0.24534,-0.85968c0.05147,-0.18034 0.19953,-0.31672 0.38349,-0.35322c0.41164,-0.08168 0.8369,-0.12443 1.27164,-0.12443c0.43475,0 0.86001,0.04275 1.27165,0.12443zM7.00001,7c-0.55228,0 -1,0.44772 -1,1c0,0.55228 0.44772,1 1,1c0.55229,0 1,-0.44772 1,-1c0,-0.55228 -0.44771,-1 -1,-1zM9.00001,8c0,1.10457 -0.89543,2 -2,2c-1.10457,0 -2,-0.89543 -2,-2c0,-1.10457 0.89543,-2 2,-2c1.10457,0 2,0.89543 2,2z" fill="black"/>
</svg>
