<svg width="11" height="16" viewBox="0 0 11 16" fill="none" xmlns="http://www.w3.org/2000/svg">
<path fill-rule="evenodd" clip-rule="evenodd" d="M5.24275,1.4142c1.17157,-1.17157 3.07107,-1.17157 4.24264,0c1.17161,1.17157 1.17161,3.07107 0,4.24264l-0.74045,0.74046c-0.03805,-0.0423 -0.07743,-0.08382 -0.11813,-0.12452c-0.20258,-0.20258 -0.42557,-0.37232 -0.66234,-0.50923l0.81382,-0.81381c0.78104,-0.78105 0.78104,-2.04738 0,-2.82843c-0.78105,-0.78105 -2.04738,-0.78105 -2.82843,0l-2.57025,2.57025l-0.25818,0.25818c-0.69127,0.69126 -0.77073,1.76266 -0.23838,2.54132c0.06914,0.10113 0.1486,0.19732 0.23838,0.28711c0.26593,0.26593 0.58812,0.44131 0.92826,0.52615c0.6537,0.16306 1.37371,-0.00832 1.88806,-0.51415l0.01211,-0.01201l0.10931,-0.10931l0.84939,-0.84939c0.2664,0.08428 0.51707,0.23204 0.7283,0.44327c0.04092,0.04092 0.07946,0.08332 0.11562,0.12703l-1.02342,1.02341l-0.0721,0.0721c-0.9161,0.91611 -2.27729,1.11587 -3.3875,0.59928c-0.30959,-0.14405 -0.59967,-0.34381 -0.85514,-0.59928c-0.08896,-0.08896 -0.17117,-0.18213 -0.24663,-0.27885c-0.80341,-1.02988 -0.84089,-2.46338 -0.11245,-3.53092c0.10406,-0.15251 0.22376,-0.29755 0.35908,-0.43287l0.2954,-0.29539zM1.41432,9.24263l0.70505,-0.70505c0.03809,0.04226 0.07748,0.08377 0.11818,0.12447c0.20244,0.20244 0.42495,0.37259 0.66111,0.51045l-0.77723,0.77724c-0.78105,0.78106 -0.78105,2.04736 0,2.82846c0.78105,0.781 2.04738,0.781 2.82843,0l2.82843,-2.82846c0.10559,-0.1056 0.19692,-0.22007 0.27396,-0.34102l-0.00002,-0.00001c0.49279,-0.77359 0.40146,-1.81196 -0.27398,-2.4874c-0.33983,-0.33984 -0.77154,-0.53181 -1.21516,-0.57592c-0.08621,-0.00857 -0.17287,-0.01156 -0.25939,-0.00896c-0.49154,0.01475 -0.97867,0.20971 -1.35384,0.58488l-0.9187,0.9187c-0.26827,-0.08049 -0.52103,-0.2267 -0.73295,-0.43862c-0.04094,-0.04094 -0.07942,-0.0834 -0.11545,-0.1272l0.78381,-0.78381l-0.00002,-0.00001l0.27617,-0.27617c0.4982,-0.4982 1.12803,-0.78454 1.77754,-0.85903c0.15966,-0.01831 0.32052,-0.02382 0.4809,-0.01653c0.36945,0.01679 0.73638,0.10152 1.08048,0.25419l-0.00001,0.00001c0.32784,0.14545 0.63494,0.35257 0.90373,0.62136c0.10118,0.10118 0.19362,0.2078 0.27733,0.3189l0.00002,-0.00002c0.88552,1.17534 0.79308,2.85337 -0.27732,3.92372l-2.82843,2.8285c-1.17157,1.1715 -3.07106,1.1715 -4.24264,0c-1.17157,-1.1716 -1.17157,-3.0711 0,-4.24267z" fill="black"/>
</svg>
