<svg width="14" height="16" viewBox="0 0 14 16" fill="none" xmlns="http://www.w3.org/2000/svg">
<path fill-rule="evenodd" clip-rule="evenodd" d="M3.3536 1.14646L3.70715 0.792908L4.06071 1.14646L13.0607 10.1465L13.2072 10.2929V10.5V13.5V14H12.7072H9.70715H9.50005L9.3536 13.8536L0.3536 4.85357L4.673e-05 4.50001L0.3536 4.14646L3.3536 1.14646ZM12.2072 13V10.7071L10.5607 12.3536L9.8536 11.6464L11.5 10L7.20715 5.70711L5.56071 7.35355L4.8536 6.64645L6.50004 5.00001L5.70715 4.20711L4.06071 5.85355L3.3536 5.14645L5.00004 3.50001L3.70715 2.20712L1.41426 4.50001L9.91426 13H12.2072Z" fill="black"/>
</svg>
