<svg width="14" height="16" viewBox="0 0 14 16" fill="none" xmlns="http://www.w3.org/2000/svg">
<path fill-rule="evenodd" clip-rule="evenodd" d="M9.85355 1.14646L9.5 0.792908L9.14645 1.14646L0.146447 10.1465L0 10.2929V10.5V13.5V14H0.5H3.5H3.70711L3.85355 13.8536L12.8536 4.85357L13.2071 4.50001L12.8536 4.14646L9.85355 1.14646ZM1 13V10.7071L2.64645 12.3536L3.35355 11.6464L1.70711 10L6.00001 5.70711L7.64645 7.35355L8.35355 6.64645L6.70711 5.00001L7.50001 4.20711L9.14645 5.85355L9.85355 5.14645L8.20711 3.50001L9.5 2.20712L11.7929 4.50001L3.29289 13H1Z" fill="black"/>
</svg>
