<svg width="17" height="16" viewBox="0 0 17 16" fill="none" xmlns="http://www.w3.org/2000/svg">
<path fill-rule="evenodd" clip-rule="evenodd" d="M4,3c-1.65685,0 -3,1.34315 -3,3c0,1.65685 1.34315,3 3,3v1c-2.20914,0 -4,-1.79086 -4,-4c0,-2.20914 1.79086,-4 4,-4c2.20914,0 4,1.79086 4,4v4.5c0,1.933 -1.567,3.5 -3.5,3.5h-0.5h-3v-1h3h0.5c1.38071,0 2.5,-1.1193 2.5,-2.5v-4.5c0,-1.65685 -1.34315,-3 -3,-3z" fill="black"/>
<path fill-rule="evenodd" clip-rule="evenodd" d="M13,3c-1.6569,0 -3,1.34315 -3,3c0,1.65685 1.3431,3 3,3v1c-2.2091,0 -4,-1.79086 -4,-4c0,-2.20914 1.7909,-4 4,-4c2.2091,0 4,1.79086 4,4v4.5c0,1.933 -1.567,3.5 -3.5,3.5h-0.5h-3v-1h3h0.5c1.3807,0 2.5,-1.1193 2.5,-2.5v-4.5c0,-1.65685 -1.3431,-3 -3,-3z" fill="black"/>
</svg>
