<svg width="15" height="16" viewBox="0 0 15 16" fill="none" xmlns="http://www.w3.org/2000/svg">
<path fill-rule="evenodd" clip-rule="evenodd" d="M13.0247,8.00398c0,-3.32054 -2.6918,-6.01237 -6.01233,-6.01237c-3.32054,0 -6.01237,2.69183 -6.01237,6.01237c0,3.32052 2.69183,6.01232 6.01237,6.01232c3.32053,0 6.01233,-2.6918 6.01233,-6.01232zM7.01237,0.99161c3.87283,0 7.01233,3.13954 7.01233,7.01237c0,3.87282 -3.1395,7.01232 -7.01233,7.01232c-3.87283,0 -7.01237,-3.1395 -7.01237,-7.01232c0,-3.87283 3.13954,-7.01237 7.01237,-7.01237zM6.89323,6.11561l0.3254,-0.37963l0.75925,0.65079l-0.32539,0.37963l-1.28406,1.49807l1.28406,1.49807l0.32539,0.37966l-0.75925,0.6508l-0.3254,-0.3797l-1.56297,-1.82343l-0.27891,-0.3254l0.27891,-0.3254z" fill="black"/>
</svg>
