<svg width="12" height="16" viewBox="0 0 12 16" fill="none" xmlns="http://www.w3.org/2000/svg">
<path fill-rule="evenodd" clip-rule="evenodd" d="M10.5,2c0.8284,0 1.5,0.67157 1.5,1.5v5.5c0,0.82843 -0.6716,1.5 -1.5,1.5h-1.5v-1h1.5c0.2761,0 0.5,-0.22386 0.5,-0.5v-5.5c0,-0.27614 -0.2239,-0.5 -0.5,-0.5h-5.5c-0.27614,0 -0.5,0.22386 -0.5,0.5v1.5h-1v-1.5c0,-0.82843 0.67157,-1.5 1.5,-1.5zM7,5.5c0.82843,0 1.5,0.67157 1.5,1.5v5.5c0,0.8284 -0.67157,1.5 -1.5,1.5h-5.5c-0.82843,0 -1.5,-0.6716 -1.5,-1.5v-5.5c0,-0.82843 0.67157,-1.5 1.5,-1.5zM1,12.5c0,0.2761 0.22386,0.5 0.5,0.5h5.5c0.27614,0 0.5,-0.2239 0.5,-0.5v-5.5c0,-0.27614 -0.22386,-0.5 -0.5,-0.5h-5.5c-0.27614,0 -0.5,0.22386 -0.5,0.5z" fill="black"/>
</svg>
