<svg width="15" height="16" viewBox="0 0 15 16" fill="none" xmlns="http://www.w3.org/2000/svg">
<path fill-rule="evenodd" clip-rule="evenodd" d="M1 8.00398C1 4.68344 3.69183 1.99161 7.01237 1.99161C10.3329 1.99161 13.0247 4.68344 13.0247 8.00398C13.0247 11.3245 10.3329 14.0163 7.01237 14.0163C3.69183 14.0163 1 11.3245 1 8.00398ZM7.01237 0.991608C3.13954 0.991608 0 4.13115 0 8.00398C0 11.8768 3.13954 15.0163 7.01237 15.0163C10.8852 15.0163 14.0247 11.8768 14.0247 8.00398C14.0247 4.13115 10.8852 0.991608 7.01237 0.991608ZM7.1315 6.11561L6.80611 5.73598L6.04685 6.38677L6.37225 6.7664L7.6563 8.26447L6.37225 9.76254L6.04685 10.1422L6.80611 10.793L7.1315 10.4133L8.69447 8.58987L8.97338 8.26447L8.69447 7.93907L7.1315 6.11561Z" fill="black"/>
</svg>
