<svg width="14" height="16" viewBox="0 0 14 16" fill="none" xmlns="http://www.w3.org/2000/svg">
<path fill-rule="evenodd" clip-rule="evenodd" d="M8.66719,6.00163h3.83281c0.2144,0 0.4049,0.13669 0.4736,0.33979c0.0687,0.20309 0.0003,0.42738 -0.1701,0.55754l-3.12201,2.38502l1.19541,3.86842c0.0642,0.2078 -0.0133,0.4333 -0.1917,0.5577c-0.1783,0.1244 -0.4167,0.1193 -0.5895,-0.0128l-3.0957,-2.3648l-3.09566,2.3648c-0.17283,0.1321 -0.4112,0.1372 -0.58958,0.0128c-0.17839,-0.1244 -0.25587,-0.3499 -0.19166,-0.5577l1.1954,-3.86842l-3.12203,-2.38502c-0.17038,-0.13016 -0.23881,-0.35445 -0.17011,-0.55754c0.0687,-0.2031 0.25924,-0.33979 0.47364,-0.33979h3.8328l1.18949,-3.84925c0.06474,-0.2095 0.25843,-0.35238 0.47771,-0.35238c0.21928,0 0.41297,0.14288 0.47771,0.35238zM7,10.2033c0.10696,0 0.21393,0.0342 0.30353,0.1026l2.15609,1.6471l-0.83652,-2.707c-0.06187,-0.2002 0.00767,-0.41775 0.17418,-0.54495l2.22462,-1.69942h-2.72353c-0.21928,0 -0.41297,-0.14288 -0.47771,-0.35238l-0.82066,-2.65571z" fill="black"/>
</svg>
