<svg width="16" height="16" viewBox="0 0 16 16" fill="none" xmlns="http://www.w3.org/2000/svg">
<path fill-rule="evenodd" clip-rule="evenodd" d="M8.00005,2.27777c-1.82671,0 -3.16727,0.80183 -4.0312,1.65093c-0.19695,0.19356 -0.51352,0.19082 -0.70708,-0.00612c-0.19357,-0.19695 -0.19083,-0.51352 0.00612,-0.70708c1.00768,-0.99039 2.58825,-1.93773 4.73216,-1.93773c1.94368,0 3.66795,0.64737 4.90035,1.65451c1.2286,1.00405 1.9965,2.39455 1.9325,3.86721c-0.062,1.42523 -0.6624,2.37762 -1.4906,2.95734c-0.8048,0.56337 -1.7774,0.74317 -2.5645,0.74317c-1.37996,0 -2.04884,-0.81661 -2.19914,-1.36865c-0.03945,-0.14488 -0.01169,-0.29982 0.07559,-0.422c0.18325,-0.25651 0.29025,-0.53054 0.29025,-0.82047c0,-0.52377 -0.33352,-1.1718 -0.99558,-1.70894c-0.65035,-0.52764 -1.56778,-0.90217 -2.61553,-0.90217c-0.8077,0 -1.57432,0.1117 -2.12939,0.47419c-0.51324,0.33518 -0.92617,0.93894 -0.92617,2.13692c0,0.01878 -0.00103,0.03732 -0.00305,0.05556c0.00202,0.01824 0.00305,0.03678 0.00305,0.05556c0,2.4679 1.51564,4.2435 2.96556,5.0515c0.24122,0.1344 0.32779,0.4389 0.19337,0.6801c-0.13442,0.2412 -0.43893,0.3278 -0.68015,0.1934c-1.69615,-0.9452 -3.47878,-3.0202 -3.47878,-5.925c0,-0.01878 0.00104,-0.03732 0.00305,-0.05556c-0.00201,-0.01824 -0.00305,-0.03678 -0.00305,-0.05556c0,-1.46868 0.53152,-2.42048 1.37939,-2.97419c0.80604,-0.5264 1.8172,-0.63692 2.67617,-0.63692c1.28558,0 2.4237,0.45881 3.24557,1.12561c0.81017,0.6573 1.36554,1.56483 1.36554,2.4855c0,0.43142 -0.12679,0.81599 -0.31278,1.14523c0.14108,0.19314 0.46968,0.46588 1.14608,0.46588c0.6574,0 1.407,-0.15355 1.9911,-0.56239c0.5607,-0.3925 1.0158,-1.05123 1.065,-2.18155c0.047,-1.08289 -0.5175,-2.1924 -1.5663,-3.04945c-1.045,-0.85398 -2.54287,-1.42883 -4.26755,-1.42883zM7.4415,6.28394c0.12961,0.24384 0.03701,0.54657 -0.20682,0.67618c-0.78731,0.41849 -1.73468,1.41211 -1.73468,3.26208c0,0.9991 0.42915,1.7895 0.98929,2.3853c0.53511,0.5692 1.17356,0.9416 1.60982,1.117c1.16842,0.0185 2.20489,-0.4 3.04109,-0.955c0.2172,-0.1442 0.4192,-0.2964 0.6045,-0.4506c-0.326,0.0435 -0.6866,0.07 -1.078,0.07c-0.85739,0 -1.87993,-0.2521 -2.77072,-0.7725c-0.8949,-0.5228 -1.6907,-1.338 -2.01778,-2.47854c-0.07612,-0.26545 0.07736,-0.54234 0.3428,-0.61846c0.26545,-0.07612 0.54234,0.07736 0.61846,0.34281c0.23896,0.8333 0.82798,1.46259 1.56094,1.89069c0.73708,0.4306 1.58544,0.636 2.2663,0.636c1.3493,0 2.2008,-0.354 2.4016,-0.4796c0.1998,-0.1248 0.4596,-0.0933 0.6237,0.0757c0.1642,0.169 0.188,0.4297 0.0574,0.6257c-0.3688,0.5531 -1.0822,1.3456 -2.0563,1.992c-0.9775,0.6487 -2.24522,1.1681 -3.70976,1.1193c-0.05365,-0.0018 -0.10666,-0.0122 -0.157,-0.0309c-0.56437,-0.209 -1.3821,-0.6715 -2.06563,-1.3986c-0.68986,-0.7338 -1.26071,-1.7582 -1.26071,-3.0703c0,-2.25277 1.18166,-3.56908 2.26532,-4.14509c0.24384,-0.12961 0.54658,-0.03701 0.67618,0.20683z" fill="black"/>
</svg>
