<svg width="16" height="16" viewBox="0 0 16 16" fill="none" xmlns="http://www.w3.org/2000/svg">
<path fill-rule="evenodd" clip-rule="evenodd" d="M2.71252,6.93594l2.60023,1.50125c-0.02298,-0.14234 -0.03492,-0.28837 -0.03492,-0.4372c0,-1.50344 1.21878,-2.72222 2.72222,-2.72222h5.03445c-0.9681,-1.78668 -2.8596,-3 -5.03445,-3c-2.77503,0 -5.0887,1.97537 -5.61156,4.59668c0.10802,-0.01624 0.22208,0.00263 0.32403,0.06149zM2.28,7.84093c-0.00144,0.05284 -0.00217,0.10587 -0.00217,0.15906c0,2.77501 1.97531,5.08861 4.59656,5.61151c-0.01625,-0.108 0.00263,-0.2221 0.06149,-0.324l1.5012,-2.6002c-0.14229,0.023 -0.28826,0.0349 -0.43703,0.0349c-0.51183,0 -0.99066,-0.1412 -1.39965,-0.3869zM7.84084,13.72c0.05289,0.0015 0.10597,0.0022 0.15921,0.0022c3.16035,0 5.72225,-2.5619 5.72225,-5.72221c0,-0.64047 -0.1052,-1.25637 -0.2994,-1.83135c-0.0855,0.0683 -0.1939,0.10913 -0.3118,0.10913h-3.0028c0.3838,0.46919 0.614,1.06882 0.614,1.72222c0,0.51438 -0.1427,0.99544 -0.3906,1.40576zM14.7223,7.99999c0,3.71261 -3.0097,6.72221 -6.72225,6.72221c-3.71258,0 -6.72222,-3.0096 -6.72222,-6.72221c0,-3.71258 3.00964,-6.72222 6.72222,-6.72222c3.71255,0 6.72225,3.00964 6.72225,6.72222zM8.00005,6.27777c-0.95115,0 -1.72222,0.77107 -1.72222,1.72222c0,0.62773 0.33584,1.17701 0.83763,1.47799l0.02342,0.01352l0.0121,0.00721c0.25057,0.14227 0.54034,0.22351 0.84907,0.22351c0.6252,0 1.17258,-0.33314 1.47434,-0.83157l0.01705,-0.02954l0.00899,-0.01497c0.14124,-0.24991 0.22185,-0.53861 0.22185,-0.84615c0,-0.95115 -0.77107,-1.72222 -1.72223,-1.72222z" fill="black"/>
</svg>
