<svg width="16" height="16" viewBox="0 0 16 16" fill="none" xmlns="http://www.w3.org/2000/svg">
<path fill-rule="evenodd" clip-rule="evenodd" d="M8.00005,13.7222c3.16035,0 5.72225,-2.5619 5.72225,-5.72221c0,-3.16029 -2.5619,-5.72222 -5.72225,-5.72222c-3.16029,0 -5.72222,2.56193 -5.72222,5.72222c0,3.16031 2.56193,5.72221 5.72222,5.72221zM14.7223,7.99999c0,3.71261 -3.0097,6.72221 -6.72225,6.72221c-3.71258,0 -6.72222,-3.0096 -6.72222,-6.72221c0,-3.71258 3.00964,-6.72222 6.72222,-6.72222c3.71255,0 6.72225,3.00964 6.72225,6.72222zM9.12307,8.98445c-0.03661,0.05493 -0.08375,0.10206 -0.13867,0.13868l-4.24264,2.82847c-0.19831,0.1322 -0.46237,0.106 -0.63091,-0.0625c-0.16853,-0.1685 -0.19467,-0.4326 -0.06247,-0.6309l2.82843,-4.24266c0.03662,-0.05493 0.08375,-0.10206 0.13868,-0.13868l4.24261,-2.82842c0.1983,-0.13221 0.4624,-0.10606 0.6309,0.06247c0.1686,0.16853 0.1947,0.43259 0.0625,0.6309zM8.34649,8.34655l1.38621,-2.07931l-2.07931,1.3862l-1.38621,2.07931z" fill="black"/>
</svg>
