<svg width="16" height="16" viewBox="0 0 16 16" fill="none" xmlns="http://www.w3.org/2000/svg">
<path fill-rule="evenodd" clip-rule="evenodd" d="M8.00005,13.7222c2.48665,0 4.60405,-1.5864 5.39285,-3.80386l0.9422,0.33516c-0.9262,2.6035 -3.4122,4.4687 -6.33505,4.4687c-3.71258,0 -6.72222,-3.0096 -6.72222,-6.72221c0,-0.18155 0.00721,-0.36151 0.02137,-0.53962c0.27515,-3.46052 3.16987,-6.1826 6.70085,-6.1826c3.53095,0 6.42575,2.72208 6.70085,6.1826c0.0111,0.13906 -0.0365,0.27641 -0.1311,0.37888c-0.0947,0.10248 -0.2278,0.16075 -0.3673,0.16075h-11.92467c0.00001,3.1603 2.56193,5.7222 5.72222,5.7222zM8.00005,2.27777c-2.8191,0 -5.16243,2.03891 -5.63521,4.72223h11.27046c-0.4728,-2.68332 -2.8161,-4.72223 -5.63525,-4.72223z" fill="black"/>
</svg>
