<svg width="16" height="16" viewBox="0 0 16 16" fill="none" xmlns="http://www.w3.org/2000/svg">
<path fill-rule="evenodd" clip-rule="evenodd" d="M9.87768,1.6035c0.15052,0.04333 0.27202,0.15467 0.32832,0.30083c0.1795,0.46636 0.4197,0.90289 0.711,1.29991c0.1633,0.22265 0.1152,0.53556 -0.1074,0.69891c-0.2227,0.16334 -0.5356,0.11527 -0.6989,-0.10739c-0.20676,-0.2818 -0.39175,-0.58067 -0.55249,-0.89414c-0.49991,0.50152 -0.87898,1.12289 -1.09044,1.81649c-0.08053,0.26414 -0.35994,0.41299 -0.62408,0.33246c-0.26414,-0.08053 -0.41298,-0.35993 -0.33246,-0.62407c0.3381,-1.10899 1.02348,-2.06516 1.92846,-2.74275c0.12537,-0.09387 0.28749,-0.12358 0.43799,-0.08025zM8.54804,5.65863c0.21656,-0.0529 0.44245,-0.08084 0.6742,-0.08084c0.27614,0 0.5,0.22386 0.5,0.5l-0.00001,0.00248c0.73847,0.51126 1.22227,1.36423 1.22227,2.33086c0,1.3359 -0.923,2.43937 -2.15918,2.74127c-0.55279,0.135 -1.29584,0.0947 -1.99286,-0.1738c-0.70787,-0.2728 -1.40403,-0.7957 -1.80198,-1.65794c-0.11572,-0.25073 -0.00628,-0.54779 0.24445,-0.66351c0.25073,-0.11572 0.54779,-0.00628 0.66351,0.24445c0.26871,0.5822 0.73922,0.94564 1.25357,1.1438c0.52521,0.2024 1.05993,0.2177 1.39603,0.1356c0.80468,-0.19658 1.39642,-0.91133 1.39642,-1.76987c0,-0.86144 -0.59461,-1.58523 -1.39641,-1.78106c-0.22386,-0.05467 -0.38137,-0.25527 -0.38137,-0.48571c0,-0.23045 0.15749,-0.43105 0.38136,-0.48573zM5,4.16652c0.06035,-0.06095 0.12556,-0.12085 0.19554,-0.1782c0.31683,-0.2597 0.75851,-0.48831 1.30446,-0.48831c0.23968,0 0.44565,0.17009 0.49098,0.40545c0.04398,0.22835 -0.07527,0.45582 -0.28567,0.55046l-0.00609,0.00387c-0.01288,0.00859 -0.03771,0.02744 -0.06511,0.06032c-0.04816,0.05779 -0.13411,0.19377 -0.13411,0.4799c0,0.097 0.06688,0.27387 0.29188,0.52209c0.18546,0.2046 0.16994,0.5208 -0.03466,0.70626c-0.2046,0.18546 -0.5208,0.16994 -0.70626,-0.03466c-0.25168,-0.27766 -0.5032,-0.64659 -0.54493,-1.07124c-0.02482,0.03813 -0.04452,0.07256 -0.05882,0.10116c-0.08469,0.16939 -0.25782,0.27639 -0.44721,0.27639h-0.5c-0.27614,0 -0.5,-0.22385 -0.5,-0.5v-0.0006c-0.62821,0.83598 -1,1.87476 -1,3.0006c0,2.76139 2.23858,4.99999 5,4.99999c2.7614,0 5,-2.2386 5,-4.99999c0,-1.52004 -0.6777,-2.88126 -1.7491,-3.79906c-0.2098,-0.17964 -0.2341,-0.49528 -0.0545,-0.705c0.1797,-0.20972 0.4953,-0.23411 0.705,-0.05446c1.2838,1.09967 2.0986,2.73421 2.0986,4.55852c0,3.31369 -2.6863,5.99999 -6,5.99999c-3.31371,0 -6,-2.6863 -6,-5.99999c0,-1.86338 0.85003,-3.52865 2.18161,-4.62836c0.14928,-0.12328 0.35632,-0.14931 0.53147,-0.0668c0.17515,0.08251 0.28692,0.25872 0.28692,0.45233z" fill="black"/>
</svg>
