<svg width="12" height="16" viewBox="0 0 12 16" fill="none" xmlns="http://www.w3.org/2000/svg">
<path fill-rule="evenodd" clip-rule="evenodd" d="M0 4V5H3C6.31371 5 9 7.68629 9 11V14H10V11C10 7.13401 6.86599 4 3 4H0ZM11 14H12V11C12 6.02944 7.97056 2 3 2H0V3H3C7.41828 3 11 6.58172 11 11V14ZM8 14V11C8 8.23858 5.76142 6 3 6H0V7H3C5.20914 7 7 8.79086 7 11V14H8ZM3 14C4.65685 14 6 12.6569 6 11C6 9.34315 4.65685 8 3 8C1.34315 8 0 9.34315 0 11C0 12.6569 1.34315 14 3 14ZM3 9C1.89543 9 1 9.89543 1 11C1 12.1046 1.89543 13 3 13C4.10457 13 5 12.1046 5 11C5 9.89543 4.10457 9 3 9Z" fill="black"/>
</svg>
