<svg width="12" height="16" viewBox="0 0 12 16" fill="none" xmlns="http://www.w3.org/2000/svg">
<path fill-rule="evenodd" clip-rule="evenodd" d="M3,4c3.86599,0 7,3.13401 7,7v3h-1v-3c0,-3.31371 -2.68629,-6 -6,-6h-3v-1zM11,11c0,-4.41828 -3.58172,-8 -8,-8h-3v-1h3c4.97056,0 9,4.02944 9,9v3h-1zM7,14v-3c0,-2.20914 -1.79086,-4 -4,-4h-3v-1h3c2.76142,0 5,2.23858 5,5v3zM0,11c0,-1.65685 1.34315,-3 3,-3c1.65685,0 3,1.34315 3,3c0,1.6569 -1.34315,3 -3,3c-1.65685,0 -3,-1.3431 -3,-3zM3,9c-1.10457,0 -2,0.89543 -2,2c0,1.1046 0.89543,2 2,2c1.10457,0 2,-0.8954 2,-2c0,-1.10457 -0.89543,-2 -2,-2z" fill="black"/>
</svg>
