<svg width="12" height="16" viewBox="0 0 12 16" fill="none" xmlns="http://www.w3.org/2000/svg">
<path fill-rule="evenodd" clip-rule="evenodd" d="M12 11.5V7.02206C10.9607 4.82102 9.17898 3.03931 6.97794 2H2.5C7.7467 2 12 6.25329 12 11.5ZM10.7167 13.6845C10.9015 12.9874 11 12.2552 11 11.5C11 6.80558 7.19442 3 2.5 3C1.74479 3 1.01258 3.09849 0.315516 3.28333C0.125736 3.62334 0.0130384 4.01224 0.00106295 4.42639C0.78271 4.15025 1.62381 4 2.5 4C6.64214 4 10 7.35786 10 11.5C10 12.3762 9.84975 13.2173 9.57361 13.9989C9.98776 13.987 10.3767 13.8743 10.7167 13.6845ZM8.50184 14C8.82277 13.2304 9 12.3859 9 11.5C9 7.91015 6.08985 5 2.5 5C1.6141 5 0.769592 5.17723 0 5.49816V6.59971C0.750068 6.21628 1.59978 6 2.5 6C5.53757 6 8 8.46243 8 11.5C8 12.4002 7.78372 13.2499 7.40029 14H8.50184ZM6.24223 14C6.72086 13.285 7 12.4251 7 11.5C7 9.01472 4.98528 7 2.5 7C1.57493 7 0.715049 7.27914 0 7.75777V9.05051C0.635258 8.40223 1.52066 8 2.5 8C4.433 8 6 9.567 6 11.5C6 12.4793 5.59777 13.3647 4.94949 14H6.24223ZM2.5 14C3.88071 14 5 12.8807 5 11.5C5 10.1193 3.88071 9 2.5 9C1.11929 9 0 10.1193 0 11.5C0 12.8807 1.11929 14 2.5 14ZM1 11.5C1 10.6716 1.67157 10 2.5 10C3.32843 10 4 10.6716 4 11.5C4 12.3284 3.32843 13 2.5 13C1.67157 13 1 12.3284 1 11.5Z" fill="black"/>
</svg>
