<svg width="31" height="32" viewBox="0 0 31 32" fill="none" xmlns="http://www.w3.org/2000/svg">
<path fill-rule="evenodd" clip-rule="evenodd" d="M9.99,4h0.5v1h-0.5h-5.99v18h5.5h0.5h0.5c1.9791,0 3.6896,1.1499 4.5,2.8179v-16.3179v-0.5c0,-2.20914 -1.7909,-4 -4,-4h-0.5v-1h0.5c1.9791,0 3.6896,1.14985 4.5,2.81794c0.8104,-1.66809 2.5209,-2.81794 4.5,-2.81794h0.5v1h-0.5c-2.2091,0 -4,1.79086 -4,4v0.5v16.3179c0.8104,-1.668 2.5209,-2.8179 4.5,-2.8179h0.5h6v-18h-5.99h-0.5v-1h0.5h6.49h0.5v0.5v19v0.5h-0.5h-6.5h-0.5c-1.8638,0 -3.4299,1.2748 -3.874,3h13.374v-19h-1.49h-0.5v-1h0.5h1.99h0.5v0.5v20v0.5h-0.5h-14v0.5h-1h-1v-0.5h-14h-0.5v-0.5v-20v-0.5h0.5h1.99h0.5v1h-0.5h-1.49v19h13.374c-0.4441,-1.7252 -2.0102,-3 -3.874,-3h-0.5h-0.5h-6h-0.5v-0.5v-19v-0.5h0.5zM6,15h0.5h5h0.5v1h-0.5h-5h-0.5zM11.5,19h0.5v1h-0.5h-5h-0.5v-1h0.5zM12,8h-0.5h-5h-0.5v-1h0.5h5h0.5zM11.5,11h0.5v1h-0.5h-5h-0.5v-1h0.5zM19,15h0.5h5h0.5v1h-0.5h-5h-0.5zM24.5,19h0.5v1h-0.5h-5h-0.5v-1h0.5zM25,8h-0.5h-5h-0.5v-1h0.5h5h0.5zM24.5,11h0.5v1h-0.5h-5h-0.5v-1h0.5z" fill="black"/>
</svg>
