<svg width="31" height="32" viewBox="0 0 31 32" fill="none" xmlns="http://www.w3.org/2000/svg">
<path fill-rule="evenodd" clip-rule="evenodd" d="M3.5 4H3V4.5V23.5V24H3.5H9.5H10H10.5C12.3638 24 13.9299 25.2748 14.374 27H1V8H2.49H2.99V7H2.49H0.5H0V7.5V27.5V28H0.5H14.5V28.5H15.5H16.5V28H30.5H31V27.5V7.5V7H30.5H28.51H28.01V8H28.51H30V27H16.626C17.0701 25.2748 18.6362 24 20.5 24H21H27.5H28V23.5V4.5V4H27.5H21.01H20.51V5H21.01H27V23H21H20.5C18.5209 23 16.8104 24.1499 16 25.8179V9.5V9C16 6.79086 17.7909 5 20 5H20.5V4H20C18.0209 4 16.3104 5.14985 15.5 6.81794C14.6896 5.14985 12.9791 4 11 4H10.5V5H11C13.2091 5 15 6.79086 15 9V9.5V25.8179C14.1896 24.1499 12.4791 23 10.5 23H10H9.5H4V5H9.99H10.49V4H9.99H3.5ZM6 15H6.5H11.5H12V16H11.5H6.5H6V15ZM6.5 19H6V20H6.5H11.5H12V19H11.5H6.5ZM12 7H11.5H6.5H6V8H6.5H11.5H12V7ZM11.5 11H12V12H11.5H6.5H6V11H6.5H11.5ZM19 15H19.5H24.5H25V16H24.5H19.5H19V15ZM19.5 19H19V20H19.5H24.5H25V19H24.5H19.5ZM25 7H24.5H19.5H19V8H19.5H24.5H25V7ZM24.5 11H25V12H24.5H19.5H19V11H19.5H24.5Z" fill="black"/>
</svg>
