<svg width="21" height="32" viewBox="0 0 21 32" fill="none" xmlns="http://www.w3.org/2000/svg">
<path fill-rule="evenodd" clip-rule="evenodd" d="M1.33868,9.67262c0.00024,2.73968 0.83939,6.14408 2.54143,9.54748c1.70203,3.4033 3.92256,6.1169 6.11444,7.7605c2.21865,1.6637 4.26925,2.1406 5.73755,1.4063l1.7887,-0.8946l-3.131,-6.2607l-1.7888,0.8946c-1.0016,0.5009 -2.1882,0.0939 -3.20693,-0.6701c-1.04551,-0.784 -2.06251,-2.0417 -2.8308,-3.5779c-0.76829,-1.5362 -1.16451,-3.1044 -1.16462,-4.4112c-0.00011,-1.2734 0.38602,-2.4669 1.38759,-2.9678l1.78878,-0.89462l-3.13104,-6.26072l-1.78878,0.89458c-1.46821,0.73426 -2.31676,2.66107 -2.31652,5.43418zM12.1537,21.2318l2.236,-1.1182l0.4472,-0.2237l0.2236,0.4472l3.5784,7.1551l0.2236,0.4472l-0.4472,0.2237l-2.236,1.1182c-1.9894,0.995 -4.471,0.2344 -6.78468,-1.5006c-2.34047,-1.7551 -4.65249,-4.6013 -6.4089,-8.1133c-1.75642,-3.5121 -2.64679,-7.0693 -2.64704,-9.99469c-0.00025,-2.89197 0.87975,-5.3337 2.86923,-6.32866l2.23597,-1.11823l0.4472,-0.22364l0.22364,0.44719l3.57833,7.15511l0.22365,0.44722l-0.4472,0.2236l-2.23597,1.1182c-0.4803,0.2402 -0.83498,0.9189 -0.83488,2.0734c0.0001,1.1211 0.34511,2.5365 1.05901,3.964c0.7139,1.4275 1.63942,2.5526 2.53635,3.2252c0.92369,0.6926 1.67939,0.8159 2.15969,0.5757z" fill="black"/>
</svg>
