<svg width="24" height="32" viewBox="0 0 24 32" fill="none" xmlns="http://www.w3.org/2000/svg">
<path fill-rule="evenodd" clip-rule="evenodd" d="M1 13.5C1 8.80558 4.80558 5 9.5 5C14.1944 5 18 8.80558 18 13.5C18 18.1944 14.1944 22 9.5 22C4.80558 22 1 18.1944 1 13.5ZM9.5 4C4.25329 4 0 8.25329 0 13.5C0 18.7467 4.25329 23 9.5 23C11.9435 23 14.1714 22.0775 15.8547 20.5618L23.1464 27.8536L23.8536 27.1464L16.5618 19.8547C18.0775 18.1714 19 15.9435 19 13.5C19 8.25329 14.7467 4 9.5 4Z" fill="black"/>
</svg>
