<svg width="24" height="32" viewBox="0 0 24 32" fill="none" xmlns="http://www.w3.org/2000/svg">
<path fill-rule="evenodd" clip-rule="evenodd" d="M9.5,22c4.6944,0 8.5,-3.8056 8.5,-8.5c0,-4.69442 -3.8056,-8.5 -8.5,-8.5c-4.69442,0 -8.5,3.80558 -8.5,8.5c0,4.6944 3.80558,8.5 8.5,8.5zM19,13.5c0,2.4435 -0.9225,4.6714 -2.4382,6.3547l7.2918,7.2917l-0.7072,0.7072l-7.2917,-7.2918c-1.6833,1.5157 -3.9112,2.4382 -6.3547,2.4382c-5.24671,0 -9.5,-4.2533 -9.5,-9.5c0,-5.24671 4.25329,-9.5 9.5,-9.5c5.2467,0 9.5,4.25329 9.5,9.5z" fill="black"/>
</svg>
