<svg width="26" height="32" viewBox="0 0 26 32" fill="none" xmlns="http://www.w3.org/2000/svg">
<path fill-rule="evenodd" clip-rule="evenodd" d="M25 16C25 9.37258 19.6274 4 13 4C6.37258 4 1 9.37258 1 16C1 22.6274 6.37258 28 13 28C19.6274 28 25 22.6274 25 16ZM13 3C20.1797 3 26 8.8203 26 16C26 23.1797 20.1797 29 13 29C5.8203 29 0 23.1797 0 16C0 8.8203 5.8203 3 13 3ZM19.25 16.433L20 16L19.25 15.567L8.75 9.50481L8 9.0718V9.93782L8 22.0622V22.9282L8.75 22.4952L19.25 16.433ZM18 16L9 21.1962L9 10.8038L18 16Z" fill="black"/>
</svg>
