<svg width="26" height="32" viewBox="0 0 26 32" fill="none" xmlns="http://www.w3.org/2000/svg">
<path fill-rule="evenodd" clip-rule="evenodd" d="M25,16c0,-6.62742 -5.3726,-12 -12,-12c-6.62742,0 -12,5.37258 -12,12c0,6.6274 5.37258,12 12,12c6.6274,0 12,-5.3726 12,-12zM13,3c7.1797,0 13,5.8203 13,13c0,7.1797 -5.8203,13 -13,13c-7.1797,0 -13,-5.8203 -13,-13c0,-7.1797 5.8203,-13 13,-13zM8.75,22.4952l-0.75,0.433v-0.866v-12.12438v-0.86602l0.75,0.43301l10.5,6.06219l0.75,0.433l-0.75,0.433zM9,10.8038v10.3924l9,-5.1962z" fill="black"/>
</svg>
