<svg width="25" height="32" viewBox="0 0 25 32" fill="none" xmlns="http://www.w3.org/2000/svg">
<path fill-rule="evenodd" clip-rule="evenodd" d="M1 15.4992C1 9.14837 6.14837 4 12.4992 4C14.1725 4 15.7623 4.35739 17.1964 5H12V6H18.9817C19.4262 6.30394 19.8483 6.63827 20.245 7H12V8H21.2169C21.4912 8.31861 21.7484 8.65242 21.9869 9H12V10H22.6007C22.7776 10.3242 22.9393 10.6578 23.0849 11H12V12H23.4563C23.5607 12.3272 23.6509 12.6608 23.7261 13H12V14H23.9016C23.9444 14.3292 23.9734 14.6627 23.9878 15H12V16H23.9877C23.9732 16.3373 23.9443 16.6708 23.9013 17H12V18H23.7257C23.6505 18.3392 23.5603 18.6728 23.4558 19H12V20H23.0842C22.9385 20.3422 22.7768 20.6758 22.5998 21H12V22H21.9858C21.7472 22.3476 21.4899 22.6814 21.2155 23H12V24H20.2432C19.8463 24.3617 19.424 24.6961 18.9793 25H12V26H17.1929C15.7596 26.6416 14.1711 26.9984 12.4992 26.9984C6.14837 26.9984 1 21.85 1 15.4992ZM12.4992 3C5.59608 3 0 8.59608 0 15.4992C0 22.4023 5.59608 27.9984 12.4992 27.9984C19.4023 27.9984 24.9984 22.4023 24.9984 15.4992C24.9984 8.59608 19.4023 3 12.4992 3Z" fill="black"/>
</svg>
