<svg width="25" height="32" viewBox="0 0 25 32" fill="none" xmlns="http://www.w3.org/2000/svg">
<path fill-rule="evenodd" clip-rule="evenodd" d="M12.4992,26.9984c1.6719,0 3.2604,-0.3568 4.6937,-0.9984h-5.1929v-1h6.9793c0.4447,-0.3039 0.867,-0.6383 1.2639,-1h-8.2432v-1h9.2155c0.2744,-0.3186 0.5317,-0.6524 0.7703,-1h-9.9858v-1h10.5998c0.177,-0.3242 0.3387,-0.6578 0.4844,-1h-11.0842v-1h11.4558c0.1045,-0.3272 0.1947,-0.6608 0.2699,-1h-11.7257v-1h11.9013c0.043,-0.3292 0.0719,-0.6627 0.0864,-1h-11.9877v-1h11.9878c-0.0144,-0.3373 -0.0434,-0.6708 -0.0862,-1h-11.9016v-1h11.7261c-0.0752,-0.3392 -0.1654,-0.6728 -0.2698,-1h-11.4563v-1h11.0849c-0.1456,-0.3422 -0.3073,-0.6758 -0.4842,-1h-10.6007v-1h9.9869c-0.2385,-0.34758 -0.4957,-0.68139 -0.77,-1h-9.2169v-1h8.245c-0.3967,-0.36173 -0.8188,-0.69606 -1.2633,-1h-6.9817v-1h5.1964c-1.4341,-0.64261 -3.0239,-1 -4.6972,-1c-6.35083,0 -11.4992,5.14837 -11.4992,11.4992c0,6.3508 5.14837,11.4992 11.4992,11.4992zM24.9984,15.4992c0,6.9031 -5.5961,12.4992 -12.4992,12.4992c-6.90312,0 -12.4992,-5.5961 -12.4992,-12.4992c0,-6.90312 5.59608,-12.4992 12.4992,-12.4992c6.9031,0 12.4992,5.59608 12.4992,12.4992z" fill="black"/>
</svg>
