<svg width="26" height="32" viewBox="0 0 26 32" fill="none" xmlns="http://www.w3.org/2000/svg">
<path fill-rule="evenodd" clip-rule="evenodd" d="M13,28c6.6274,0 12,-5.3726 12,-12c0,-6.62742 -5.3726,-12 -12,-12c-6.62742,0 -12,5.37258 -12,12c0,6.6274 5.37258,12 12,12zM26,16c0,7.1797 -5.8203,13 -13,13c-7.1797,0 -13,-5.8203 -13,-13c0,-7.1797 5.8203,-13 13,-13c7.1797,0 13,5.8203 13,13zM15.8796,16.1746l0.2789,0.3254l-0.2789,0.3254l-3,3.5l-0.3254,0.3796l-0.7592,-0.6508l0.3254,-0.3796l2.7211,-3.1746l-2.7211,-3.1746l-0.3254,-0.3796l0.7592,-0.6508l0.3254,0.3796z" fill="black"/>
</svg>
