<svg width="26" height="32" viewBox="0 0 26 32" fill="none" xmlns="http://www.w3.org/2000/svg">
<path fill-rule="evenodd" clip-rule="evenodd" d="M1 16C1 9.37258 6.37258 4 13 4C19.6274 4 25 9.37258 25 16C25 22.6274 19.6274 28 13 28C6.37258 28 1 22.6274 1 16ZM13 3C5.8203 3 0 8.8203 0 16C0 23.1797 5.8203 29 13 29C20.1797 29 26 23.1797 26 16C26 8.8203 20.1797 3 13 3ZM12.8796 12.6746L12.5542 12.295L11.795 12.9458L12.1204 13.3254L14.8415 16.5L12.1204 19.6746L11.795 20.0542L12.5542 20.705L12.8796 20.3254L15.8796 16.8254L16.1585 16.5L15.8796 16.1746L12.8796 12.6746Z" fill="black"/>
</svg>
