<svg width="17" height="20" viewBox="0 0 17 20" fill="none" xmlns="http://www.w3.org/2000/svg">
<path fill-rule="evenodd" clip-rule="evenodd" d="M0.00369,4.49536c0,-0.27614 0.22386,-0.5 0.5,-0.5h14.99951c0.2762,0 0.5,0.22386 0.5,0.5v11.00074c0,0.2761 -0.2238,0.5 -0.5,0.5h-14.99951c-0.27614,0 -0.5,-0.2239 -0.5,-0.5zM5.88454,10.0014l0.74909,0.6715l-4.82294,4.3232h12.38561l-4.82276,-4.3231l0.74906,-0.6714l4.8806,4.3749v-8.76148l-6.666,5.97528c-0.18993,0.1703 -0.47755,0.1703 -0.66748,0l-6.66603,-5.97528v8.76148zM14.1963,4.99536h-12.38572l6.19288,5.55114z" fill="black"/>
</svg>
