<svg width="19" height="20" viewBox="0 0 19 20" fill="none" xmlns="http://www.w3.org/2000/svg">
<path fill-rule="evenodd" clip-rule="evenodd" d="M2.49999 3H1.99999V3.5V14.5V15H2.49999H6.99999V14H2.99999V4H6.99999V3H2.49999ZM3.17097e-05 4L0 16.5V17H0.500001H7.5V16H1L1.00003 4H3.17097e-05ZM9.00001 5.99467C8.99717 4.88845 8.10847 4 7.02176 4V3C8.05723 3 8.96665 3.53127 9.50002 4.33582C10.0334 3.53127 10.9428 3 11.9783 3V4C10.8916 4 10.0029 4.88845 10 5.99467C10 5.99645 10 5.99822 10 6H10L10 14.777C10.528 14.2945 11.2291 14 12 14V15C10.9116 15 10.0218 15.8913 10.0218 17H10H9.97826H9.02177H9.00001H8.97826C8.97826 15.8913 8.08846 15 7 15V14C7.77094 14 8.472 14.2945 9.00001 14.777L9.00002 6H9.00001C9.00001 5.99822 9.00001 5.99645 9.00001 5.99467ZM3.99999 6H6.99999V5H3.99999V6ZM7 8H4V7H7V8ZM4 12H7V11H4V12ZM7 10H4V9H7V10ZM16.5 3H17V3.5V14.5V15H16.5H12V14H16V4H12V3H16.5ZM18 4H19L19 16.5V17H18.5H11.5V16H18L18 4ZM15 6H12V5H15V6ZM12 8H15V7H12V8ZM15 12H12V11H15V12ZM12 10H15V9H12V10Z" fill="black"/>
</svg>
