<svg width="19" height="20" viewBox="0 0 19 20" fill="none" xmlns="http://www.w3.org/2000/svg">
<path fill-rule="evenodd" clip-rule="evenodd" d="M6.99999,3v1h-4v10h4v1h-4.5h-0.5v-0.5v-11v-0.5h0.5zM1.00003,4l-0.00003,12h6.5v1h-7h-0.5v-0.5l0.00003,-12.5zM9.00001,5.99467c-0.00284,-1.10622 -0.89154,-1.99467 -1.97825,-1.99467v-1c1.03547,0 1.94489,0.53127 2.47826,1.33582c0.53338,-0.80455 1.44278,-1.33582 2.47828,-1.33582v1c-1.0867,0 -1.9754,0.88845 -1.9783,1.99467c0,0.00178 0,0.00355 0,0.00533v0v8.777c0.528,-0.4825 1.2291,-0.777 2,-0.777v1c-1.0884,0 -1.9782,0.8913 -1.9782,2h-0.0218h-0.02174h-0.95649h-0.02176h-0.02175c0,-1.1087 -0.8898,-2 -1.97826,-2v-1c0.77094,0 1.472,0.2945 2.00001,0.777l0.00001,-8.777h-0.00001c0,-0.00178 0,-0.00355 0,-0.00533zM3.99999,5h3v1h-3zM7,8h-3v-1h3zM4,11h3v1h-3zM7,10h-3v-1h3zM16.5,3h0.5v0.5v11v0.5h-0.5h-4.5v-1h4v-10h-4v-1zM18,4h1v12.5v0.5h-0.5h-7v-1h6.5zM15,6h-3v-1h3zM12,7h3v1h-3zM15,12h-3v-1h3zM12,9h3v1h-3z" fill="black"/>
</svg>
