<svg width="16" height="20" viewBox="0 0 16 20" fill="none" xmlns="http://www.w3.org/2000/svg">
<path fill-rule="evenodd" clip-rule="evenodd" d="M9.5,2c0.13261,0 0.25978,0.05268 0.35355,0.14645l0.00027,0.00026l2.99978,2.99974l0.0004,0.0004c0.0902,0.09045 0.146,0.21528 0.146,0.35315v1.5h1.5c0.8284,0 1.5,0.67157 1.5,1.5v5c0,0.8284 -0.6716,1.5 -1.5,1.5h-1.5v2.7c0,0.1657 -0.1343,0.3 -0.3,0.3h-9.4c-0.16569,0 -0.3,-0.1343 -0.3,-0.3v-5.7h-0.5c-0.27614,0 -0.5,-0.2239 -0.5,-0.5c0,-0.2761 0.22386,-0.5 0.5,-0.5h0.8h9.4h0.8c0.2761,0 0.5,0.2239 0.5,0.5c0,0.2761 -0.2239,0.5 -0.5,0.5h-0.5v2h1.5c0.2761,0 0.5,-0.2239 0.5,-0.5v-5c0,-0.27614 -0.2239,-0.5 -0.5,-0.5h-2h-9h-2c-0.27614,0 -0.5,0.22386 -0.5,0.5v5c0,0.2761 0.22386,0.5 0.5,0.5h1.499v1h-1.499c-0.82843,0 -1.5,-0.6716 -1.5,-1.5v-5c0,-0.82843 0.67157,-1.5 1.5,-1.5h1.5v-4.5c0,-0.27614 0.22386,-0.5 0.5,-0.5zM4,17h8v-5h-8zM12,6h-2.5c-0.27614,0 -0.5,-0.22386 -0.5,-0.5v-2.5h-5v4h8zM11.2929,5l-1.2929,-1.29289v1.29289zM13.5,9c0.2761,0 0.5,0.22386 0.5,0.5c0,0.27614 -0.2239,0.5 -0.5,0.5h-1c-0.2761,0 -0.5,-0.22386 -0.5,-0.5c0,-0.27614 0.2239,-0.5 0.5,-0.5zM5,15.5c0,-0.2761 0.22386,-0.5 0.5,-0.5h5c0.2761,0 0.5,0.2239 0.5,0.5c0,0.2761 -0.2239,0.5 -0.5,0.5h-5c-0.27614,0 -0.5,-0.2239 -0.5,-0.5zM10.5,13c0.2761,0 0.5,0.2239 0.5,0.5c0,0.2761 -0.2239,0.5 -0.5,0.5h-5c-0.27614,0 -0.5,-0.2239 -0.5,-0.5c0,-0.2761 0.22386,-0.5 0.5,-0.5z" fill="black"/>
</svg>
