<svg width="13" height="20" viewBox="0 0 13 20" fill="none" xmlns="http://www.w3.org/2000/svg">
<path fill-rule="evenodd" clip-rule="evenodd" d="M5.5,3c-0.27614,0 -0.5,0.22386 -0.5,0.5v2.5h4v-2.5c0,-0.27614 -0.22386,-0.5 -0.5,-0.5zM5.5,2h3c0.82843,0 1.5,0.67157 1.5,1.5v2.5h2.4726c0.2762,0 0.5,0.22386 0.5,0.5v10c0,0.2761 -0.2238,0.5 -0.5,0.5h-10.99997c-0.27615,0 -0.5,-0.2239 -0.5,-0.5v-10c0,-0.27614 0.22385,-0.5 0.5,-0.5h2.52737v-2.5c0,-0.82843 0.67157,-1.5 1.5,-1.5zM11.9726,16v-0.4867h0.886v-0.0007h-0.886v-8.5126h-9.99997v9zM10.5,14.0367c0.2761,0 0.5,0.2238 0.5,0.5c0,0.2761 -0.2239,0.5 -0.5,0.5h-7.00001c-0.27615,0 -0.5,-0.2239 -0.5,-0.5c0,-0.2762 0.22385,-0.5 0.5,-0.5z" fill="black"/>
</svg>
