<svg width="16" height="20" viewBox="0 0 16 20" fill="none" xmlns="http://www.w3.org/2000/svg">
<path fill-rule="evenodd" clip-rule="evenodd" d="M15.0022,10.5011c0,4.1427 -3.3584,7.5011 -7.5011,7.5011c-4.14274,0 -7.5011,-3.3584 -7.5011,-7.5011c0,-4.14274 3.35836,-7.5011 7.5011,-7.5011c4.1427,0 7.5011,3.35836 7.5011,7.5011zM7.5011,17.0022c3.5905,0 6.5011,-2.9106 6.5011,-6.5011c0,-3.59046 -2.9106,-6.5011 -6.5011,-6.5011c-3.59046,0 -6.5011,2.91064 -6.5011,6.5011c0,3.5905 2.91064,6.5011 6.5011,6.5011zM8.0011,9v6h-1v-6zM7,7.48697c0,-0.26894 0.21803,-0.48697 0.48697,-0.48697c0.26895,0 0.48698,0.21803 0.48698,0.48697c0,0.26895 -0.21803,0.48698 -0.48698,0.48698c-0.26894,0 -0.48697,-0.21803 -0.48697,-0.48698z" fill="black"/>
</svg>
