<svg width="61" height="100" viewBox="0 0 61 100" fill="none" xmlns="http://www.w3.org/2000/svg">
<path fill-rule="evenodd" clip-rule="evenodd" d="M13.7462,42.5478c4.1931,-4.3766 10.1317,-7.1303 16.728,-7.1303c6.5962,0 12.5348,2.7537 16.7279,7.1303h-2.0972c-3.8401,-3.5107 -8.9759,-5.6779 -14.6307,-5.6779c-5.6549,0 -10.7907,2.1672 -14.6308,5.6779zM48.3555,72.0063c-4.2127,5.122 -10.6586,8.4111 -17.8811,8.4111c-7.2225,0 -13.6671,-3.2891 -17.8811,-8.4111h1.9651c3.9342,4.2613 9.6022,6.9587 15.916,6.9587c6.3138,0 11.9818,-2.6974 15.916,-6.9587zM9.37076,64.6049h13.09314v-0.6378c0,-1.2053 -0.9702,-2.2235 -2.3064,-2.4208l-0.051,-0.0089l-4.1892,-1.0503l-4.1905,1.0503c-1.3859,0.2062 -2.35604,1.2244 -2.35604,2.4297zM15.9173,59.4561l4.418,1.1079c1.8252,0.2805 3.1471,1.7073 3.1471,3.4031v1.6356h-15.13017v-1.6356c0,-1.7035 1.33363,-3.1367 3.17327,-3.407zM13.6409,53.5881c0,0.2088 0.0823,0.7416 0.149,1.1694c0.0811,0.52 0.1308,0.8479 0.1308,1.0362c0,1.0784 0.8956,1.9558 1.9965,1.9558c1.1009,0 1.9965,-0.8774 1.9965,-1.9558c0,-0.1883 0.0497,-0.5162 0.1308,-1.0362c0.0666,-0.4278 0.149,-0.9606 0.149,-1.1694c0,-0.9414 -1.0211,-1.7073 -2.2763,-1.7073c-1.2552,0 -2.2763,0.7659 -2.2763,1.7073zM12.7947,54.9824l-0.0115,-0.075c-0.0837,-0.5329 -0.1609,-1.0349 -0.1609,-1.3193c0,-1.4921 1.4775,-2.705 3.2949,-2.705c1.8174,0 3.2948,1.2129 3.2948,2.705c0,0.2792 -0.0756,0.7682 -0.1563,1.2902l-0.0045,0.0291l-0.0115,0.0751c-0.0501,0.3254 -0.1075,0.6983 -0.1075,0.8112c0,1.6292 -1.3519,2.9535 -3.015,2.9535c-1.6631,0 -3.0151,-1.3243 -3.0151,-2.9535c0,-0.1129 -0.0573,-0.4859 -0.1074,-0.8113zM10.417,50.9087c0,-0.9414 -1.02111,-1.7073 -2.27629,-1.7073c-1.25518,0 -2.27633,0.7659 -2.27633,1.7073c0,0.2088 0.08237,0.7416 0.14906,1.1694c0.08106,0.52 0.13074,0.8479 0.13074,1.0361c0,1.0785 0.89563,1.9558 1.99653,1.9558c1.1009,0 1.99649,-0.8773 1.99649,-1.9558c0,-0.1882 0.0497,-0.5161 0.1308,-1.0361c0.0667,-0.4278 0.149,-0.9606 0.149,-1.1694zM8.14071,56.0678c-1.66312,0 -3.01505,-1.3244 -3.01505,-2.9536c0,-0.1128 -0.05738,-0.4858 -0.10743,-0.8111l-0.00001,-0.0001l-0.01154,-0.0751l-0.0045,-0.0291c-0.08071,-0.5219 -0.15632,-1.011 -0.15632,-1.2901c0,-1.4922 1.47745,-2.7051 3.29485,-2.7051c1.8174,0 3.29489,1.2129 3.29489,2.7051c0,0.2843 -0.0772,0.7864 -0.1609,1.3192l-0.0115,0.0752c-0.0501,0.3253 -0.1074,0.6983 -0.1074,0.8111c0,1.6292 -1.35198,2.9536 -3.01509,2.9536zM1.59311,61.2887l-0.00523,0.6378l4.84422,-0.0064l0.01046,1.0054l-5.86797,0.0077l0.00523,-1.6586c0,-1.7035 1.32971,-3.0842 3.16803,-3.3558l4.39314,-1.0643l3.39552,0.9106v1.0157l-3.36937,-0.9695l-4.21663,1.0464c-1.38724,0.2062 -2.35739,1.2257 -2.35739,2.431zM59.4651,62.9736l0.0039,-0.0012v-0.1268h-21.9696v0.128h0.0013c0.5021,1.5754 1.5481,1.7522 3.4426,1.9289c3.5158,0.2293 11.562,0.228 15.0922,-0.0012c1.8828,-0.0884 2.9288,-0.3305 3.4296,-1.9277zM40.2896,52.9039c-0.1739,1.7048 -0.1739,4.5943 0,6.3042c0.2275,2.0108 0.9256,2.1556 2.6241,2.3131c2.594,0.1691 8.5404,0.1691 11.1475,-0.0013c1.7155,-0.0794 2.3823,-0.2997 2.6111,-2.317c0.1687,-1.6535 0.1752,-4.575 -0.0863,-6.2785l-0.0026,-0.0205c-0.2288,-2.0147 -0.927,-2.1594 -2.6254,-2.3183c-1.2931,-0.0832 -3.4243,-0.1268 -5.5568,-0.1268c-2.1404,0 -4.2847,0.0436 -5.5908,0.1281c-1.6932,0.1588 -2.2947,0.3164 -2.5208,2.317zM60.5464,62.3332v0.6404c-0.5989,2.3106 -2.0384,2.8396 -4.452,2.9523c-1.8096,0.1178 -4.7083,0.1768 -7.6083,0.1768c-2.9039,0 -5.8091,-0.059 -7.6265,-0.1768c-2.224,-0.2075 -3.7982,-0.5559 -4.4389,-2.9523v-0.128v-1.026h3.9198c-0.5674,-0.4508 -0.9453,-1.2014 -1.093,-2.504c-0.1804,-1.77 -0.1804,-4.753 0,-6.5193c0.3099,-2.7332 1.5781,-3.0547 3.4779,-3.2315c2.7091,-0.178 8.6241,-0.178 11.3175,-0.0012c1.9665,0.1831 3.2701,0.5059 3.5799,3.2174c0.2811,1.8392 0.2654,4.8196 0.0902,6.5295c-0.1425,1.2603 -0.4994,2.0327 -1.0695,2.5091h3.9029zM51.5012,64.5132h-6.0706v-1.0259h6.0706z" fill="#001E4E"/>
</svg>
