<svg width="31" height="101" viewBox="0 0 31 101" fill="none" xmlns="http://www.w3.org/2000/svg">
<path fill-rule="evenodd" clip-rule="evenodd" d="M7.49503,59.2306c0,3.9834 3.22917,7.2126 7.21257,7.2126h1.3194c3.9834,0 7.2126,-3.2292 7.2126,-7.2126v-17.4519c0,-3.9834 -3.2292,-7.2125 -7.2126,-7.2125h-1.3194c-3.9834,0 -7.21257,3.2291 -7.21257,7.2125zM16.027,33.5662c4.5357,0 8.2126,3.6769 8.2126,8.2125v17.4519c0,4.5357 -3.6769,8.2126 -8.2126,8.2126h-1.3194c-4.5357,0 -8.21257,-3.6769 -8.21257,-8.2126v-17.4519c0,-4.5356 3.67687,-8.2125 8.21257,-8.2125zM14.0216,71.8508h2.6661c6.6201,0 12.0346,-5.421 12.0346,-12.0346v-0.4285h1v0.4285c0,7.1656 -5.8619,13.0346 -13.0346,13.0346h-0.8287v5.6592h5.7455c0.2762,0 0.5,0.2239 0.5,0.5c0,0.2762 -0.2238,0.5 -0.5,0.5h-12.4802c-0.27614,0 -0.5,-0.2238 -0.5,-0.5c0,-0.2761 0.22386,-0.5 0.5,-0.5h5.7347v-5.6592h-0.8374c-7.16556,0 -13.0346,-5.8619 -13.0346,-13.0346v-0.4285h1v0.4285c0,6.6201 5.42097,12.0346 12.0346,12.0346z" fill="black"/>
</svg>
