<svg width="47" height="100" viewBox="0 0 47 100" fill="none" xmlns="http://www.w3.org/2000/svg">
<path fill-rule="evenodd" clip-rule="evenodd" d="M23.1101,35.727c-0.375,0.0081 -0.7477,0.0255 -1.1178,0.0521c-0.004,0.0039 -0.008,0.0079 -0.0121,0.0119c-0.1456,0.1442 -0.3584,0.3608 -0.6228,0.6465c-0.5291,0.5716 -1.2644,1.4192 -2.0824,2.5167c-1.3936,1.8698 -3.0226,4.459 -4.2825,7.6393c2.8542,0.8352 5.5691,1.2218 8.1176,1.281zM20.4534,35.9437c-10.71493,1.5264 -18.9534,10.739 -18.9534,21.8758c0,11.2328 8.38098,20.508 19.2308,21.9136c-2.878,-3.624 -4.924,-7.1265 -6.3153,-10.469c-1.3638,0.4253 -2.7586,0.9534 -4.1815,1.5973l-0.4123,-0.911c1.4354,-0.6497 2.8435,-1.1848 4.2212,-1.6179c-1.3574,-3.5384 -1.9865,-6.8901 -2.1034,-10.008h-7.31954v-1h7.29934c-0.0101,-3.4283 0.5907,-6.5581 1.5003,-9.324c0.0849,-0.2583 0.1725,-0.5134 0.2626,-0.7652c-1.4249,-0.4647 -2.8816,-1.0389 -4.36713,-1.7362l0.42493,-0.9052c1.4614,0.686 2.8938,1.2493 4.2941,1.7039c1.3037,-3.3142 2.9961,-6.0051 4.4391,-7.9412c0.7582,-1.0173 1.4488,-1.8279 1.9802,-2.4129zM22.1268,79.8692c0.3259,0.0215 0.6537,0.0358 0.9833,0.0429v-12.1027c-2.4329,0.0563 -5.0174,0.411 -7.73,1.1695c1.4523,3.4597 3.6304,7.104 6.7467,10.8903zM24.1101,79.9116c0.3337,-0.0076 0.6656,-0.0226 0.9955,-0.0448c3.1385,-3.8137 5.3251,-7.4833 6.7771,-10.9652c-2.3495,-0.6463 -4.9533,-1.07 -7.7726,-1.0987zM26.5036,79.7281c5.4121,-0.7109 10.2074,-3.3802 13.6511,-7.273c-1.97,-1.1757 -4.4314,-2.3817 -7.3064,-3.2714c-1.3912,3.3651 -3.4457,6.8931 -6.3447,10.5444zM40.6349,71.8937c3.0615,-3.7018 4.9397,-8.418 5.0552,-13.5692h-10.3992c-0.116,3.0943 -0.7365,6.4189 -2.0727,9.9278c2.9837,0.9311 5.5309,2.1899 7.5567,3.4087zM45.6903,57.3245c-0.1108,-5.0421 -1.9105,-9.6679 -4.8557,-13.3341c-1.9545,1.1798 -4.3992,2.4007 -7.2568,3.3278c0.0797,0.2249 0.1575,0.4523 0.2331,0.6823c0.9096,2.7659 1.5103,5.8957 1.5002,9.324zM40.1825,43.2156c-3.3865,-3.8429 -8.0878,-6.4995 -13.4003,-7.2662c0.5307,0.5846 1.2193,1.3932 1.975,2.4072c1.4551,1.9523 3.1638,4.672 4.4717,8.0243c2.7251,-0.88 5.0659,-2.0374 6.9536,-3.1653zM25.2409,35.7818c-0.3744,-0.0275 -0.7514,-0.0457 -1.1308,-0.0543v12.1535c2.975,-0.0299 5.71,-0.4998 8.1597,-1.2068c-1.2642,-3.2173 -2.909,-5.8344 -4.3144,-7.72c-0.8179,-1.0975 -1.5532,-1.9451 -2.0823,-2.5167c-0.2645,-0.2857 -0.4773,-0.5023 -0.6229,-0.6465c-0.0031,-0.0031 -0.0062,-0.0061 -0.0093,-0.0092zM46.6957,57.8195c0,12.7566 -10.3412,23.0979 -23.0978,23.0979c-12.7566,0 -23.0979,-10.3413 -23.0979,-23.0979c0,-12.7566 10.3413,-23.0978 23.0979,-23.0978c12.7566,0 23.0978,10.3412 23.0978,23.0978zM12.9191,57.3245h10.191v-8.4489c-2.6587,-0.0594 -5.4926,-0.4641 -8.472,-1.3434c-0.0923,0.2567 -0.1819,0.517 -0.2686,0.7807c-0.876,2.6637 -1.4606,5.6879 -1.4504,9.0116zM34.3113,57.3245c0.0103,-3.3237 -0.5744,-6.3479 -1.4504,-9.0116c-0.0776,-0.2362 -0.1576,-0.4696 -0.2397,-0.7002c-2.5508,0.743 -5.4045,1.2384 -8.5111,1.2691v8.4427zM32.2563,67.9681c1.3099,-3.4168 1.9175,-6.6455 2.034,-9.6436h-10.1802v8.4777c2.9594,0.0295 5.6893,0.4806 8.1462,1.1659zM23.1101,66.8084v-8.4839h-10.17c0.1175,3.0207 0.7333,6.2755 2.0638,9.7209c2.8458,-0.8059 5.5566,-1.1802 8.1062,-1.237z" fill="#001E4E"/>
</svg>
