<svg width="61" height="101" viewBox="0 0 61 101" fill="none" xmlns="http://www.w3.org/2000/svg">
<path fill-rule="evenodd" clip-rule="evenodd" d="M55.8663,35.8479h0.0366c0.9117,0 1.6466,0 2.2245,0.0777c0.6001,0.0807 1.1054,0.2533 1.5066,0.6545c0.4013,0.4013 0.5739,0.9066 0.6546,1.5066c0.0777,0.578 0.0777,1.3129 0.0777,2.2247v0.0365v36.0121v0.0365c0,0.9118 0,1.6467 -0.0777,2.2247c-0.0807,0.6 -0.2533,1.1053 -0.6546,1.5066c-0.4012,0.4012 -0.9065,0.5738 -1.5066,0.6545c-0.5779,0.0777 -1.3128,0.0777 -2.2246,0.0777h-0.0365h-50.68283h-0.03654c-0.91175,0 -1.64664,0 -2.22463,-0.0777c-0.60007,-0.0807 -1.10532,-0.2533 -1.50659,-0.6545c-0.40128,-0.4013 -0.57388,-0.9066 -0.65455,-1.5066c-0.07771,-0.578 -0.0777,-1.3129 -0.07768,-2.2246v-0.0366v-36.0121v-0.0366v0c-0.00001,-0.9117 -0.00002,-1.6466 0.07768,-2.2246c0.08068,-0.6 0.25327,-1.1053 0.65456,-1.5066c0.40127,-0.4012 0.90652,-0.5738 1.5066,-0.6545c0.57797,-0.0777 1.31285,-0.0777 2.22457,-0.0777h0.00001h0.03658zM1.75224,38.22c-0.06771,0.5035 -0.06877,1.171 -0.06877,2.1279v6.6942l28.17063,14.0852c0.4222,0.2112 0.9193,0.2112 1.3416,0.0001l28.1706,-14.0853v-6.6942c0,-0.9569 -0.0011,-1.6244 -0.0688,-2.1279c-0.0658,-0.4892 -0.1861,-0.7482 -0.3706,-0.9328c-0.1845,-0.1845 -0.4435,-0.3048 -0.9327,-0.3705c-0.5036,-0.0677 -1.171,-0.0688 -2.1279,-0.0688h-50.68283c-0.95694,0 -1.62435,0.0011 -2.12792,0.0688c-0.48918,0.0657 -0.74823,0.186 -0.93274,0.3705c-0.18451,0.1845 -0.3048,0.4436 -0.37057,0.9328zM1.68347,48.1601v28.1999c0,0.9569 0.00106,1.6244 0.06877,2.1279c0.06577,0.4892 0.18606,0.7483 0.37057,0.9328c0.18451,0.1845 0.44356,0.3048 0.93274,0.3705c0.50357,0.0677 1.17097,0.0688 2.12792,0.0688h50.68283c0.9569,0 1.6243,-0.0011 2.1279,-0.0688c0.4892,-0.0657 0.7482,-0.186 0.9327,-0.3705c0.1845,-0.1845 0.3048,-0.4436 0.3706,-0.9328c0.0677,-0.5035 0.0688,-1.171 0.0688,-2.1279v-28.1999l-27.7234,13.8617c-0.7038,0.3519 -1.5322,0.3519 -2.2361,0z" fill="black"/>
</svg>
