<svg width="67" height="100" viewBox="0 0 67 100" fill="none" xmlns="http://www.w3.org/2000/svg">
<path fill-rule="evenodd" clip-rule="evenodd" d="M63.9483,71.8776h-61.1078l0.00359,0.7796l0.01976,0.1222c1.46051,4.6743 4.52165,5.1881 9.81755,5.6911c4.8127,0.3234 12.7314,0.4815 20.6681,0.4815c7.9474,0 15.9111,-0.1599 20.7812,-0.4815c4.8648,-0.2335 8.1864,-0.7473 9.7278,-5.5079l0.0898,-0.0377zM18.0851,68.9997c3.5695,0.2389 9.4277,0.3593 15.2895,0.3593c5.8762,0 11.7559,-0.1204 15.3416,-0.3593c4.854,-0.23 6.8948,-0.9162 7.5577,-6.8642c0.4652,-4.6672 0.4814,-12.8877 -0.2426,-17.7273c-0.6628,-5.9534 -2.8024,-6.4061 -7.5899,-6.8642c-3.3612,-0.221 -9.0703,-0.3557 -15.2734,-0.3557c-6.2462,0 -11.9912,0.1347 -15.3775,0.3611c-4.5773,0.4383 -6.6307,0.882 -7.2936,6.8624c-0.4796,4.8054 -0.4796,12.9272 0.0018,17.738v0.0036c0.6593,5.9427 2.7989,6.3936 7.5864,6.8463zM66.0699,69.8386v2.7629c-1.6061,6.2463 -5.3947,7.599 -11.8224,7.9044c-4.6474,0.309 -12.4422,0.494 -20.8477,0.494c-8.4253,0 -16.2363,-0.185 -20.8819,-0.4958c-6.01086,-0.5731 -10.0816,-1.4318 -11.799,-7.9044v-2.7611h11.5098l-0.9126,-0.7419c-1.57367,-1.2791 -2.47908,-3.4187 -2.84375,-6.7295c-0.49223,-4.9276 -0.49403,-13.2506 -0.0018,-18.1692c0.81558,-7.36 4.00785,-8.19 9.15465,-8.6804c7.3924,-0.494 23.616,-0.4976 30.9815,-0.0036c5.3318,0.5084 8.6283,1.3437 9.4492,8.657c0.7635,5.1217 0.7204,13.4267 0.2426,18.1782c-0.3665,3.2947 -1.2522,5.4433 -2.7881,6.7547l-0.8605,0.7347zM25.4344,74.5094h15.8212v2.0389h-15.8212z" fill="#001E4E"/>
</svg>
