<svg width="48" height="101" viewBox="0 0 48 101" fill="none" xmlns="http://www.w3.org/2000/svg">
<path fill-rule="evenodd" clip-rule="evenodd" d="M19.8311,70.3387c9.5262,0 17.2465,-7.7028 17.2465,-17.2021c0,-9.4992 -7.7203,-17.202 -17.2465,-17.202c-9.5261,0 -17.24638,7.7028 -17.24638,17.202c0,9.4993 7.72028,17.2021 17.24638,17.2021zM38.0776,53.1366c0,10.0539 -8.1704,18.2021 -18.2465,18.2021c-10.076,0 -18.24638,-8.1482 -18.24638,-18.2021c0,-10.0539 8.17038,-18.202 18.24638,-18.202c10.0761,0 18.2465,8.1481 18.2465,18.202zM46.8075,79.3332c0.1955,0.195 0.1959,0.5116 0.0009,0.7071c-0.195,0.1955 -0.5116,0.1959 -0.7071,0.0009l-8.8732,-8.851c-0.1955,-0.195 -0.1959,-0.5116 -0.0009,-0.7071c0.195,-0.1955 0.5116,-0.1959 0.7071,-0.0009z" fill="black"/>
</svg>
