<svg width="57" height="100" viewBox="0 0 57 100" fill="none" xmlns="http://www.w3.org/2000/svg">
<path d="M17.2074,34.5601c3.8117,0.0006 7.3881,1.4264 10.0767,4.0109l2.078,1.9975l0.3465,0.3331zM29.7086,40.9016l0.3465,-0.3331M29.7086,40.9016l0.3465,-0.3331M30.0551,40.5685l2.078,-1.9975c2.6893,-2.5852 6.2658,-4.0109 10.0769,-4.0109c3.8111,0 7.3875,1.4257 10.0768,4.0109M30.0551,40.5685l22.2317,-1.9975M56.4509,48.2297c-0.0006,3.6465 -1.4768,7.0754 -4.163,9.6587l-22.1722,21.3137v-0.0001l-0.0043,0.0043c-0.008,0.0079 -0.0199,0.0184 -0.0379,0.0326l-0.0003,0.0002c-0.0003,0.0002 -0.0022,0.0017 -0.0072,0.0052l-0.0114,0.0079l-0.0121,0.0082c-0.0047,0.0032 -0.0088,0.0059 -0.012,0.0082l-0.007,0.0049c-0.009,0.0056 -0.0195,0.0116 -0.0321,0.0181l-0.011,0.0056l-0.0097,0.0056c-0.0054,0.0026 -0.0152,0.007 -0.0337,0.0145l-0.0047,0.002l-0.0037,0.0016c-0.0006,0.0002 -0.0012,0.0005 -0.0018,0.0007c-0.0054,0.0021 -0.015,0.0053 -0.0427,0.014l-0.01,0.0032l-0.0033,0.0011c-0.0088,0.0022 -0.0204,0.0049 -0.0383,0.0088l-0.0015,0.0003c-0.0051,0.0012 -0.0096,0.0022 -0.0134,0.0031c-0.0091,0.0015 -0.0199,0.003 -0.0332,0.0044v-0.0001l-0.0125,0.0017l-0.0091,0.0013c-0.0196,0.0015 -0.0373,0.0022 -0.053,0.0022c-0.0224,0 -0.0383,-0.0007 -0.0506,-0.0018l-0.0115,-0.0017v-0.0001l-0.0112,-0.0013c-0.0147,-0.0017 -0.0262,-0.0032 -0.0354,-0.0047l-0.0038,-0.001v-0.0001l-0.0102,-0.0022c-0.0198,-0.0043 -0.0308,-0.0068 -0.0381,-0.0086l-0.0065,-0.0023l-0.007,-0.0022c-0.0227,-0.0071 -0.0332,-0.0105 -0.0392,-0.0127l-0.0052,-0.0023l-0.0078,-0.0032c-0.0147,-0.006 -0.0286,-0.0122 -0.0416,-0.0185v-0.0001l-0.0094,-0.0049c-0.0143,-0.0075 -0.0265,-0.0143 -0.0377,-0.0212c-0.0037,-0.0026 -0.0082,-0.0058 -0.0133,-0.0092l-0.0044,-0.0029c-0.0214,-0.0141 -0.0276,-0.0187 -0.0299,-0.0205l-0.0037,-0.003c-0.0024,-0.0019 -0.0083,-0.0067 -0.0231,-0.0205l0.0001,-0.0001zM29.3203,79.2165l-0.0086,-0.0076M29.3203,79.2165l-0.0086,-0.0076M29.3117,79.2089c-0.007,-0.0062 -0.0131,-0.0114 -0.0171,-0.0147l-0.0004,-0.0003l-22.16314,-21.305c-5.54271,-5.3281 -5.54271,-13.9899 0,-19.3179c2.68801,-2.584 6.26444,-4.0103 10.07614,-4.0109zM52.2868,38.571c2.6873,2.5833 4.1635,6.0121 4.1641,9.6586z" stroke="black"/>
</svg>
