<svg width="47" height="100" viewBox="0 0 47 100" fill="none" xmlns="http://www.w3.org/2000/svg">
<path fill-rule="evenodd" clip-rule="evenodd" d="M7.78758,47.6603l15.23132,15.2314v-27.7457c0,-0.2761 0.2239,-0.5 0.5,-0.5c0.2761,0 0.5,0.2239 0.5,0.5v27.7457l15.2313,-15.2314l0.7071,0.7071l-16.0849,16.0849l-0.3535,0.3536l-0.3536,-0.3536l-16.08483,-16.0849zM7.43395,79.6838h32.16975c3.2772,0 5.9339,-2.6567 5.9339,-5.934v-3.217h1v3.217c0,3.8295 -3.1044,6.934 -6.9339,6.934h-32.16975c-3.82952,0 -6.93395,-3.1045 -6.93395,-6.934v-3.217h1v3.217c0,3.2773 2.65672,5.934 5.93395,5.934z" fill="black"/>
</svg>
