<svg width="61" height="100" viewBox="0 0 61 100" fill="none" xmlns="http://www.w3.org/2000/svg">
<path fill-rule="evenodd" clip-rule="evenodd" d="M25.7833,44.8709c0.1787,-1.1943 0.3798,-2.538 0.3798,-3.112c0,-2.696 -2.766,-4.8897 -6.1631,-4.8897c-3.3987,0 -6.1631,2.1937 -6.1631,4.8897c0,0.5814 0.2121,2.0043 0.3836,3.1472c0.2039,1.3587 0.3269,2.2184 0.3269,2.6779c0,3.0583 2.4455,5.5468 5.4526,5.5468c3.0055,0 5.4509,-2.4885 5.4509,-5.5468c0,-0.4677 0.1247,-1.3241 0.3286,-2.6878zM28,41.7589c0,0.7127 -0.1919,1.9999 -0.3958,3.3678l-0.0088,0.0594c-0.1683,1.1166 -0.3075,2.0702 -0.3075,2.3979c0,4.0893 -3.2693,7.416 -7.2879,7.416c-4.0202,0 -7.2895,-3.3267 -7.2895,-7.416c0,-0.3228 -0.1311,-1.2302 -0.3059,-2.3979l-0.0088,-0.0594c-0.2039,-1.3679 -0.3958,-2.6551 -0.3958,-3.3678c0,-3.7269 3.5897,-6.7589 8,-6.7589c4.4103,0 8,3.032 8,6.7589zM45.2933,53.9548c0,-0.4365 0.1307,-1.2532 0.3474,-2.544l0.0124,-0.0746c0.1784,-1.0724 0.3952,-2.3755 0.3952,-2.9153c0,-2.5611 -2.9371,-4.6451 -6.5483,-4.6451c-3.6094,0 -6.5482,2.084 -6.5482,4.6451c0,0.5466 0.2141,1.8303 0.4064,2.9832v0.0001l0.0011,0.0066c0.2167,1.2908 0.3491,2.1075 0.3491,2.544c0,2.9054 2.5983,5.2694 5.7916,5.2694c3.195,0 5.7933,-2.364 5.7933,-5.2694zM31,48.4209c0,-3.5405 3.8141,-6.4209 8.5,-6.4209c4.6859,0 8.5,2.8804 8.5,6.4209c0,0.6738 -0.2019,1.8879 -0.4189,3.1936l-0.0127,0.0764c-0.184,1.0952 -0.3233,1.9572 -0.3233,2.2639c0,3.8848 -3.4736,7.0452 -7.7451,7.0452c-4.2698,0 -7.7434,-3.1604 -7.7434,-7.0452c0,-0.3114 -0.1479,-1.2157 -0.3267,-2.278l-0.0094,-0.0565v-0.0001c-0.2167,-1.2995 -0.4205,-2.5222 -0.4205,-3.1993zM23.8512,78.0644h34.2976v-2.1403c0,-3.4943 -2.6209,-6.443 -6.214,-7.0075l-10.9356,-2.9179l-10.7905,2.889c-3.6844,0.5849 -6.3575,3.5438 -6.3575,7.0364zM52.2235,67.0032l0.0343,0.0068c4.4868,0.735 7.7422,4.4852 7.7422,8.9141v4.0759h-38v-4.0759c0,-4.4596 3.2831,-8.2115 7.8433,-8.9311l11.1559,-2.993zM9.03558,60.7373l11.43232,-2.7373l8.5321,2.26v1.8459l-8.3482,-2.3733l-0.1019,-0.0291l-11.15491,2.7341c-3.76621,0.5629 -6.49935,3.3665 -6.49935,6.67l-0.01839,2.0352l12.72785,-0.0178l0.0184,1.8588l-14.6235,0.0162l0.01003,-3.9247c0,-4.2208 3.28645,-7.6456 8.02555,-8.338z" fill="#001E4E"/>
</svg>
