<svg width="56" height="100" viewBox="0 0 56 100" fill="none" xmlns="http://www.w3.org/2000/svg">
<path d="M54.8966,50.2124c-0.0006,3.7303 -1.5185,7.2364 -4.2715,9.8727l-21.9413,21.0022c-0.0246,0.0241 -0.0509,0.0464 -0.0779,0.0676c-0.0204,0.0161 -0.0413,0.0299 -0.0623,0.0442c-0.0072,0.0046 -0.0138,0.0097 -0.021,0.0143c-0.0257,0.0167 -0.0521,0.0316 -0.079,0.0453l-0.009,0.0052c-0.027,0.0143 -0.0551,0.0264 -0.0833,0.0378l-0.0096,0.004c-0.0269,0.0109 -0.0545,0.0195 -0.082,0.0281c-0.0048,0.0018 -0.0096,0.0035 -0.015,0.0052c-0.0264,0.0074 -0.0521,0.0132 -0.0785,0.0189c-0.0078,0.0017 -0.0149,0.004 -0.0221,0.0052c-0.0252,0.0046 -0.0503,0.008 -0.0761,0.0109c-0.0084,0.0011 -0.0174,0.0028 -0.0258,0.0034c-0.0341,0.0029 -0.0688,0.0046 -0.103,0.0046c-0.0347,0 -0.0689,-0.0012 -0.103,-0.0046c-0.0084,-0.0006 -0.0174,-0.0023 -0.0258,-0.0034c-0.0251,-0.0029 -0.0509,-0.0063 -0.076,-0.0109c-0.0078,-0.0012 -0.015,-0.0035 -0.0222,-0.0052c-0.0264,-0.0057 -0.0527,-0.0115 -0.0785,-0.0189c-0.0048,-0.0017 -0.0102,-0.0034 -0.015,-0.0052c-0.0275,-0.0086 -0.0551,-0.0172 -0.082,-0.0281l-0.009,-0.004c-0.0282,-0.0114 -0.0563,-0.0241 -0.0839,-0.0378l-0.0083,-0.0046c-0.0276,-0.0143 -0.054,-0.0292 -0.0803,-0.0459c-0.006,-0.0034 -0.0114,-0.008 -0.0174,-0.012c-0.0227,-0.0149 -0.0449,-0.0298 -0.0659,-0.0465c-0.0191,-0.0149 -0.0371,-0.0309 -0.0551,-0.0475c-0.0078,-0.0069 -0.0156,-0.0127 -0.0227,-0.0195l-19.13989,-18.3206l-2.80152,-2.6816c-5.68751,-5.444 -5.68751,-14.3019 0,-19.7459c2.7542,-2.6363 6.41711,-4.0892 10.31421,-4.0898c3.8971,0.0006 7.5599,1.4529 10.3147,4.0898l2.0564,1.9683l2.0564,-1.9683c2.7554,-2.6375 6.4183,-4.0898 10.3148,-4.0898c3.8965,0 7.5593,1.4523 10.3147,4.0898c2.7542,2.6363 4.2721,6.1424 4.2727,9.8726z" fill="black"/>
</svg>
