<svg width="57" height="101" viewBox="0 0 57 101" fill="none" xmlns="http://www.w3.org/2000/svg">
<path d="M28.6239,80.2995c-0.0801,-0.028 -0.2083,-0.1001 -0.2804,-0.1561c-0.2483,-0.1923 -22.4794,-21.5784 -22.87188,-22.0069c-2.06653,-2.2307 -3.28802,-4.878 -3.65246,-7.8977c-0.09612,-0.7889 -0.09612,-2.2908 0,-3.0637c0.4085,-3.304 1.82623,-6.1635 4.20113,-8.4543c2.35888,-2.2788 5.32251,-3.6765 8.67861,-4.089c0.7249,-0.0881 2.7193,-0.1001 3.3641,-0.02c2.5751,0.3164 4.7017,1.0693 6.6681,2.3588c1.0213,0.6729 1.5099,1.0854 3.0918,2.6072c0.6208,0.6008 1.1414,1.0894 1.1534,1.0894c0.0321,0 0.3004,-0.2524 1.626,-1.5219c0.4966,-0.4766 1.1054,-1.0333 1.3537,-1.2335c3.4081,-2.7834 7.8535,-3.9128 12.299,-3.1278c3.7686,0.6648 7.2328,2.8475 9.4235,5.9352c1.4497,2.0425 2.2868,4.3093 2.515,6.7923c0.0681,0.7569 0.0281,2.3789 -0.0801,3.0878c-0.4205,2.8354 -1.5458,5.2264 -3.4842,7.405c-0.4806,0.5447 -23.0081,22.1711 -23.1763,22.2512c-0.2002,0.0961 -0.6248,0.1201 -0.829,0.044zM40.0578,68.8015c6.0634,-5.8271 11.2378,-10.8132 11.4981,-11.0815c2.3228,-2.3829 3.6084,-5.3866 3.7005,-8.6266c0.036,-1.2935 -0.0681,-2.2747 -0.3684,-3.4922c-0.769,-3.0878 -2.7114,-5.8231 -5.4667,-7.6934c-1.8343,-1.2455 -3.9729,-2.0345 -6.2877,-2.3148c-0.7049,-0.0841 -2.439,-0.0962 -3.1038,-0.0201c-2.8715,0.3324 -5.3746,1.3737 -7.4971,3.1198c-0.2323,0.1883 -1.1214,1.0173 -1.9785,1.8423l-1.5579,1.5018l-0.2523,-0.2323c-0.1361,-0.1281 -0.833,-0.7929 -1.5499,-1.4818c-0.7168,-0.6888 -1.4938,-1.4137 -1.7301,-1.6099c-2.0665,-1.7141 -4.6096,-2.7954 -7.3409,-3.1118c-4.3173,-0.5006 -8.5745,0.9611 -11.59419,3.9848c-2.12259,2.1186 -3.39615,4.7458 -3.74858,7.7094c-0.07609,0.6649 -0.08811,2.0425 -0.02002,2.6633c0.22427,2.0225 0.84903,3.8527 1.8863,5.5147c0.58071,0.9292 1.12537,1.606 1.99043,2.463c1.25754,1.2496 22.30326,21.4542 22.34726,21.4582c0.0241,0 5.0061,-4.7658 11.0735,-10.5929z" fill="black"/>
</svg>
