<svg width="57" height="101" viewBox="0 0 57 101" fill="none" xmlns="http://www.w3.org/2000/svg">
<path d="M55.8707,51.1707c-0.0006,3.7986 -1.5463,7.3689 -4.3497,10.0535l-22.3431,21.3867c-0.025,0.0245 -0.0519,0.0472 -0.0793,0.0688c-0.0208,0.0164 -0.0421,0.0304 -0.0634,0.045c-0.0074,0.0047 -0.0141,0.0099 -0.0214,0.0146c-0.0262,0.017 -0.0531,0.0321 -0.0805,0.0462l-0.0092,0.0052c-0.0274,0.0146 -0.0561,0.0268 -0.0847,0.0385l-0.0098,0.0041c-0.0274,0.0111 -0.0555,0.0199 -0.0836,0.0286c-0.0048,0.0018 -0.0097,0.0035 -0.0152,0.0053c-0.0269,0.0076 -0.0531,0.0134 -0.0799,0.0193c-0.0079,0.0017 -0.0153,0.0041 -0.0226,0.0052c-0.0256,0.0047 -0.0512,0.0082 -0.0774,0.0111c-0.0086,0.0012 -0.0178,0.0029 -0.0263,0.0035c-0.0348,0.0029 -0.0701,0.0046 -0.1049,0.0046c-0.0354,0 -0.0701,-0.0011 -0.1049,-0.0046c-0.0085,-0.0006 -0.0177,-0.0023 -0.0262,-0.0035c-0.0257,-0.0029 -0.0519,-0.0064 -0.0775,-0.0111c-0.0079,-0.0011 -0.0153,-0.0035 -0.0226,-0.0052c-0.0268,-0.0059 -0.0536,-0.0117 -0.0799,-0.0193c-0.0049,-0.0018 -0.0104,-0.0035 -0.0152,-0.0053c-0.0281,-0.0087 -0.0561,-0.0175 -0.0836,-0.0286l-0.0091,-0.0041c-0.0287,-0.0117 -0.0574,-0.0245 -0.0854,-0.0385l-0.0086,-0.0047c-0.028,-0.0146 -0.0549,-0.0297 -0.0817,-0.0467c-0.0061,-0.0035 -0.0116,-0.0082 -0.0177,-0.0122c-0.0232,-0.0152 -0.0458,-0.0304 -0.0671,-0.0474c-0.0195,-0.0151 -0.0378,-0.0315 -0.0561,-0.0484c-0.0079,-0.007 -0.0159,-0.0128 -0.0232,-0.0198l-19.4903,-18.6561l-2.85281,-2.7307c-5.79164,-5.5437 -5.79164,-14.5637 0,-20.1074c2.80463,-2.6846 6.53461,-4.1641 10.50301,-4.1647c3.9685,0.0006 7.6984,1.4795 10.5037,4.1647l2.094,2.0044l2.094,-2.0044c2.8058,-2.6857 6.5358,-4.1647 10.5037,-4.1647c3.9678,0 7.6977,1.479 10.5036,4.1647c2.8046,2.6846 4.3503,6.2548 4.3509,10.0534z" fill="black"/>
</svg>
