<svg width="27" height="28" viewBox="0 0 27 28" fill="none" xmlns="http://www.w3.org/2000/svg">
<path fill-rule="evenodd" clip-rule="evenodd" d="M9.99,4v1h-5.99v15h6c1.1947,0 2.2671,0.5238 3,1.3542v-2.4057v-10.9485c0,-1.65685 -1.3431,-3 -3,-3v-1c1.506,0 2.8177,0.8323 3.5,2.06202c0.6824,-1.22972 1.994,-2.06202 3.5,-2.06202v1c-1.6568,0 -3,1.34315 -3,3v10.9485v2.4057c0.733,-0.8304 1.8053,-1.3542 3,-1.3542h6v-15h-5.99v-1h6.49h0.5v0.5v16v0.5h-0.5h-6.5c-1.6568,0 -3,1.3431 -3,3v0h-1v0c0,-1.6569 -1.3431,-3 -3,-3h-6.5h-0.5v-0.5v-16v-0.5h0.5zM1,6l0.00003,17h8.99997v1h-9.49997h-0.5v-0.5l-0.00003,-17.5zM6,7h5v1h-5zM11,11h-5v-1h5zM6,16h5v1h-5zM11,14h-5v-1h5zM27,6v17.5v0.5h-0.5h-9.5v-1h9v-17zM21,8h-5v-1h5zM16,10h5v1h-5zM21,17h-5v-1h5zM16,13h5v1h-5z" fill="black"/>
</svg>
