<svg width="27" height="28" viewBox="0 0 27 28" fill="none" xmlns="http://www.w3.org/2000/svg">
<path fill-rule="evenodd" clip-rule="evenodd" d="M3.5 4H3V4.5V20.5V21H3.5H10C11.6569 21 13 22.3431 13 24H13H14L14 24C14 22.3431 15.3432 21 17 21H23.5H24V20.5V4.5V4H23.5H17.01V5H23V20H17C15.8053 20 14.733 20.5238 14 21.3542L14 18.9485L14 8C14 6.34315 15.3432 5 17 5V4C15.494 4 14.1824 4.8323 13.5 6.06202C12.8177 4.8323 11.506 4 10 4V5C11.6569 5 13 6.34315 13 8L13 18.9485L13 21.3542C12.2671 20.5238 11.1947 20 10 20H4V5H9.99V4H3.5ZM0 6L3.05176e-05 23.5L3.13818e-05 24H0.500031H10V23H1.00003L1 6H0ZM6 8H11V7H6V8ZM11 11H6V10H11V11ZM6 17H11V16H6V17ZM11 14H6V13H11V14ZM27 6L27 23.5V24H26.5H17V23H26L26 6H27ZM21 8H16V7H21V8ZM16 11H21V10H16V11ZM21 17H16V16H21V17ZM16 14H21V13H16V14Z" fill="black"/>
</svg>
