<svg width="22" height="28" viewBox="0 0 22 28" fill="none" xmlns="http://www.w3.org/2000/svg">
<path fill-rule="evenodd" clip-rule="evenodd" d="M9.01376,19.0295c3.87474,0 7.01574,-3.141 7.01574,-7.0157c0,-3.87474 -3.141,-7.01581 -7.01574,-7.01581c-3.8747,0 -7.01577,3.14107 -7.01577,7.01581c0,3.8747 3.14107,7.0157 7.01577,7.0157zM17.0295,12.0138c0,2.0335 -0.7572,3.8902 -2.0051,5.3034l6.0341,6.0342l-0.7071,0.7071l-6.0342,-6.0341c-1.4132,1.2479 -3.2699,2.0051 -5.30344,2.0051c-4.42699,0 -8.01577,-3.5887 -8.01577,-8.0157c0,-4.42703 3.58878,-8.01581 8.01577,-8.01581c4.42704,0 8.01574,3.58878 8.01574,8.01581z" fill="black"/>
</svg>
