<svg width="22" height="28" viewBox="0 0 22 28" fill="none" xmlns="http://www.w3.org/2000/svg">
<path fill-rule="evenodd" clip-rule="evenodd" d="M1.99799 12.0138C1.99799 8.13906 5.13906 4.99799 9.01376 4.99799C12.8885 4.99799 16.0295 8.13906 16.0295 12.0138C16.0295 15.8885 12.8885 19.0295 9.01376 19.0295C5.13906 19.0295 1.99799 15.8885 1.99799 12.0138ZM9.01376 3.99799C4.58677 3.99799 0.997986 7.58677 0.997986 12.0138C0.997986 16.4408 4.58677 20.0295 9.01376 20.0295C11.0473 20.0295 12.904 19.2723 14.3172 18.0244L20.3514 24.0585L21.0585 23.3514L15.0244 17.3172C16.2723 15.904 17.0295 14.0473 17.0295 12.0138C17.0295 7.58677 13.4408 3.99799 9.01376 3.99799Z" fill="black"/>
</svg>
