<svg width="22" height="28" viewBox="0 0 22 28" fill="none" xmlns="http://www.w3.org/2000/svg">
<path fill-rule="evenodd" clip-rule="evenodd" d="M22,14c0,6.0751 -4.9249,11 -11,11c-6.07513,0 -11,-4.9249 -11,-11c0,-6.07513 4.92487,-11 11,-11c6.0751,0 11,4.92487 11,11zM11,24c5.5228,0 10,-4.4772 10,-10c0,-5.52285 -4.4772,-10 -10,-10c-5.52285,0 -10,4.47715 -10,10c0,5.5228 4.47715,10 10,10zM11,10v11h-1v-11zM10,8.5c0,-0.27614 0.2239,-0.5 0.5,-0.5c0.2761,0 0.5,0.22386 0.5,0.5c0,0.27614 -0.2239,0.5 -0.5,0.5c-0.2761,0 -0.5,-0.22386 -0.5,-0.5z" fill="black"/>
</svg>
