<svg width="22" height="28" viewBox="0 0 22 28" fill="none" xmlns="http://www.w3.org/2000/svg">
<path fill-rule="evenodd" clip-rule="evenodd" d="M22 14C22 20.0751 17.0751 25 11 25C4.92487 25 0 20.0751 0 14C0 7.92487 4.92487 3 11 3C17.0751 3 22 7.92487 22 14ZM11 24C16.5228 24 21 19.5228 21 14C21 8.47715 16.5228 4 11 4C5.47715 4 1 8.47715 1 14C1 19.5228 5.47715 24 11 24ZM11 10V21H10V10H11ZM10.5 9C10.7761 9 11 8.77614 11 8.5C11 8.22386 10.7761 8 10.5 8C10.2239 8 10 8.22386 10 8.5C10 8.77614 10.2239 9 10.5 9Z" fill="black"/>
</svg>
