<svg width="18" height="28" viewBox="0 0 18 28" fill="none" xmlns="http://www.w3.org/2000/svg">
<path fill-rule="evenodd" clip-rule="evenodd" d="M6.5,2.5c-0.27614,0 -0.5,0.22386 -0.5,0.5v3.99h-1v-3.99c0,-0.82843 0.67157,-1.5 1.5,-1.5h5c0.8284,0 1.5,0.67157 1.5,1.5v4h4.5c0.2761,0 0.5,0.22386 0.5,0.5v14.5h-1v-14h-4h-1h-11v15h16v-0.999h1v1.499c0,0.2761 -0.2239,0.5 -0.5,0.5h-17c-0.27614,0 -0.5,-0.2239 -0.5,-0.5v-16c0,-0.27614 0.22386,-0.5 0.5,-0.5h11.5v-4c0,-0.27614 -0.2239,-0.5 -0.5,-0.5zM15.5,20c0.2761,0 0.5,0.2239 0.5,0.5c0,0.2761 -0.2239,0.5 -0.5,0.5h-13c-0.27614,0 -0.5,-0.2239 -0.5,-0.5c0,-0.2761 0.22386,-0.5 0.5,-0.5z" fill="black"/>
</svg>
