<svg width="18" height="28" viewBox="0 0 18 28" fill="none" xmlns="http://www.w3.org/2000/svg">
<path fill-rule="evenodd" clip-rule="evenodd" d="M6.5 2.5C6.22386 2.5 6 2.72386 6 3V6.99H5V3C5 2.17157 5.67157 1.5 6.5 1.5H11.5C12.3284 1.5 13 2.17157 13 3V7H17.5C17.7761 7 18 7.22386 18 7.5V22H17V8H13H12H1V23H17V22.001H18V23.5C18 23.7761 17.7761 24 17.5 24H0.5C0.223858 24 0 23.7761 0 23.5V7.5C0 7.22386 0.223858 7 0.5 7H12V3C12 2.72386 11.7761 2.5 11.5 2.5H6.5ZM2.5 20C2.22386 20 2 20.2239 2 20.5C2 20.7761 2.22386 21 2.5 21H15.5C15.7761 21 16 20.7761 16 20.5C16 20.2239 15.7761 20 15.5 20H2.5Z" fill="black"/>
</svg>
