<svg width="63" height="64" viewBox="0 0 63 64" fill="none" xmlns="http://www.w3.org/2000/svg">
<path fill-rule="evenodd" clip-rule="evenodd" d="M6.99998,9h0.5h15.99002h0.5v1h-0.5h-15.49002v37h15.50002h0.5v1h-0.5h-16.00002h-0.5v-0.5v-38zM0.00006,15h0.5h3.99994h0.5v1h-0.5h-3.49994v38h29.98104c-0.2554,-3.3562 -3.0595,-6 -6.4811,-6h-0.5v-1h0.5c2.7785,0 5.204,1.5109 6.5,3.7558v-34.2558c0,-3.5899 -2.9101,-6.5 -6.5,-6.5h-0.5v-1h0.5c3.191,0 5.9166,1.9929 7,4.8019c1.0835,-2.809 3.809,-4.8019 7.0001,-4.8019h0.5v1h-0.5c-3.5899,0 -6.5,2.9101 -6.5,6.5v34.2558c1.2959,-2.2449 3.7215,-3.7558 6.5,-3.7558h0.5v1h-0.5c-3.4217,0 -6.2258,2.6438 -6.4811,6h29.981v-38h-3.4999h-0.5v-1h0.5h3.9999h0.5v0.5v39v0.5h-0.5h-30.4999h-0.0001h-0.4999h-0.0001h-0.4999h-0.0001h-30.49994h-0.5v-0.5v-39zM23.5,15h0.5v1h-0.5h-10h-0.5v-1h0.5zM23.5,20h0.5v1h-0.5h-10h-0.5v-1h0.5zM24,26h-0.5h-10h-0.5v-1h0.5h10h0.5zM23.5,30h0.5v1h-0.5h-10h-0.5v-1h0.5zM24,36h-0.5h-10h-0.5v-1h0.5h10h0.5zM23.5,40h0.5v1h-0.5h-10h-0.5v-1h0.5zM56.0001,9.5v38v0.5h-0.5h-16h-0.5v-1h0.5h15.5v-37h-15.49h-0.5v-1h0.5h15.99h0.5zM49.5001,15h0.5v1h-0.5h-10h-0.5v-1h0.5zM49.5001,20h0.5v1h-0.5h-10h-0.5v-1h0.5zM39.0001,25h0.5h10h0.5v1h-0.5h-10h-0.5zM49.5001,30h0.5v1h-0.5h-10h-0.5v-1h0.5zM39.0001,35h0.5h10h0.5v1h-0.5h-10h-0.5zM49.5001,40h0.5v1h-0.5h-10h-0.5v-1h0.5z" fill="black"/>
</svg>
