<svg width="63" height="64" viewBox="0 0 63 64" fill="none" xmlns="http://www.w3.org/2000/svg">
<path fill-rule="evenodd" clip-rule="evenodd" d="M6.99998 9H7.49998H23.49H23.99V10H23.49H7.99998V47H23.5H24V48H23.5H7.49998H6.99998V47.5V9.5V9ZM6.10352e-05 15H0.500061H4.5H5V16H4.5H1.00006V54H30.9811C30.7257 50.6438 27.9216 48 24.5 48H24V47H24.5C27.2785 47 29.704 48.5109 31 50.7558V16.5C31 12.9101 28.0899 10 24.5 10H24V9H24.5C27.691 9 30.4166 10.9929 31.5 13.8019C32.5835 10.9929 35.309 9 38.5001 9H39.0001V10H38.5001C34.9102 10 32.0001 12.9101 32.0001 16.5V50.7558C33.296 48.5109 35.7216 47 38.5001 47H39.0001V48H38.5001C35.0784 48 32.2743 50.6438 32.019 54H62V16H58.5001H58.0001V15H58.5001H62.5H63V15.5V54.5V55H62.5H32.0001H32H31.5001H31.5H31.0001H31H0.500061H6.10352e-05V54.5V15.5V15ZM23.5 15H24V16H23.5H13.5H13V15H13.5H23.5ZM23.5 20H24V21H23.5H13.5H13V20H13.5H23.5ZM24 25H23.5H13.5H13V26H13.5H23.5H24V25ZM23.5 30H24V31H23.5H13.5H13V30H13.5H23.5ZM24 35H23.5H13.5H13V36H13.5H23.5H24V35ZM23.5 40H24V41H23.5H13.5H13V40H13.5H23.5ZM56.0001 9H55.5001H39.5101H39.0101V10H39.5101H55.0001V47H39.5001H39.0001V48H39.5001H55.5001H56.0001V47.5V9.5V9ZM39.5001 15H39.0001V16H39.5001H49.5001H50.0001V15H49.5001H39.5001ZM39.5001 20H39.0001V21H39.5001H49.5001H50.0001V20H49.5001H39.5001ZM39.0001 25H39.5001H49.5001H50.0001V26H49.5001H39.5001H39.0001V25ZM39.5001 30H39.0001V31H39.5001H49.5001H50.0001V30H49.5001H39.5001ZM39.0001 35H39.5001H49.5001H50.0001V36H49.5001H39.5001H39.0001V35ZM39.5001 40H39.0001V41H39.5001H49.5001H50.0001V40H49.5001H39.5001Z" fill="black"/>
</svg>
