<svg width="52" height="64" viewBox="0 0 52 64" fill="none" xmlns="http://www.w3.org/2000/svg">
<path fill-rule="evenodd" clip-rule="evenodd" d="M50.5,32c0,-13.531 -10.969,-24.5 -24.5,-24.5c-13.531,0 -24.5,10.969 -24.5,24.5c0,13.531 10.969,24.5 24.5,24.5c13.531,0 24.5,-10.969 24.5,-24.5zM26,6.5c14.0833,0 25.5,11.4167 25.5,25.5c0,14.0833 -11.4167,25.5 -25.5,25.5c-14.0833,0 -25.5,-11.4167 -25.5,-25.5c0,-14.0833 11.4167,-25.5 25.5,-25.5zM17.25,44.5574l-0.75,0.433v-0.866v-24.2488v-0.866l0.75,0.433l21,12.1244l0.75,0.433l-0.75,0.433zM17.5,20.7417v22.5166l19.5,-11.2583z" fill="black"/>
</svg>
