<svg width="52" height="64" viewBox="0 0 52 64" fill="none" xmlns="http://www.w3.org/2000/svg">
<path fill-rule="evenodd" clip-rule="evenodd" d="M50.5 32C50.5 18.469 39.531 7.5 26 7.5C12.469 7.5 1.5 18.469 1.5 32C1.5 45.531 12.469 56.5 26 56.5C39.531 56.5 50.5 45.531 50.5 32ZM26 6.5C40.0833 6.5 51.5 17.9167 51.5 32C51.5 46.0833 40.0833 57.5 26 57.5C11.9167 57.5 0.5 46.0833 0.5 32C0.5 17.9167 11.9167 6.5 26 6.5ZM38.25 32.433L39 32L38.25 31.567L17.25 19.4426L16.5 19.0096V19.8756L16.5 44.1244V44.9904L17.25 44.5574L38.25 32.433ZM37 32L17.5 43.2583L17.5 20.7417L37 32Z" fill="black"/>
</svg>
