<svg width="45" height="100" viewBox="0 0 45 100" fill="none" xmlns="http://www.w3.org/2000/svg">
<path d="M13,44.5678c0,-5.2807 4.2457,-9.5678 9.4929,-9.5678c5.2473,0 9.5071,4.3013 9.5071,9.5678c0,3.5064 -1.8619,6.5442 -4.6548,8.2193c-0.2962,0.1987 -0.5924,0.3833 -0.8181,0.5536c-2.8916,3.5347 -1.1425,6.601 -0.2962,7.7224c0.7899,0.5678 1.5657,1.2776 2.2004,1.9022c2.1723,1.7603 3.5687,4.4432 3.5687,7.4669c0,5.2807 -4.2598,9.5678 -9.5071,9.5678c-5.2472,0 -9.4929,-4.2871 -9.4929,-9.5678c0,-2.8249 1.199,-5.3517 3.1173,-7.0978c0.6206,-0.6246 1.4246,-1.4054 2.271,-2.0442c2.6095,-4.1025 0.409,-7.3249 -0.1552,-8.0347c-0.9027,-0.6104 -2.2286,-1.5331 -2.7082,-2.1861c-1.5657,-1.7035 -2.5249,-3.9748 -2.5249,-6.4874z" fill="black"/>
</svg>
