<svg width="47" height="100" viewBox="0 0 47 100" fill="none" xmlns="http://www.w3.org/2000/svg">
<path d="M1,44.375c0,-5.1777 4.19733,-9.375 9.375,-9.375c5.1777,0 9.375,4.1973 9.375,9.375c0,5.1777 -4.1973,9.375 -9.375,9.375c-5.17767,0 -9.375,-4.1973 -9.375,-9.375z" fill="black"/>
<path d="M1,70.625c0,-5.1777 4.19733,-9.375 9.375,-9.375c5.1777,0 9.375,4.1973 9.375,9.375c0,5.1777 -4.1973,9.375 -9.375,9.375c-5.17767,0 -9.375,-4.1973 -9.375,-9.375z" fill="black"/>
<path d="M46,70.625c0,5.1777 -4.1973,9.375 -9.375,9.375c-5.1777,0 -9.375,-4.1973 -9.375,-9.375c0,-5.1777 4.1973,-9.375 9.375,-9.375c5.1777,0 9.375,4.1973 9.375,9.375z" fill="black"/>
<path d="M27.25,44.375c0,-5.1777 4.1973,-9.375 9.375,-9.375c5.1777,0 9.375,4.1973 9.375,9.375c0,5.1777 -4.1973,9.375 -9.375,9.375c-5.1777,0 -9.375,-4.1973 -9.375,-9.375z" fill="black"/>
</svg>
