<svg width="47" height="100" viewBox="0 0 47 100" fill="none" xmlns="http://www.w3.org/2000/svg">
<path d="M23.5,63.9942l-14.66083,14.6608c-1.79332,1.7933 -4.70086,1.7933 -6.49417,0c-1.79333,-1.7933 -1.79333,-4.7009 0,-6.4942l14.6608,-14.6608l-14.66081,-14.6608c-1.79332,-1.7933 -1.79332,-4.7009 0,-6.4942c1.79332,-1.7933 4.70086,-1.7933 6.49418,0l14.66083,14.6608l14.6608,-14.6608c1.7934,-1.7933 4.7009,-1.7933 6.4942,0c1.7933,1.7933 1.7933,4.7009 0,6.4942l-14.6608,14.6608l14.6608,14.6608c1.7933,1.7933 1.7933,4.7009 0,6.4942c-1.7933,1.7933 -4.7008,1.7933 -6.4942,0z" fill="black"/>
</svg>
