<svg width="64" height="100" viewBox="0 0 64 100" fill="none" xmlns="http://www.w3.org/2000/svg">
<path d="M61.5826,36.0507c0.9346,0.9303 1.4636,2.1923 1.4717,3.511v35.3105c-0.002,1.3227 -0.5283,2.5906 -1.4636,3.5259c-0.9353,0.9353 -2.2032,1.4616 -3.5259,1.4636h-52.07528c-1.32268,-0.002 -2.5906,-0.5283 -3.52588,-1.4636c-0.93528,-0.9353 -1.46161,-2.2032 -1.46364,-3.5259v-35.3105c0.0081,-1.3187 0.53711,-2.5807 1.47173,-3.511c0.93463,-0.9303 2.19909,-1.4535 3.51779,-1.4555h52.07528c1.3187,0.002 2.5832,0.5252 3.5178,1.4555zM3.30286,45.196h57.44864v-5.6343c0,-0.7125 -0.2831,-1.3959 -0.7869,-1.8998c-0.5039,-0.5038 -1.1872,-0.7869 -1.8998,-0.7869h-52.07528c-0.71254,0 -1.39591,0.2831 -1.89976,0.7869c-0.50384,0.5039 -0.7869,1.1873 -0.7869,1.8998zM60.7515,47.5219h-57.44864v27.3503c0,0.7125 0.28306,1.3959 0.7869,1.8998c0.50385,0.5038 1.18722,0.7869 1.89976,0.7869h52.07528c0.7126,0 1.3959,-0.2831 1.8998,-0.7869c0.5038,-0.5039 0.7869,-1.1873 0.7869,-1.8998zM11.0098,41.0969c0,0.3128 -0.0928,0.6185 -0.2665,0.8786c-0.1738,0.26 -0.4208,0.4627 -0.7097,0.5824c-0.28895,0.1197 -0.6069,0.151 -0.91364,0.09c-0.30674,-0.0611 -0.5885,-0.2117 -0.80965,-0.4328c-0.22115,-0.2212 -0.37175,-0.5029 -0.43276,-0.8097c-0.06102,-0.3067 -0.0297,-0.6246 0.08998,-0.9136c0.11969,-0.2889 0.32236,-0.5359 0.58241,-0.7097c0.26004,-0.1737 0.56577,-0.2664 0.87852,-0.2664c0.41938,0 0.82164,0.1666 1.11814,0.4631c0.2966,0.2966 0.4632,0.6988 0.4632,1.1181zM18.6859,41.0969c0,0.3128 -0.0927,0.6185 -0.2665,0.8786c-0.1737,0.26 -0.4207,0.4627 -0.7096,0.5824c-0.289,0.1197 -0.6069,0.151 -0.9136,0.09c-0.3068,-0.0611 -0.5885,-0.2117 -0.8097,-0.4328c-0.2211,-0.2212 -0.3717,-0.5029 -0.4328,-0.8097c-0.061,-0.3067 -0.0297,-0.6246 0.09,-0.9136c0.1197,-0.2889 0.3224,-0.5359 0.5824,-0.7097c0.2601,-0.1737 0.5658,-0.2664 0.8785,-0.2664c0.4194,0 0.8216,0.1666 1.1182,0.4631c0.2965,0.2966 0.4631,0.6988 0.4631,1.1181zM26.3621,41.0969c0,0.3128 -0.0927,0.6185 -0.2665,0.8786c-0.1737,0.26 -0.4207,0.4627 -0.7096,0.5824c-0.289,0.1197 -0.6069,0.151 -0.9137,0.09c-0.3067,-0.0611 -0.5885,-0.2117 -0.8096,-0.4328c-0.2212,-0.2212 -0.3718,-0.5029 -0.4328,-0.8097c-0.061,-0.3067 -0.0297,-0.6246 0.09,-0.9136c0.1197,-0.2889 0.3224,-0.5359 0.5824,-0.7097c0.2601,-0.1737 0.5658,-0.2664 0.8785,-0.2664c0.4194,0 0.8216,0.1666 1.1182,0.4631c0.2965,0.2966 0.4631,0.6988 0.4631,1.1181z" fill="black"/>
</svg>
