<svg width="32" height="101" viewBox="0 0 32 101" fill="none" xmlns="http://www.w3.org/2000/svg">
<path fill-rule="evenodd" clip-rule="evenodd" d="M9.29556,59.2304c0,3.3924 2.75014,6.1426 6.14254,6.1426h1.3195c3.3924,0 6.1425,-2.7502 6.1425,-6.1426v-17.4519c0,-3.3925 -2.7501,-6.1426 -6.1425,-6.1426h-1.3195c-3.3924,0 -6.14254,2.7501 -6.14254,6.1426zM16.7576,32.4959c5.1266,0 9.2825,4.156 9.2825,9.2826v17.4519c0,5.1266 -4.1559,9.2826 -9.2825,9.2826h-1.3195c-5.1266,0 -9.28254,-4.156 -9.28254,-9.2826v-17.4519c0,-5.1266 4.15594,-9.2826 9.28254,-9.2826zM14.7522,70.7806h2.666c6.0288,0 10.9647,-4.9416 10.9647,-10.9647v-0.4284h3.14v0.4284c0,7.6757 -6.2097,13.9727 -13.8634,14.1026v3.5213h4.6755c0.8671,0 1.57,0.7029 1.57,1.57c0,0.8671 -0.7029,1.57 -1.57,1.57h-12.48017c-0.86709,0 -1.57,-0.7029 -1.57,-1.57c0,-0.8671 0.70291,-1.57 1.57,-1.57h4.66467v-3.5211c-7.65003,-0.1253 -13.87197,-6.4165 -13.87197,-14.1028v-0.4284h3.14v0.4284c0,6.0288 4.94154,10.9647 10.96467,10.9647z" fill="black"/>
</svg>
