<svg width="37" height="100" viewBox="0 0 37 100" fill="none" xmlns="http://www.w3.org/2000/svg">
<path fill-rule="evenodd" clip-rule="evenodd" d="M26,54c0,4.1421 -3.3579,7.5 -7.5,7.5c-4.1421,0 -7.5,-3.3579 -7.5,-7.5c0,-4.1421 3.3579,-7.5 7.5,-7.5c4.1421,0 7.5,3.3579 7.5,7.5zM18.5,58.5c2.4853,0 4.5,-2.0147 4.5,-4.5c0,-2.4853 -2.0147,-4.5 -4.5,-4.5c-2.4853,0 -4.5,2.0147 -4.5,4.5c0,2.4853 2.0147,4.5 4.5,4.5z" fill="black"/>
<path fill-rule="evenodd" clip-rule="evenodd" d="M36,53.2174c0,3.2814 -1.6302,7.1455 -3.6813,10.7716c-2.0842,3.6849 -4.7445,7.3634 -7.0768,10.3376l-0.0777,0.0992c-1.1385,1.4519 -2.1083,2.6887 -3.0487,3.543c-1.026,0.9319 -2.1574,1.5421 -3.6155,1.5421c-1.4581,0 -2.5895,-0.6102 -3.6155,-1.5421c-0.9404,-0.8543 -1.9102,-2.0911 -3.0486,-3.543l-0.0778,-0.0992c-2.33235,-2.9742 -4.99255,-6.6527 -7.07682,-10.3376c-2.05107,-3.6261 -3.68128,-7.4902 -3.68128,-10.7716c0,-10.2319 7.73332,-18.7174 17.5,-18.7174c9.7667,0 17.5,8.4855 17.5,18.7174zM7.2925,62.5121c1.98006,3.5006 4.5391,7.0466 6.8263,9.9632c1.2379,1.5786 2.0529,2.6098 2.7828,3.2728c0.6657,0.6047 1.11,0.7628 1.5984,0.7628c0.4884,0 0.9327,-0.1581 1.5984,-0.7628c0.7299,-0.663 1.5449,-1.6942 2.7828,-3.2728c2.2872,-2.9166 4.8462,-6.4626 6.8263,-9.9632c2.0133,-3.5594 3.2925,-6.8417 3.2925,-9.2947c0,-8.786 -6.5936,-15.7174 -14.5,-15.7174c-7.9064,0 -14.5,6.9314 -14.5,15.7174c0,2.453 1.27924,5.7353 3.2925,9.2947z" fill="black"/>
</svg>
