<svg width="63" height="101" viewBox="0 0 63 101" fill="none" xmlns="http://www.w3.org/2000/svg">
<path fill-rule="evenodd" clip-rule="evenodd" d="M56.8663,35.8477h0.0366c0.9117,-0.0001 1.6466,-0.0001 2.2245,0.0776c0.6001,0.0807 1.1054,0.2533 1.5066,0.6546c0.4013,0.4013 0.5739,0.9065 0.6546,1.5066c0.0777,0.578 0.0777,1.3129 0.0777,2.2246v0.0366v36.0121v0.0365c0,0.9117 0,1.6466 -0.0777,2.2246c-0.0807,0.6001 -0.2533,1.1053 -0.6546,1.5066c-0.4012,0.4013 -0.9065,0.5739 -1.5066,0.6546c-0.5779,0.0777 -1.3128,0.0777 -2.2246,0.0777h-0.0365h-50.68283h-0.03654c-0.91175,0 -1.64664,0 -2.22463,-0.0777c-0.60007,-0.0807 -1.10532,-0.2533 -1.50659,-0.6546c-0.40128,-0.4013 -0.57388,-0.9065 -0.65456,-1.5066c-0.0777,-0.578 -0.07769,-1.3128 -0.07768,-2.2246v-0.0365v-36.0121v-0.0366v0c-0.00001,-0.9118 -0.00002,-1.6466 0.07768,-2.2246c0.08068,-0.6001 0.25328,-1.1053 0.65456,-1.5066c0.40127,-0.4013 0.90652,-0.5739 1.5066,-0.6546c0.57797,-0.0777 1.31285,-0.0777 2.22457,-0.0776h0.00001h0.03658zM2.75224,38.2197c-0.06771,0.5036 -0.06877,1.171 -0.06877,2.128v6.6941l28.17063,14.0853c0.4222,0.2111 0.9193,0.2111 1.3416,0l28.1706,-14.0853v-6.6941c0,-0.957 -0.0011,-1.6244 -0.0688,-2.128c-0.0658,-0.4891 -0.1861,-0.7482 -0.3706,-0.9327c-0.1845,-0.1845 -0.4435,-0.3048 -0.9327,-0.3706c-0.5036,-0.0677 -1.171,-0.0687 -2.1279,-0.0687h-50.68283c-0.95694,0 -1.62435,0.001 -2.12792,0.0687c-0.48918,0.0658 -0.74823,0.1861 -0.93274,0.3706c-0.18451,0.1845 -0.3048,0.4436 -0.37057,0.9327zM2.68347,48.1598v28.2c0,0.9569 0.00106,1.6243 0.06877,2.1279c0.06577,0.4892 0.18606,0.7482 0.37057,0.9327c0.18451,0.1845 0.44356,0.3048 0.93274,0.3706c0.50357,0.0677 1.17097,0.0688 2.12792,0.0688h50.68283c0.9569,0 1.6243,-0.0011 2.1279,-0.0688c0.4892,-0.0658 0.7482,-0.1861 0.9327,-0.3706c0.1845,-0.1845 0.3048,-0.4435 0.3706,-0.9327c0.0677,-0.5036 0.0688,-1.171 0.0688,-2.1279v-28.2l-27.7234,13.8617c-0.7038,0.3519 -1.5322,0.3519 -2.2361,0z" fill="black"/>
<path d="M6.14688,35.8477l-0.00001,1h0.00001zM3.92231,35.9253l0.13324,0.9911v0zM2.41571,36.5799l-0.70711,-0.7071v0zM1.76115,38.0865l0.99109,0.1332zM1.68347,40.3111h1v0zM1.68347,76.3963l1,0.0001v-0.0001zM1.76115,78.6209l0.99109,-0.1332v0zM2.41571,80.1275l-0.70711,0.7071v0zM3.9223,80.7821l0.13325,-0.9911v0zM6.14693,80.8598v-1h-0.00002zM56.9028,80.8598v-1v0zM59.1274,80.7821l-0.1332,-0.9911v0zM61.3412,80.8346h-0.0001l-0.7071,-0.7071zM61.2886,78.6209l-0.9911,-0.1332zM61.3663,76.3963h-1v0zM61.3663,40.3111h-1v0zM61.2886,38.0865l-0.9911,0.1332v0zM61.3411,35.8728v0l-0.7071,0.7071zM59.1274,35.9253l0.1333,-0.991v0zM56.9029,35.8477v1v0zM3.92231,35.9253l0.13324,0.9911zM3.82992,37.9941v0l-0.70711,-0.7071zM58.9942,36.9164l0.1332,-0.9911v0zM59.2198,37.9941v0l0.7071,-0.7071zM59.3064,38.353v0l0.9911,-0.1333zM61.3663,47.0418v0.618l-0.5528,0.2764l-0.4472,-0.8944zM32.6429,62.0215v0l-0.4472,-0.8944zM30.8541,61.1271l0.4472,-0.8944zM2.23626,47.9362l-0.55279,-0.2764v-0.618h1zM1.76115,38.0865v0l0.99109,0.1332zM2.68347,48.1598l0.44722,-0.8944l-1.44722,-0.7236v1.618zM2.75224,78.4877l0.99108,-0.1333zM4.05555,79.791l0.13325,-0.9911v0zM58.9942,79.791l-0.1333,-0.9911zM60.2975,78.4877l-0.9911,-0.1333zM60.3663,48.1598h1v-1.618l-1.4472,0.7236zM30.8541,61.1271v0l-0.4473,0.8944zM6.14689,36.8477h0.03658v-2h-0.03658zM6.14688,36.8477h0.00001v-2h-0.00001zM3.78906,34.9343c0.65958,-0.0887 1.47218,-0.0867 2.35783,-0.0866l-0.00002,2c-0.9378,-0.0001 -1.59495,0.002 -2.09132,0.0687zM1.7086,35.8728c0.61823,-0.6182 1.36989,-0.843 2.08046,-0.9385l0.26649,1.9821c-0.48958,0.0658 -0.74841,0.1863 -0.93274,0.3706zM0.77007,37.9532c0.09553,-0.7105 0.3203,-1.4622 0.93853,-2.0804l1.41421,1.4142c-0.18432,0.1843 -0.30475,0.4432 -0.37057,0.9327zM0.68347,40.3111c-0.00001,-0.8857 -0.00208,-1.6983 0.0866,-2.3579l1.98217,0.2665c-0.06674,0.4964 -0.06878,1.1536 -0.06877,2.0914zM0.68347,40.3111v0h2v0zM2.68347,40.3477v-0.0366h-2v0.0366zM0.68347,76.3598v-36.0121h2v36.0121zM2.68347,76.3963v-0.0365h-2v0.0365zM0.77007,78.7542c-0.08868,-0.6596 -0.08661,-1.4722 -0.0866,-2.3579l2,0.0001c-0.00001,0.9378 0.00203,1.5949 0.06877,2.0913zM1.7086,80.8346c-0.61823,-0.6182 -0.84299,-1.3699 -0.93853,-2.0804l1.98217,-0.2665c0.06582,0.4896 0.18625,0.7484 0.37057,0.9327zM3.78906,81.7732c-0.71057,-0.0956 -1.46223,-0.3203 -2.08046,-0.9386l1.41421,-1.4142c0.18432,0.1843 0.44316,0.3048 0.93274,0.3706zM6.14695,81.8598c-0.88568,0 -1.6983,0.002 -2.3579,-0.0866l0.2665,-1.9822c0.49638,0.0667 1.15355,0.0688 2.09136,0.0688zM6.18347,79.8598h-0.03654v2h0.03654zM56.8663,79.8598h-50.68283v2h50.68283zM56.9028,79.8598h-0.0365v2h0.0365zM59.2607,81.7732c-0.6596,0.0886 -1.4722,0.0866 -2.3579,0.0866v-2c0.9378,0 1.595,-0.0021 2.0914,-0.0688zM61.3411,80.8346c-0.6182,0.6183 -1.3698,0.843 -2.0804,0.9386l-0.2665,-1.9822c0.4896,-0.0658 0.7484,-0.1863 0.9327,-0.3706zM62.2797,78.7542c-0.0956,0.7105 -0.3203,1.4622 -0.9385,2.0804l-1.4143,-1.4142c0.1844,-0.1843 0.3048,-0.4431 0.3706,-0.9327zM62.3663,76.3963c0,0.8857 0.0021,1.6983 -0.0866,2.3579l-1.9822,-0.2665c0.0667,-0.4964 0.0688,-1.1536 0.0688,-2.0914zM60.3663,76.3598v0.0365h2v-0.0365zM62.3663,40.3477v36.0121h-2v-36.0121zM60.3663,40.3111v0.0366h2v-0.0366zM62.2797,37.9532c0.0887,0.6596 0.0866,1.4723 0.0866,2.3579h-2c0,-0.9378 -0.0021,-1.595 -0.0688,-2.0914zM61.3411,35.8728c0.6183,0.6182 0.843,1.3699 0.9386,2.0804l-1.9822,0.2665c-0.0658,-0.4895 -0.1862,-0.7484 -0.3706,-0.9327zM59.2607,34.9343c0.7106,0.0955 1.4622,0.3203 2.0804,0.9385l-1.4142,1.4142c-0.1843,-0.1843 -0.4431,-0.3048 -0.9327,-0.3706zM56.9028,34.8477c0.8857,-0.0001 1.6983,-0.0021 2.3579,0.0866l-0.2665,1.9821c-0.4964,-0.0667 -1.1535,-0.0688 -2.0913,-0.0687zM56.8663,36.8477h0.0366v-2h-0.0366zM6.18347,34.8477h50.68283v2h-50.68283zM3.92231,35.9253c-0.60074,0.0808 -1.10564,0.2536 -1.5066,0.6546l1.41421,1.4142c0.00079,-0.0008 0.00074,-0.0007 0.00004,-0.0001c-0.00071,0.0006 -0.00116,0.0009 -0.00097,0.0008c0.00021,-0.0002 0.00199,-0.0014 0.0059,-0.0034c0.00397,-0.0021 0.01069,-0.0054 0.02088,-0.0096c0.04369,-0.018 0.14027,-0.0484 0.33303,-0.0743zM6.18347,37.8477c-0.98576,0 -1.57335,0.0032 -1.99467,0.0598l-0.26649,-1.9822c0.58581,-0.0787 1.33304,-0.0776 2.26116,-0.0776zM56.8663,35.8477h-50.68283v2h50.68283zM58.8609,37.9075c-0.4213,-0.0566 -1.0089,-0.0598 -1.9946,-0.0598v-2c0.9281,0 1.6753,-0.0011 2.2611,0.0776zM60.634,36.5799c-0.4009,-0.401 -0.9058,-0.5738 -1.5066,-0.6546l-0.2665,1.9822c0.1928,0.0259 0.2894,0.0563 0.3331,0.0743c0.0102,0.0042 0.0169,0.0075 0.0209,0.0096c0.0039,0.002 0.0056,0.0032 0.0059,0.0034c0.0001,0.0001 -0.0003,-0.0002 -0.001,-0.0008c-0.0007,-0.0006 -0.0008,-0.0007 0,0.0001zM61.2886,38.0865c-0.0808,-0.6007 -0.2536,-1.1056 -0.6546,-1.5066l-1.4142,1.4142c0.0008,0.0008 0.0007,0.0007 0.0001,0c-0.0006,-0.0007 -0.0008,-0.0011 -0.0007,-0.0009c0.0001,0.0002 0.0013,0.002 0.0033,0.0059c0.0021,0.0039 0.0054,0.0107 0.0096,0.0209c0.018,0.0436 0.0484,0.1402 0.0743,0.333zM59.3663,40.3477c0,-0.9858 -0.0032,-1.5734 -0.0599,-1.9947l1.9822,-0.2665c0.0788,0.5858 0.0777,1.333 0.0777,2.2612zM61.3663,47.0418v-6.6941h-2v6.6941zM31.7485,60.2327l28.1706,-14.0853l0.8944,1.7888l-28.1706,14.0853zM31.3013,60.2327c0.1407,0.0704 0.3064,0.0704 0.4472,0l0.8944,1.7888c-0.7038,0.3519 -1.5322,0.3519 -2.2361,0zM3.13069,46.1474l28.17061,14.0853l-0.8945,1.7888l-28.17054,-14.0853zM1.68347,40.3477v6.6941h2v-6.6941zM3.74332,38.353c-0.05664,0.4213 -0.05985,1.0089 -0.05985,1.9947h-2c0,-0.9282 -0.00108,-1.6754 0.07768,-2.2612zM2.41571,36.5799c-0.40097,0.401 -0.57379,0.9059 -0.65456,1.5066l1.98217,0.2665c0.02592,-0.1928 0.05632,-0.2894 0.07432,-0.333c0.00419,-0.0102 0.00748,-0.017 0.00957,-0.0209c0.00205,-0.0039 0.00322,-0.0057 0.00336,-0.0059c0.00012,-0.0002 -0.00017,0.0002 -0.00076,0.0009c-0.00057,0.0007 -0.00068,0.0008 0.00011,0zM1.68347,48.1598v28.2h2v-28.2zM3.68347,76.3598c0,0.9857 0.00321,1.5733 0.05985,1.9946l-1.98217,0.2665c-0.07876,-0.5858 -0.07768,-1.333 -0.07768,-2.2611zM1.76115,78.6209c0.08077,0.6008 0.25359,1.1057 0.65455,1.5066l1.41422,-1.4142c-0.00079,-0.0008 -0.00067,-0.0007 -0.0001,0c0.00058,0.0007 0.00088,0.0011 0.00075,0.0009c-0.00014,-0.0002 -0.00131,-0.0019 -0.00336,-0.0059c-0.00209,-0.0039 -0.00538,-0.0107 -0.00957,-0.0208c-0.018,-0.0437 -0.0484,-0.1403 -0.07432,-0.3331zM2.4157,80.1275c0.40097,0.401 0.90587,0.5738 1.5066,0.6546l0.2665,-1.9822c-0.19276,-0.0259 -0.28934,-0.0563 -0.33303,-0.0743c-0.01019,-0.0042 -0.01691,-0.0075 -0.02088,-0.0096c-0.00391,-0.002 -0.00569,-0.0032 -0.0059,-0.0033c-0.00019,-0.0002 0.00026,0.0001 0.00097,0.0007c0.0007,0.0006 0.00075,0.0007 -0.00004,-0.0001zM4.1888,78.7999c0.42132,0.0567 1.0089,0.0599 1.99467,0.0599v2c-0.92812,0 -1.67535,0.001 -2.26117,-0.0777zM6.18347,78.8598h50.68283v2h-50.68283zM56.8663,78.8598c0.9857,0 1.5733,-0.0032 1.9946,-0.0599l0.2665,1.9822c-0.5858,0.0787 -1.333,0.0777 -2.2611,0.0777zM59.1274,80.7821c0.6008,-0.0808 1.1057,-0.2536 1.5066,-0.6546l-1.4142,-1.4142c-0.0008,0.0008 -0.0007,0.0007 0,0.0001c0.0007,-0.0006 0.0011,-0.0009 0.001,-0.0007c-0.0003,0.0001 -0.002,0.0013 -0.0059,0.0033c-0.004,0.0021 -0.0107,0.0054 -0.0209,0.0096c-0.0437,0.018 -0.1403,0.0484 -0.3331,0.0743zM60.634,80.1275c0.401,-0.4009 0.5738,-0.9058 0.6546,-1.5066l-1.9822,-0.2665c-0.0259,0.1928 -0.0563,0.2894 -0.0743,0.3331c-0.0042,0.0101 -0.0075,0.0169 -0.0096,0.0208c-0.002,0.004 -0.0032,0.0057 -0.0033,0.0059c-0.0001,0.0002 0.0001,-0.0002 0.0007,-0.0009c0.0006,-0.0007 0.0007,-0.0008 -0.0001,0zM59.3064,78.3544c0.0567,-0.4213 0.0599,-1.0089 0.0599,-1.9946h2c0,0.9281 0.0011,1.6753 -0.0777,2.2611zM61.3663,76.3598v-28.2h-2v28.2zM60.8135,49.0543l-27.7234,13.8617l-0.8944,-1.7889l27.7234,-13.8617zM33.0901,62.916c-0.9853,0.4926 -2.1451,0.4926 -3.1305,0l0.8945,-1.7889c0.4222,0.2111 0.9193,0.2111 1.3416,0zM29.9596,62.916l-27.72334,-13.8617l0.89443,-1.7889l27.72341,13.8617z" fill="black"/>
</svg>
