<svg width="65" height="101" viewBox="0 0 65 101" fill="none" xmlns="http://www.w3.org/2000/svg">
<path fill-rule="evenodd" clip-rule="evenodd" d="M13.7342,41.2208c-1.2923,1.2574 -1.9036,2.9362 -1.8535,4.6435c0.0986,3.354 2.7917,6.9489 8.3378,6.9489c0.9389,0 1.7,0.7611 1.7,1.7c0,0.9389 -0.7611,1.7 -1.7,1.7c-7.3314,0 -11.58222,-5.004 -11.7363,-10.249c-0.07615,-2.5922 0.85911,-5.213 2.8809,-7.1802c2.0297,-1.9749 5.0242,-3.1688 8.8554,-3.1688c0.9389,0 1.7,0.7612 1.7,1.7c0,0.9389 -0.7611,1.7 -1.7,1.7c-3.1128,0 -5.1999,0.9559 -6.4843,2.2056zM32.5549,39.2067c-3.7045,0 -6.7076,3.0031 -6.7076,6.7077c0,3.7045 3.0031,6.7076 6.7076,6.7076c3.7046,0 6.7077,-3.0031 6.7077,-6.7076c0,-3.7046 -3.0031,-6.7077 -6.7077,-6.7077zM42.6626,45.9144c0,5.5823 -4.5254,10.1076 -10.1077,10.1076c-5.5823,0 -10.1076,-4.5253 -10.1076,-10.1076c0,-5.5824 4.5253,-10.1077 10.1076,-10.1077c5.5823,0 10.1077,4.5253 10.1077,10.1077zM17.6617,70.4942c0,3.6451 2.9549,6.6 6.6,6.6h16.5864c3.6451,0 6.6,-2.9549 6.6,-6.6v-0.2102c0,-3.6451 -2.9549,-6.6 -6.6,-6.6h-16.5864c-3.6451,0 -6.6,2.9549 -6.6,6.6zM14.2617,70.284c0,-5.5229 4.4772,-10 10,-10h16.5864c5.5229,0 10,4.4771 10,10v0.2102c0,5.5228 -4.4771,10 -10,10h-16.5864c-5.5228,0 -10,-4.4772 -10,-10zM13.9185,58.1504c0,0.9389 -0.7611,1.7 -1.7,1.7c-3.11276,0 -5.19992,0.9559 -6.48434,2.2056c-1.2923,1.2575 -1.90358,2.9362 -1.85342,4.6435c0.09852,3.354 2.7917,6.9489 8.33776,6.9489c0.9389,0 1.7,0.7612 1.7,1.7c0,0.9389 -0.7611,1.7 -1.7,1.7c-7.33144,0 -11.58222,-5.004 -11.7363,-10.249c-0.07615,-2.5922 0.85911,-5.213 2.88092,-7.1802c2.02968,-1.9749 5.02419,-3.1688 8.85538,-3.1688c0.9389,0 1.7,0.7612 1.7,1.7zM52.8916,56.4504c3.8312,0 6.8257,1.1939 8.8554,3.1688c2.0218,1.9672 2.957,4.588 2.8809,7.1802c-0.1541,5.245 -4.4049,10.249 -11.7363,10.249c-0.9389,0 -1.7,-0.7611 -1.7,-1.7c0,-0.9388 0.7611,-1.7 1.7,-1.7c5.5461,0 8.2392,-3.5949 8.3378,-6.9489c0.0501,-1.7073 -0.5612,-3.386 -1.8535,-4.6435c-1.2844,-1.2497 -3.3715,-2.2056 -6.4843,-2.2056c-0.9389,0 -1.7,-0.7611 -1.7,-1.7c0,-0.9388 0.7611,-1.7 1.7,-1.7zM44.8916,39.0152c-0.9389,0 -1.7,-0.7611 -1.7,-1.7c0,-0.9388 0.7611,-1.7 1.7,-1.7c3.8312,0 6.8257,1.1939 8.8554,3.1688c2.0218,1.9672 2.957,4.588 2.8809,7.1802c-0.1541,5.245 -4.4049,10.249 -11.7363,10.249c-0.9389,0 -1.7,-0.7611 -1.7,-1.7c0,-0.9389 0.7611,-1.7 1.7,-1.7c5.5461,0 8.2392,-3.5949 8.3378,-6.9489c0.0501,-1.7073 -0.5612,-3.3861 -1.8535,-4.6435c-1.2844,-1.2497 -3.3715,-2.2056 -6.4843,-2.2056z" fill="black"/>
</svg>
