<svg width="50" height="100" viewBox="0 0 50 100" fill="none" xmlns="http://www.w3.org/2000/svg">
<path d="M26.1022,38.2467l-1.133,-0.9163l-1.133,0.9163zM19.4457,56.4772c-0.621,0 -1.1235,-0.4801 -1.1235,-1.0734c0,-0.5932 0.5025,-1.0733 1.1235,-1.0733h11.0454c0.621,0 1.1235,0.4801 1.1235,1.0733c0,0.5933 -0.5025,1.0734 -1.1235,1.0734zM14.9691,49.577c-0.621,0 -1.1235,-0.4801 -1.1235,-1.0734c0,-0.5932 0.5025,-1.0733 1.1235,-1.0733h19.9988c0.621,0 1.1235,0.48 1.1235,1.0733c0,0.5933 -0.5025,1.0734 -1.1235,1.0734zM20.3607,38.2467l3.8691,-3.1251c0.4108,-0.3414 1.0336,-0.356 1.4616,-0.0091l3.8824,3.1342h12.7114c0.621,0 1.1235,0.48 1.1235,1.0733v10.0962l5.0688,4.0925c0.277,0.1972 0.4566,0.5112 0.4566,0.8653v24.526c0,0.5933 -0.5024,1.0734 -1.1234,1.0734h-45.68723c-0.62094,0 -1.12347,-0.4801 -1.12347,-1.0734v-24.526h0.00382c0,-0.3049 0.13565,-0.6061 0.3955,-0.8178l5.12603,-4.1382v-10.0961c0,-0.5933 0.50248,-1.0734 1.12347,-1.0734zM7.12938,58.6385c-0.05351,-0.0274 -0.10318,-0.0566 -0.15094,-0.0913l-3.73149,-2.2398v21.5161h43.44015v-21.5161l-3.7315,2.2398c-0.0477,0.0329 -0.0974,0.0639 -0.1509,0.0913l-17.2417,10.3447c-0.3821,0.23 -0.8559,0.2118 -1.2113,-0.0109zM6.5256,55.7489v-3.5286l-2.50867,2.0244zM43.4086,52.2203v3.5286l2.5086,-1.5042zM41.1616,57.0981v-16.7043h-32.38935v16.7043l16.19635,9.7166l16.1964,-9.7166z" fill="black" stroke="black" stroke-width="0.3"/>
</svg>
