<svg width="42" height="100" viewBox="0 0 42 100" fill="none" xmlns="http://www.w3.org/2000/svg">
<path fill-rule="evenodd" clip-rule="evenodd" d="M14.75,34.947c0.8629,0 1.5625,0.6996 1.5625,1.5625v2.6263c1.3942,-0.0221 2.9434,-0.0221 4.6645,-0.0221h0.046c1.7211,0 3.2703,0 4.6645,0.0221v-2.6263c0,-0.8629 0.6996,-1.5625 1.5625,-1.5625c0.8629,0 1.5625,0.6996 1.5625,1.5625v2.7366c3.1498,0.1975 5.5697,0.7079 7.562,2.1554c1.017,0.7389 1.9113,1.6332 2.6502,2.6502c1.2205,1.6798 1.767,3.6473 2.03,6.0755c0.2578,2.3794 0.2578,5.3786 0.2578,9.2047v0.1182c0,2.4164 0,4.494 -0.0612,6.2796c-0.1337,3.903 -0.5561,6.7717 -2.2266,9.071c-0.7389,1.017 -1.6332,1.9113 -2.6502,2.6502c-2.2993,1.6705 -5.168,2.0929 -9.071,2.2266c-1.786,0.0612 -3.864,0.0612 -6.281,0.0612h-0.1168c-3.8261,0 -6.8253,0 -9.2047,-0.2578c-2.42821,-0.2631 -4.39567,-0.8096 -6.07551,-2.03c-1.01697,-0.7389 -1.9113,-1.6332 -2.65017,-2.6502c-1.22048,-1.6798 -1.76697,-3.6473 -2.03005,-6.0755c-0.2578,-2.3795 -0.25778,-5.3786 -0.25777,-9.2047v-0.1886c-0.00002,-3.8261 -0.00003,-6.8253 0.25777,-9.2047c0.26308,-2.4282 0.80957,-4.3957 2.03005,-6.0755c0.73887,-1.017 1.6332,-1.9113 2.65017,-2.6502c1.99233,-1.4475 4.41221,-1.9579 7.56201,-2.1554v-2.7366c0,-0.8629 0.6996,-1.5625 1.5625,-1.5625zM13.1875,42.3788c-2.8376,0.1951 -4.47547,0.6429 -5.72518,1.5509c-0.75167,0.5461 -1.4127,1.2071 -1.95882,1.9588c-0.76893,1.0583 -1.21714,2.413 -1.45141,4.5753c-0.23744,2.1915 -0.23959,5.0216 -0.23959,8.9624c0,3.9408 0.00215,6.7708 0.23959,8.9624c0.23427,2.1623 0.68248,3.5169 1.45141,4.5753c0.54612,0.7516 1.20715,1.4127 1.95882,1.9588c1.05834,0.7689 2.41296,1.2171 4.57528,1.4514c2.1916,0.2374 5.0216,0.2396 8.9624,0.2396c1.7674,0 3.3162,-0.0001 4.6913,-0.0226c0.0091,-0.9888 0.0399,-1.7168 0.1437,-2.3722c0.8118,-5.1258 4.8319,-9.1459 9.9577,-9.9577c0.6554,-0.1038 1.3834,-0.1346 2.3723,-0.1437c0.0224,-1.3751 0.0225,-2.9239 0.0225,-4.6913c0,-3.9408 -0.0021,-6.7709 -0.2396,-8.9624c-0.2343,-2.1623 -0.6825,-3.517 -1.4514,-4.5753c-0.5461,-0.7517 -1.2071,-1.4127 -1.9588,-1.9588c-1.2497,-0.908 -2.8876,-1.3558 -5.7252,-1.5509v0.3807c0,0.863 -0.6996,1.5625 -1.5625,1.5625c-0.8629,0 -1.5625,-0.6995 -1.5625,-1.5625v-0.4983c-1.3741,-0.0224 -2.9217,-0.0225 -4.6875,-0.0225c-1.7658,0 -3.3134,0.0001 -4.6875,0.0225v0.4983c0,0.863 -0.6996,1.5625 -1.5625,1.5625c-0.8629,0 -1.5625,-0.6995 -1.5625,-1.5625zM38.047,67.2445c-0.8436,0.0097 -1.3383,0.0355 -1.7654,0.1032c-3.7887,0.6001 -6.76,3.5714 -7.3601,7.3601c-0.0676,0.4271 -0.0935,0.9217 -0.1032,1.7654c2.834,-0.1954 4.4705,-0.6432 5.7194,-1.5505c0.7517,-0.5461 1.4127,-1.2072 1.9588,-1.9588c0.9074,-1.2489 1.3551,-2.8854 1.5505,-5.7194z" fill="black"/>
<path d="M12.6667,51.0929c0,1.1505 -0.9328,2.0833 -2.0834,2.0833c-1.15056,0 -2.0833,-0.9328 -2.0833,-2.0833c0,-1.1506 0.93274,-2.0834 2.0833,-2.0834c1.1506,0 2.0834,0.9328 2.0834,2.0834z" fill="black"/>
<path d="M12.6667,59.4262c0,1.1506 -0.9328,2.0833 -2.0834,2.0833c-1.15056,0 -2.0833,-0.9327 -2.0833,-2.0833c0,-1.1506 0.93274,-2.0833 2.0833,-2.0833c1.1506,0 2.0834,0.9327 2.0834,2.0833z" fill="black"/>
<path d="M23.0833,51.0929c0,1.1505 -0.9327,2.0833 -2.0833,2.0833c-1.1506,0 -2.0833,-0.9328 -2.0833,-2.0833c0,-1.1506 0.9327,-2.0834 2.0833,-2.0834c1.1506,0 2.0833,0.9328 2.0833,2.0834z" fill="black"/>
<path d="M23.0833,59.4262c0,1.1506 -0.9327,2.0833 -2.0833,2.0833c-1.1506,0 -2.0833,-0.9327 -2.0833,-2.0833c0,-1.1506 0.9327,-2.0833 2.0833,-2.0833c1.1506,0 2.0833,0.9327 2.0833,2.0833z" fill="black"/>
<path d="M23.0833,67.7595c0,1.1506 -0.9327,2.0834 -2.0833,2.0834c-1.1506,0 -2.0833,-0.9328 -2.0833,-2.0834c0,-1.1506 0.9327,-2.0833 2.0833,-2.0833c1.1506,0 2.0833,0.9327 2.0833,2.0833z" fill="black"/>
<path d="M33.5,51.0929c0,1.1505 -0.9327,2.0833 -2.0833,2.0833c-1.1506,0 -2.0834,-0.9328 -2.0834,-2.0833c0,-1.1506 0.9328,-2.0834 2.0834,-2.0834c1.1506,0 2.0833,0.9328 2.0833,2.0834z" fill="black"/>
<path d="M33.5,59.4262c0,1.1506 -0.9327,2.0833 -2.0833,2.0833c-1.1506,0 -2.0834,-0.9327 -2.0834,-2.0833c0,-1.1506 0.9328,-2.0833 2.0834,-2.0833c1.1506,0 2.0833,0.9327 2.0833,2.0833z" fill="black"/>
<path d="M12.6667,67.7595c0,1.1506 -0.9328,2.0834 -2.0834,2.0834c-1.15056,0 -2.0833,-0.9328 -2.0833,-2.0834c0,-1.1506 0.93274,-2.0833 2.0833,-2.0833c1.1506,0 2.0834,0.9327 2.0834,2.0833z" fill="black"/>
</svg>
