<svg width="48" height="101" viewBox="0 0 48 101" fill="none" xmlns="http://www.w3.org/2000/svg">
<path fill-rule="evenodd" clip-rule="evenodd" d="M19.3311,69.4069c8.9377,0 16.1765,-7.2263 16.1765,-16.1321c0,-8.9058 -7.2388,-16.132 -16.1765,-16.132c-8.9377,0 -16.17638,7.2262 -16.17638,16.132c0,8.9058 7.23868,16.1321 16.17638,16.1321zM38.6476,53.2748c0,10.6474 -8.652,19.2721 -19.3165,19.2721c-10.66442,0 -19.31638,-8.6247 -19.31638,-19.2721c0,-10.6474 8.65196,-19.272 19.31638,-19.272c10.6645,0 19.3165,8.6246 19.3165,19.272zM47.0632,78.7138c0.6138,0.6124 0.6151,1.6065 0.0027,2.2204c-0.6123,0.6138 -1.6064,0.6151 -2.2203,0.0027l-8.8732,-8.851c-0.6139,-0.6123 -0.6151,-1.6064 -0.0028,-2.2203c0.6124,-0.6139 1.6065,-0.6151 2.2203,-0.0028z" fill="black"/>
</svg>
