<svg width="65" height="100" viewBox="0 0 65 100" fill="none" xmlns="http://www.w3.org/2000/svg">
<path fill-rule="evenodd" clip-rule="evenodd" d="M42.6563,44.9895c0,5.6091 -4.5471,10.1563 -10.1563,10.1563c-5.6091,0 -10.1562,-4.5472 -10.1562,-10.1563c0,-5.6091 4.5471,-10.1562 10.1562,-10.1562c5.6092,0 10.1563,4.5471 10.1563,10.1562zM32.5,51.0833c3.3655,0 6.0938,-2.7283 6.0938,-6.0938c0,-3.3655 -2.7283,-6.0937 -6.0938,-6.0937c-3.3654,0 -6.0937,2.7282 -6.0937,6.0937c0,3.3655 2.7283,6.0938 6.0937,6.0938z" fill="black"/>
<path fill-rule="evenodd" clip-rule="evenodd" d="M40.625,59.2083c5.6092,0 10.1563,4.5471 10.1563,10.1562c0,5.6091 -4.5471,10.1563 -10.1563,10.1563h-16.25c-5.6091,0 -10.1562,-4.5472 -10.1562,-10.1563c0,-5.6091 4.5471,-10.1562 10.1562,-10.1562zM24.375,75.4583h16.25c3.3655,0 6.0938,-2.7283 6.0938,-6.0938c0,-3.3655 -2.7283,-6.0937 -6.0938,-6.0937h-16.25c-3.3654,0 -6.0937,2.7282 -6.0937,6.0937c0,3.3655 2.7283,6.0938 6.0937,6.0938z" fill="black"/>
<path d="M21.0525,52.2267c0.7112,1.1226 0.3508,2.7121 -0.9702,2.8576c-0.369,0.0406 -0.744,0.0615 -1.1239,0.0615c-5.6092,0 -10.15628,-4.5472 -10.15628,-10.1563c0,-5.6091 4.54708,-10.1562 10.15628,-10.1562c0.3799,0 0.7549,0.0208 1.1239,0.0614c1.321,0.1455 1.6814,1.735 0.9702,2.8576c-0.0192,0.0302 -0.0382,0.0605 -0.0571,0.0908c-0.4272,0.6863 -1.2287,1.0527 -2.037,1.0527c-3.3655,0 -6.0938,2.7282 -6.0938,6.0937c0,3.3655 2.7283,6.0938 6.0938,6.0938c0.8083,0 1.6098,0.3663 2.037,1.0526c0.0189,0.0303 0.0379,0.0606 0.0571,0.0908z" fill="black"/>
<path d="M11.228,76.8124h-0.3946c-5.60917,0 -10.15628,-4.5471 -10.15628,-10.1562c0,-5.6092 4.54711,-10.1563 10.15628,-10.1563h0.3946c1.4597,0 2.2741,1.9522 1.5237,3.2043c-0.3075,0.513 -0.8502,0.8582 -1.4482,0.8582h-0.4701c-3.36551,0 -6.09378,2.7283 -6.09378,6.0938c0,3.3655 2.72827,6.0937 6.09378,6.0937h0.4701c0.598,0 1.1407,0.3453 1.4482,0.8582c0.7504,1.2521 -0.064,3.2043 -1.5237,3.2043z" fill="black"/>
<path d="M44.0047,52.1359c0.4271,-0.6863 1.2287,-1.0526 2.037,-1.0526c3.3655,0 6.0938,-2.7283 6.0938,-6.0938c0,-3.3655 -2.7283,-6.0937 -6.0938,-6.0937c-0.8083,0 -1.6099,-0.3664 -2.037,-1.0527c-0.0189,-0.0303 -0.0379,-0.0606 -0.0571,-0.0908c-0.7112,-1.1226 -0.3508,-2.7121 0.9701,-2.8576c0.3691,-0.0406 0.7441,-0.0614 1.124,-0.0614c5.6092,0 10.1563,4.5471 10.1563,10.1562c0,5.6091 -4.5471,10.1563 -10.1563,10.1563c-0.3799,0 -0.7549,-0.0209 -1.124,-0.0615c-1.3209,-0.1455 -1.6813,-1.735 -0.9701,-2.8576c0.0192,-0.0302 0.0382,-0.0605 0.0571,-0.0908z" fill="black"/>
<path d="M53.6966,72.7499h0.4701c3.3655,0 6.0938,-2.7282 6.0938,-6.0937c0,-3.3655 -2.7283,-6.0938 -6.0938,-6.0938h-0.4701c-0.598,0 -1.1407,-0.3452 -1.4482,-0.8582c-0.7505,-1.2521 0.064,-3.2043 1.5237,-3.2043h0.3946c5.6092,0 10.1563,4.5471 10.1563,10.1563c0,5.6091 -4.5471,10.1562 -10.1563,10.1562h-0.3946c-1.4597,0 -2.2742,-1.9522 -1.5237,-3.2043c0.3075,-0.5129 0.8502,-0.8582 1.4482,-0.8582z" fill="black"/>
</svg>
