<svg width="49" height="101" viewBox="0 0 49 101" fill="none" xmlns="http://www.w3.org/2000/svg">
<path fill-rule="evenodd" clip-rule="evenodd" d="M9.54418,47.3744l13.40472,13.4048v-25.1625c0,-0.8671 0.7029,-1.57 1.57,-1.57c0.8671,0 1.57,0.7029 1.57,1.57v25.1625l13.4047,-13.4048l2.2203,2.2204l-16.0849,16.0848l-1.1101,1.1102l-1.1102,-1.1102l-16.08484,-16.0848zM8.43395,79.0845h32.16975c2.6863,0 4.8639,-2.1777 4.8639,-4.864v-3.2169h3.14v3.2169c0,4.4205 -3.5834,8.004 -8.0039,8.004h-32.16975c-4.42046,0 -8.00395,-3.5835 -8.00395,-8.004v-3.217h3.14v3.217c0,2.6863 2.17766,4.864 4.86395,4.864z" fill="black"/>
</svg>
