<svg width="43" height="100" viewBox="0 0 43 100" fill="none" xmlns="http://www.w3.org/2000/svg">
<path d="M27.75,34.947c0.8629,0 1.5625,0.6996 1.5625,1.5625c0,0.863 -0.6996,1.5625 -1.5625,1.5625h-16.6667c-0.8629,0 -1.56247,-0.6995 -1.56247,-1.5625c0,-0.8629 0.69957,-1.5625 1.56247,-1.5625z" fill="black"/>
<path d="M20.9792,56.3012c0,0.8629 0.6995,1.5625 1.5625,1.5625h3.125c0.8629,0 1.5625,0.6995 1.5625,1.5625c0,0.8629 -0.6996,1.5625 -1.5625,1.5625h-3.125c-2.5889,0 -4.6875,-2.0987 -4.6875,-4.6875v-7.2917c0,-0.8629 0.6995,-1.5625 1.5625,-1.5625c0.8629,0 1.5625,0.6996 1.5625,1.5625z" fill="black"/>
<path fill-rule="evenodd" clip-rule="evenodd" d="M31.1051,40.4193c2.254,1.1485 4.0866,2.9811 5.2351,5.2351c0.6986,1.3711 1.0087,2.8859 1.1585,4.7196c0.1205,1.4747 0.1423,3.2443 0.1463,5.4064h2.605c0.8629,0 1.5625,0.6995 1.5625,1.5625c0,0.8629 -0.6996,1.5625 -1.5625,1.5625h-2.605c-0.004,2.162 -0.0258,3.9316 -0.1463,5.4063c-0.1498,1.8337 -0.4599,3.3485 -1.1585,4.7196c-1.1485,2.254 -2.9811,4.0866 -5.2351,5.2351c-1.3711,0.6986 -2.8859,1.0087 -4.7196,1.1585c-1.8006,0.1471 -4.0412,0.1471 -6.8989,0.1471h-0.14c-2.8577,0 -5.0981,0 -6.8988,-0.1471c-1.8336,-0.1498 -3.34846,-0.4599 -4.71956,-1.1585c-2.25403,-1.1485 -4.08661,-2.9811 -5.23509,-5.2351c-0.69861,-1.3711 -1.00873,-2.8859 -1.15854,-4.7196c-0.14713,-1.8007 -0.14712,-4.0412 -0.14711,-6.8989v-0.1399c-0.00001,-2.8577 -0.00002,-5.0982 0.14711,-6.8989c0.14981,-1.8337 0.45993,-3.3485 1.15854,-4.7196c1.14848,-2.254 2.98106,-4.0866 5.23509,-5.2351c1.3711,-0.6986 2.88596,-1.0087 4.71956,-1.1585c1.8007,-0.1471 4.0412,-0.1471 6.899,-0.1471h0.1398c2.8577,0 5.0982,0 6.8989,0.1471c1.8337,0.1498 3.3485,0.4599 4.7196,1.1585zM5.27755,47.0731c-0.43674,0.8572 -0.6943,1.915 -0.82832,3.5553c-0.13551,1.6587 -0.13673,3.7717 -0.13673,6.7145c0,2.9427 0.00122,5.0557 0.13673,6.7144c0.13402,1.6403 0.39158,2.6981 0.82832,3.5553c0.84888,1.666 2.20339,3.0205 3.86941,3.8694c0.85714,0.4367 1.91494,0.6943 3.55534,0.8283c1.6586,0.1355 3.7716,0.1367 6.7144,0.1367c2.9427,0 5.0558,-0.0012 6.7144,-0.1367c1.6403,-0.134 2.6981,-0.3916 3.5553,-0.8283c1.666,-0.8489 3.0205,-2.2034 3.8694,-3.8694c0.4367,-0.8572 0.6943,-1.915 0.8283,-3.5553c0.1355,-1.6587 0.1367,-3.7717 0.1367,-6.7144c0,-2.9428 -0.0012,-5.0558 -0.1367,-6.7145c-0.134,-1.6403 -0.3916,-2.6981 -0.8283,-3.5553c-0.8489,-1.666 -2.2034,-3.0205 -3.8694,-3.8694c-0.8572,-0.4367 -1.915,-0.6943 -3.5553,-0.8283c-1.6586,-0.1355 -3.7717,-0.1367 -6.7144,-0.1367c-2.9428,0 -5.0558,0.0012 -6.7144,0.1367c-1.6404,0.134 -2.6982,0.3916 -3.55534,0.8283c-1.66602,0.8489 -3.02053,2.2034 -3.86941,3.8694z" fill="black"/>
<path d="M27.75,76.6137c0.8629,0 1.5625,0.6995 1.5625,1.5625c0,0.8629 -0.6996,1.5625 -1.5625,1.5625h-16.6667c-0.8629,0 -1.56247,-0.6996 -1.56247,-1.5625c0,-0.863 0.69957,-1.5625 1.56247,-1.5625z" fill="black"/>
</svg>
