<svg width="57" height="101" viewBox="0 0 57 101" fill="none" xmlns="http://www.w3.org/2000/svg">
<path d="M55.6271,51.5831c-0.0006,3.7985 -1.5462,7.3689 -4.3496,10.0534l-22.3431,21.3868c-0.0251,0.0245 -0.0519,0.0472 -0.0794,0.0688c-0.0207,0.0164 -0.042,0.0304 -0.0634,0.045c-0.0073,0.0047 -0.014,0.0099 -0.0213,0.0146c-0.0263,0.0169 -0.0531,0.0321 -0.0805,0.0461l-0.0092,0.0053c-0.0274,0.0146 -0.0561,0.0268 -0.0848,0.0385l-0.0097,0.0041c-0.0275,0.0111 -0.0555,0.0198 -0.0836,0.0286c-0.0049,0.0017 -0.0098,0.0035 -0.0153,0.0052c-0.0268,0.0076 -0.053,0.0135 -0.0799,0.0193c-0.0079,0.0018 -0.0152,0.0041 -0.0225,0.0053c-0.0257,0.0046 -0.0513,0.0082 -0.0775,0.0111c-0.0085,0.0012 -0.0177,0.0029 -0.0262,0.0035c-0.0348,0.0029 -0.0702,0.0046 -0.105,0.0046c-0.0353,0 -0.0701,-0.0011 -0.1048,-0.0046c-0.0086,-0.0006 -0.0178,-0.0023 -0.0263,-0.0035c-0.0256,-0.0029 -0.0518,-0.0065 -0.0774,-0.0111c-0.008,-0.0012 -0.0153,-0.0035 -0.0226,-0.0053c-0.0269,-0.0058 -0.0537,-0.0117 -0.0799,-0.0193c-0.0049,-0.0017 -0.0104,-0.0035 -0.0153,-0.0052c-0.028,-0.0088 -0.0561,-0.0175 -0.0835,-0.0286l-0.0092,-0.0041c-0.0287,-0.0117 -0.0573,-0.0245 -0.0854,-0.0385l-0.0085,-0.0047c-0.0281,-0.0146 -0.0549,-0.0298 -0.0818,-0.0467c-0.0061,-0.0035 -0.0116,-0.0082 -0.0177,-0.0123c-0.0231,-0.0152 -0.0457,-0.0304 -0.0671,-0.0473c-0.0195,-0.0152 -0.0378,-0.0315 -0.0561,-0.0485c-0.0079,-0.007 -0.0158,-0.0128 -0.0231,-0.0198l-19.49034,-18.656l-2.85282,-2.7307c-5.79164,-5.5437 -5.79164,-14.5637 0,-20.1074c2.80463,-2.6846 6.53456,-4.1641 10.50306,-4.1647c3.9684,0.0006 7.6984,1.4795 10.5036,4.1647l2.094,2.0044l2.094,-2.0044c2.8059,-2.6858 6.5359,-4.1647 10.5037,-4.1647c3.9678,0 7.6978,1.4789 10.5036,4.1647c2.8047,2.6845 4.3503,6.2548 4.3509,10.0534z" fill="black"/>
</svg>
