<svg width="60" height="100" viewBox="0 0 60 100" fill="none" xmlns="http://www.w3.org/2000/svg">
<path fill-rule="evenodd" clip-rule="evenodd" d="M36.3763,34.809l-4.8968,4.7309l-0.959,0.9265l-0.9721,-0.9127l-5.0658,-4.7565c-4.5186,-4.1427 -11.1218,-2.892 -15.14141,1.2259c-1.97567,2.024 -3.20599,4.6494 -3.1853,7.4748c0.02053,2.8038 1.27486,5.9931 4.62211,9.1618l0.014,0.0132l0.0135,0.0135c5.7437,5.7437 10.9197,10.9903 14.6597,14.8009c1.8701,1.9054 3.3813,3.4519 4.4251,4.5223c0.2282,0.2339 0.434,0.4451 0.6164,0.6323c0.2523,-0.2591 0.5489,-0.5635 0.886,-0.9094c1.2032,-1.2341 2.9229,-2.995 4.9895,-5.1028c4.1328,-4.2153 9.6543,-9.8193 15.2065,-15.3716c2.4987,-2.4988 3.3906,-5.2793 3.2418,-7.905c-0.1508,-2.6608 -1.3786,-5.2598 -3.2904,-7.296c-3.8269,-4.0759 -10.023,-5.6083 -15.1638,-1.2481zM29.5019,75.6246l-0.0003,-0.0003l-0.0012,-0.0013l-0.005,-0.0051l-0.0199,-0.0205l-0.0792,-0.0815l-0.3114,-0.3203c-0.2739,-0.2816 -0.6781,-0.6969 -1.1991,-1.2311c-1.042,-1.0685 -2.5512,-2.6129 -4.4189,-4.5159c-3.7328,-3.8032 -8.8973,-9.0382 -14.62791,-14.7689c-3.78577,-3.5895 -5.45597,-7.4667 -5.48303,-11.1613c-0.02693,-3.6777 1.57615,-6.9869 3.98156,-9.4512c4.74088,-4.8568 13.08658,-6.7975 19.04438,-1.3274l0.0058,0.0053l0.0057,0.0054l4.0996,3.8492l3.9696,-3.8351l0.031,-0.03l0.0328,-0.028c6.5675,-5.6064 14.473,-3.4461 19.055,1.434c2.2967,2.446 3.8516,5.6477 4.0446,9.0541c0.195,3.4414 -1.0084,6.9943 -4.0574,10.0433c-5.5433,5.5434 -11.0578,11.1403 -15.187,15.3519c-2.0645,2.1057 -3.7824,3.8647 -4.984,5.0973c-0.6008,0.6162 -1.0725,1.1008 -1.394,1.4313l-0.3669,0.3773l-0.0939,0.0967l-0.0237,0.0244l-0.0059,0.0061l-0.0015,0.0015l-0.0004,0.0004c0,0.0001 -0.0001,0.0001 -1.0046,-0.9751c-1.0047,0.9749 -1.0048,0.9749 -1.0048,0.9748zM31.5112,75.625l-1.0048,1.035l-1.0044,-1.0353l1.0047,-0.9749z" fill="black"/>
</svg>
