<svg width="57" height="101" viewBox="0 0 57 101" fill="none" xmlns="http://www.w3.org/2000/svg">
<path d="M28.3803,80.77c-0.08,-0.028 -0.2082,-0.1001 -0.2803,-0.1562c-0.2483,-0.1922 -22.47944,-21.5783 -22.87192,-22.0069c-2.06652,-2.2307 -3.28801,-4.8779 -3.65246,-7.8976c-0.09612,-0.789 -0.09612,-2.2908 0,-3.0637c0.4085,-3.3041 1.82623,-6.1636 4.20113,-8.4544c2.35888,-2.2787 5.32245,-3.6764 8.67855,-4.089c0.7249,-0.0881 2.7194,-0.1001 3.3642,-0.02c2.5751,0.3164 4.7017,1.0693 6.6681,2.3589c1.0212,0.6728 1.5098,1.0853 3.0918,2.6072c0.6207,0.6007 1.1414,1.0893 1.1534,1.0893c0.032,0 0.3003,-0.2523 1.626,-1.5218c0.4966,-0.4766 1.1053,-1.0333 1.3536,-1.2335c3.4082,-2.7834 7.8536,-3.9128 12.299,-3.1279c3.7686,0.6648 7.2329,2.8475 9.4235,5.9353c1.4498,2.0425 2.2868,4.3092 2.5151,6.7923c0.0681,0.7569 0.028,2.3789 -0.0801,3.0877c-0.4205,2.8355 -1.5459,5.2264 -3.4842,7.4051c-0.4806,0.5446 -23.0081,22.1711 -23.1763,22.2512c-0.2003,0.0961 -0.6248,0.1201 -0.8291,0.044zM39.8143,69.272c6.0634,-5.8271 11.2377,-10.8132 11.498,-11.0816c2.3229,-2.3829 3.6084,-5.3865 3.7006,-8.6265c0.036,-1.2936 -0.0681,-2.2748 -0.3685,-3.4923c-0.7689,-3.0877 -2.7113,-5.8231 -5.4667,-7.6934c-1.8342,-1.2455 -3.9728,-2.0344 -6.2876,-2.3148c-0.7049,-0.0841 -2.439,-0.0961 -3.1038,-0.02c-2.8715,0.3324 -5.3746,1.3737 -7.4972,3.1198c-0.2323,0.1882 -1.1214,1.0172 -1.9784,1.8423l-1.5579,1.5018l-0.2523,-0.2323c-0.1362,-0.1282 -0.833,-0.793 -1.5499,-1.4818c-0.7169,-0.6888 -1.4938,-1.4137 -1.7301,-1.61c-2.0665,-1.7141 -4.6096,-2.7954 -7.341,-3.1118c-4.3172,-0.5006 -8.57444,0.9612 -11.59413,3.9849c-2.12259,2.1186 -3.39615,4.7458 -3.74858,7.7094c-0.07609,0.6648 -0.0881,2.0425 -0.02002,2.6633c0.22427,2.0224 0.84904,3.8527 1.8863,5.5147c0.58071,0.9291 1.12538,1.606 1.99043,2.463c1.25754,1.2495 22.3032,21.4542 22.3473,21.4582c0.024,0 5.0061,-4.7658 11.0735,-10.5929z" fill="black" stroke="black" stroke-width="2"/>
</svg>
