<svg width="52" height="100" viewBox="0 0 52 100" fill="none" xmlns="http://www.w3.org/2000/svg">
<path fill-rule="evenodd" clip-rule="evenodd" d="M45.8545,37.6728c1.0983,0.8128 2.0642,1.7966 2.8622,2.9152c0.3478,0.4877 0.648,1.0017 0.9062,1.5474c0.833,1.7608 1.2043,3.8033 1.3851,6.2416c0.1795,2.4196 0.1795,5.3894 0.1795,9.0566v0.1703c0,4.2086 0,7.5077 -0.2784,10.125c-0.2841,2.671 -0.8743,4.8352 -2.1924,6.6831c-0.798,1.1186 -1.7639,2.1024 -2.8622,2.9152c-1.8143,1.3425 -3.9391,1.9436 -6.5616,2.233c-2.5697,0.2836 -5.8089,0.2836 -9.941,0.2836h-4.6019c-0.932,0 -1.6875,-0.7696 -1.6875,-1.7188c0,-0.9492 0.7555,-1.7188 1.6875,-1.7188h4.5c4.256,0 7.3125,-0.0023 9.6794,-0.2635c2.3353,-0.2577 3.7983,-0.7507 4.9413,-1.5965c0.8118,-0.6008 1.5257,-1.3279 2.1155,-2.1548c0.8305,-1.1641 1.3145,-2.6542 1.5675,-5.0328c0.2565,-2.4107 0.2588,-5.5237 0.2588,-9.8586c0,-3.7473 -0.0011,-6.5887 -0.1699,-8.8641c-0.0719,-0.9696 -0.1728,-1.8068 -0.3087,-2.5407l-3.3222,3.3837c-3.6725,3.7406 -6.5506,6.6721 -9.0982,8.6518c-2.6076,2.0263 -5.0662,3.2169 -7.9135,3.2169c-2.8473,0 -5.3059,-1.1906 -7.9135,-3.2169c-2.5476,-1.9798 -5.4257,-4.9112 -9.09832,-8.6519l-3.32207,-3.3836c-0.13593,0.7339 -0.23682,1.5711 -0.30874,2.5407c-0.16877,2.2754 -0.16987,5.1168 -0.16987,8.8641c0,0.9492 -0.75552,1.7188 -1.6875,1.7188c-0.93198,0 -1.6875,-0.7696 -1.6875,-1.7188v-0.0666c-0.00001,-3.6671 -0.00001,-6.6368 0.17946,-9.0564c0.18086,-2.4383 0.55214,-4.4808 1.38514,-6.2416c0.25816,-0.5457 0.55837,-1.0597 0.90624,-1.5474c0.79798,-1.1186 1.76386,-2.1024 2.86219,-2.9152c1.81423,-1.3425 3.93907,-1.9436 6.56157,-2.233c2.5698,-0.2836 5.8089,-0.2836 9.9411,-0.2835h4.7036c4.1322,-0.0001 7.3713,-0.0001 9.9411,0.2835c2.6225,0.2894 4.7473,0.8905 6.5616,2.233zM21.1337,55.3978c2.3074,1.7931 4.0537,2.5123 5.8663,2.5123c1.8126,0 3.5589,-0.7192 5.8663,-2.5123c2.3463,-1.8234 5.0666,-4.5889 8.8504,-8.4427l4.2687,-4.3477c-0.5897,-0.8264 -1.3033,-1.5531 -2.1147,-2.1536c-1.143,-0.8458 -2.606,-1.3388 -4.9413,-1.5965c-2.3669,-0.2612 -5.4234,-0.2635 -9.6794,-0.2635h-4.5c-4.256,0 -7.3125,0.0023 -9.6794,0.2635c-2.3353,0.2577 -3.7983,0.7507 -4.9413,1.5965c-0.81141,0.6005 -1.52503,1.3272 -2.11468,2.1536l4.26868,4.3477c3.7838,3.8538 6.5041,6.6193 8.8504,8.4427z" fill="black"/>
<path d="M9,64.9479c0.93198,0 1.6875,0.7695 1.6875,1.7188c0,0.9492 -0.75552,1.7187 -1.6875,1.7187h-6.75c-0.93198,0 -1.6875,-0.7695 -1.6875,-1.7187c0,-0.9493 0.75552,-1.7188 1.6875,-1.7188z" fill="black"/>
<path d="M15.75,71.8229c0.932,0 1.6875,0.7695 1.6875,1.7188c0,0.9492 -0.7555,1.7187 -1.6875,1.7187h-13.5c-0.93198,0 -1.6875,-0.7695 -1.6875,-1.7187c0,-0.9493 0.75552,-1.7188 1.6875,-1.7188z" fill="black"/>
</svg>
