<svg width="96" height="128" viewBox="0 0 96 128" fill="none" xmlns="http://www.w3.org/2000/svg">
<path fill-rule="evenodd" clip-rule="evenodd" d="M23,24.1932c-4.4116,2.7765 -8.3291,6.266 -11.591,10.3068h11.2101c0.1255,-0.2315 0.2525,-0.4613 0.3809,-0.6893v2.109c-3.8824,7.5438 -6.27,16.8987 -6.4842,27.0803h6.4842v1h-6.4983c-0.0011,0.1665 -0.0017,0.3331 -0.0017,0.5c0,10.5006 2.3112,20.1856 6.2061,28h0.2939v2.6893c-0.3113,-0.5528 -0.6143,-1.116 -0.9087,-1.6893h-10.6823c3.2619,4.0408 7.1794,7.53 11.591,10.307v1.177c-13.79396,-8.4326 -23,-23.6332 -23,-40.984c0,-17.3508 9.20604,-32.5514 23,-40.9837zM23.01,33.7929c0.6175,-1.0955 1.2675,-2.1499 1.9479,-3.1598c4.4278,-6.5725 10.1643,-11.2906 16.6161,-13.1975c-6.7499,0.9229 -13.0435,3.2789 -18.564,6.7513v-1.1767c7.2792,-4.4474 15.8353,-7.0102 24.99,-7.0102v1.5c-0.7671,0 -1.5282,0.0411 -2.2823,0.1219c-1.048,0.5735 -2.0851,1.5433 -3.0934,2.908c-1.7298,2.3412 -3.3086,5.7609 -4.6432,10.0317c-0.389,1.2449 -0.7566,2.5599 -1.1007,3.9384h11.1196v1h-11.3624c-1.8106,7.6651 -2.9112,17.1699 -2.9781,27.5h14.3405v1h-14.3438c0,10.7163 1.1125,20.5881 2.9814,28.5h11.3624v1h-11.1196c0.3441,1.3785 0.7117,2.6935 1.1007,3.9384c1.3346,4.2706 2.9134,7.6906 4.6432,10.0316c1.737,2.351 3.5593,3.53 5.3757,3.53v1.5c-2.1825,0 -4.3118,-0.317 -6.3687,-0.919c-6.7509,-0.895 -13.0589,-3.193 -18.6213,-6.591v-1.177c4.2712,2.687 9.0051,4.705 14.0551,5.908c-4.6183,-2.432 -8.741,-6.357 -12.1072,-11.3541c-0.6804,-1.0099 -1.3304,-2.0643 -1.9479,-3.1598v-2.7071h12.6004c-1.8581,-7.9652 -2.9542,-17.8293 -2.9542,-28.5h-9.6462v-1h9.6495c0.0661,-10.2866 1.151,-19.7843 2.9509,-27.5h-12.3919c-0.07,0.1328 -0.1395,0.2663 -0.2085,0.4003zM48.01,111c1.8131,-0.004 3.6319,-1.183 5.3657,-3.53c1.7298,-2.341 3.3086,-5.761 4.6432,-10.0316c0.389,-1.2449 0.7566,-2.5599 1.1007,-3.9384h-11.1096v-1h11.3524c1.8689,-7.9119 2.9814,-17.7837 2.9814,-28.5h-14.3338v-1h14.3305c-0.0669,-10.3301 -1.1675,-19.8349 -2.9781,-27.5h-11.3524v-1h11.1096c-0.3441,-1.3785 -0.7117,-2.6935 -1.1007,-3.9384c-1.3346,-4.2708 -2.9134,-7.6905 -4.6432,-10.0317c-1.0083,-1.3647 -2.0454,-2.3345 -3.0934,-2.908c-0.7508,-0.0805 -1.5086,-0.1215 -2.2723,-0.1219v-1.5c9.1551,0.0019 17.7113,2.5668 24.99,7.0163v1.1769c-5.5229,-3.4759 -11.82,-5.8342 -18.574,-6.7576c6.4518,1.9069 12.1883,6.625 16.6161,13.1975c0.6841,1.0154 1.3374,2.0757 1.9579,3.1776v2.109c-0.0723,-0.1405 -0.1452,-0.2804 -0.2185,-0.4197h-12.3919c1.7999,7.7157 2.8848,17.2134 2.9509,27.5h9.6595v1h-9.6562c0,10.6707 -1.0961,20.5348 -2.9542,28.5h12.6104v2.6893c-0.6205,1.1019 -1.2738,2.1622 -1.9579,3.1776c-3.3662,4.9971 -7.4889,8.9221 -12.1072,11.3541c5.054,-1.204 9.7913,-3.224 14.0651,-5.914v1.177c-5.5648,3.401 -11.8763,5.702 -18.6313,6.597c-2.0537,0.602 -4.1797,0.918 -6.3587,0.919zM83,31.1516v1.479c-2.9158,-3.2511 -6.2779,-6.0936 -9.99,-8.4311v-1.1771c3.6875,2.2554 7.0469,4.9946 9.99,8.1292zM96,64c0,12.7023 -4.934,24.2522 -12.99,32.8377v-1.4794c0.5427,-0.6055 1.0699,-1.2251 1.581,-1.8583h-1.581v-1h2.3662c6.0377,-7.906 9.6238,-17.7842 9.6238,-28.5h-11.99v-1h11.9796c-0.2156,-10.33 -3.764,-19.8406 -9.6134,-27.5h-2.3662v-1h1.581c-0.5111,-0.6332 -1.0383,-1.2528 -1.581,-1.8583v-1.4794c8.056,8.5855 12.99,20.1354 12.99,32.8377zM73.01,104.978v-1.178c3.7121,-2.337 7.0742,-5.1795 9.99,-8.4306v1.479c-2.9431,3.1346 -6.3025,5.8736 -9.99,8.1296zM73.01,92.5h0.2839c3.8949,-7.8144 6.2061,-17.4994 6.2061,-28c0,-0.1669 -0.0006,-0.3335 -0.0017,-0.5h-6.4883v-1h6.4742c-0.214,-10.1729 -2.5977,-19.5204 -6.4742,-27.0609v-2.1107c0.125,0.2222 0.2486,0.4461 0.3709,0.6716h9.6191v1h-9.0913c3.9501,7.6912 6.3618,17.1917 6.5758,27.5h2.5155v1h-2.5017c0.0011,0.1665 0.0017,0.3331 0.0017,0.5c0,10.4402 -2.2538,20.1129 -6.0914,28h8.5914v1h-9.0913c-0.2913,0.5672 -0.591,1.1245 -0.8987,1.6715zM35.8501,34.5c0.3659,-1.4852 0.7588,-2.9 1.1765,-4.2367c1.3516,-4.3251 2.9714,-7.8616 4.7934,-10.3276c0.5574,-0.7545 1.1401,-1.4167 1.746,-1.9723c-6.8638,1.4467 -13.048,6.2062 -17.7787,13.2284c-0.7099,1.0538 -1.3865,2.1578 -2.0272,3.3082zM1.01043,63h14.50507c0.214,-10.3083 2.6257,-19.8088 6.5758,-27.5h-11.4675c-5.84938,7.6594 -9.39776,17.17 -9.61337,27.5zM70.2127,31.1918c-4.7307,-7.0222 -10.9149,-11.7817 -17.7787,-13.2284c0.6059,0.5556 1.1886,1.2178 1.746,1.9723c1.822,2.466 3.4418,6.0025 4.7934,10.3276c0.4177,1.3367 0.8106,2.7515 1.1765,4.2367h12.09c-0.6407,-1.1504 -1.3173,-2.2544 -2.0272,-3.3082zM15.5017,64h-14.5017c0,10.7158 3.58615,20.594 9.6238,28.5h10.9676c-3.8376,-7.8871 -6.0914,-17.5598 -6.0914,-28c0,-0.1669 0.0006,-0.3335 0.0017,-0.5zM35.8501,93.5h-12.6316c0.7974,1.5138 1.6555,2.9526 2.5688,4.3082c4.3317,6.4298 9.8822,10.9628 16.0572,12.7928c0.919,0.12 1.8464,0.213 2.7814,0.28c-0.9926,-0.674 -1.9304,-1.632 -2.8059,-2.817c-1.822,-2.466 -3.4418,-6.002 -4.7934,-10.3273c-0.4177,-1.3367 -0.8106,-2.7515 -1.1765,-4.2367zM54.18,108.064c-0.8755,1.185 -1.8133,2.143 -2.8059,2.817c0.935,-0.067 1.8624,-0.16 2.7814,-0.28c6.175,-1.83 11.7255,-6.363 16.0572,-12.7928c0.9133,-1.3556 1.7714,-2.7944 2.5688,-4.3082h-12.6316c-0.3659,1.4852 -0.7588,2.9 -1.1765,4.2367c-1.3516,4.3253 -2.9714,7.8613 -4.7934,10.3273z" fill="black"/>
</svg>
