<svg width="96" height="128" viewBox="0 0 96 128" fill="none" xmlns="http://www.w3.org/2000/svg">
<path fill-rule="evenodd" clip-rule="evenodd" d="M23 23.0163C9.20604 31.4486 0 46.6492 0 64C0 81.3508 9.20604 96.5514 23 104.984V103.807C18.5884 101.03 14.6709 97.5408 11.409 93.5H22.0913C22.3857 94.0733 22.6887 94.6365 23 95.1893V92.5H22.7061C18.8112 84.6856 16.5 75.0006 16.5 64.5C16.5 64.3331 16.5006 64.1665 16.5017 64H23V63H16.5158C16.73 52.8184 19.1176 43.4635 23 35.9197V33.8107C22.8716 34.0387 22.7446 34.2685 22.6191 34.5H11.409C14.6709 30.4592 18.5884 26.9697 23 24.1932V23.0163ZM23.01 33.7929C23.6275 32.6974 24.2775 31.643 24.9579 30.6331C29.3857 24.0606 35.1222 19.3425 41.574 17.4356C34.8241 18.3585 28.5305 20.7145 23.01 24.1869V23.0102C30.2892 18.5628 38.8453 16 48 16V17.5C47.2329 17.5 46.4718 17.5411 45.7177 17.6219C44.6697 18.1954 43.6326 19.1652 42.6243 20.5299C40.8945 22.8711 39.3157 26.2908 37.9811 30.5616C37.5921 31.8065 37.2245 33.1215 36.8804 34.5H48V35.5H36.6376C34.827 43.1651 33.7264 52.6699 33.6595 63H48V64H33.6562C33.6562 74.7163 34.7687 84.5881 36.6376 92.5H48V93.5H36.8804C37.2245 94.8785 37.5921 96.1935 37.9811 97.4384C39.3157 101.709 40.8945 105.129 42.6243 107.47C44.3613 109.821 46.1836 111 48 111V112.5C45.8175 112.5 43.6882 112.183 41.6313 111.581C34.8804 110.686 28.5724 108.388 23.01 104.99V103.813C27.2812 106.5 32.0151 108.518 37.0651 109.721C32.4468 107.289 28.3241 103.364 24.9579 98.3669C24.2775 97.357 23.6275 96.3026 23.01 95.2071V92.5H35.6104C33.7523 84.5348 32.6562 74.6707 32.6562 64H23.01V63H32.6595C32.7256 52.7134 33.8105 43.2157 35.6104 35.5H23.2185C23.1485 35.6328 23.079 35.7663 23.01 35.9003V33.7929ZM48.01 112.5C50.189 112.499 52.315 112.183 54.3687 111.581C61.1237 110.686 67.4352 108.385 73 104.984V103.807C68.7262 106.497 63.9889 108.517 58.9349 109.721C63.5532 107.289 67.6759 103.364 71.0421 98.3669C71.7262 97.3515 72.3795 96.2912 73 95.1893V92.5H60.3896C62.2477 84.5348 63.3438 74.6707 63.3438 64H73V63H63.3405C63.2744 52.7134 62.1895 43.2157 60.3896 35.5H72.7815C72.8548 35.6393 72.9277 35.7792 73 35.9197V33.8107C72.3795 32.7088 71.7262 31.6485 71.0421 30.6331C66.6143 24.0606 60.8778 19.3425 54.426 17.4356C61.18 18.359 67.4771 20.7173 73 24.1932V23.0163C65.7213 18.5668 57.1651 16.0019 48.01 16V17.5C48.7737 17.5004 49.5315 17.5414 50.2823 17.6219C51.3303 18.1954 52.3674 19.1652 53.3757 20.5299C55.1055 22.8711 56.6843 26.2908 58.0189 30.5616C58.4079 31.8065 58.7755 33.1215 59.1196 34.5H48.01V35.5H59.3624C61.173 43.1651 62.2736 52.6699 62.3405 63H48.01V64H62.3438C62.3438 74.7163 61.2313 84.5881 59.3624 92.5H48.01V93.5H59.1196C58.7755 94.8785 58.4079 96.1935 58.0189 97.4384C56.6843 101.709 55.1055 105.129 53.3757 107.47C51.6419 109.817 49.8231 110.996 48.01 111V112.5ZM73.01 23.0224V24.1995C76.7221 26.537 80.0842 29.3795 83 32.6306V31.1516C80.0569 28.017 76.6975 25.2778 73.01 23.0224ZM83.01 31.1623V32.6417C83.5527 33.2472 84.0799 33.8668 84.591 34.5H83.01V35.5H85.3762C91.2256 43.1594 94.774 52.67 94.9896 63H83.01V64H95C95 74.7158 91.4139 84.594 85.3762 92.5H83.01V93.5H84.591C84.0799 94.1332 83.5527 94.7528 83.01 95.3583V96.8377C91.066 88.2522 96 76.7023 96 64C96 51.2977 91.066 39.7478 83.01 31.1623ZM83 96.8484V95.3694C80.0842 98.6205 76.7221 101.463 73.01 103.8V104.978C76.6975 102.722 80.0569 99.983 83 96.8484ZM73.01 95.1715C73.3177 94.6245 73.6174 94.0672 73.9087 93.5H83V92.5H74.4086C78.2462 84.6129 80.5 74.9402 80.5 64.5C80.5 64.3331 80.4994 64.1665 80.4983 64H83V63H80.4845C80.2705 52.6917 77.8588 43.1912 73.9087 35.5H83V34.5H73.3809C73.2586 34.2745 73.135 34.0506 73.01 33.8284V35.9391C76.8865 43.4796 79.2702 52.8271 79.4842 63H73.01V64H79.4983C79.4994 64.1665 79.5 64.3331 79.5 64.5C79.5 75.0006 77.1888 84.6856 73.2939 92.5H73.01V95.1715ZM35.8501 34.5C36.216 33.0148 36.6089 31.6 37.0266 30.2633C38.3782 25.9382 39.998 22.4017 41.82 19.9357C42.3774 19.1812 42.9601 18.519 43.566 17.9634C36.7022 19.4101 30.518 24.1696 25.7873 31.1918C25.0774 32.2456 24.4008 33.3496 23.7601 34.5H35.8501ZM10.6238 35.5H22.0913C18.1412 43.1912 15.7295 52.6917 15.5155 63H1.01043C1.22604 52.67 4.77442 43.1594 10.6238 35.5ZM72.2399 34.5H60.1499C59.784 33.0148 59.3911 31.6 58.9734 30.2633C57.6218 25.9382 56.002 22.4017 54.18 19.9357C53.6226 19.1812 53.0399 18.519 52.434 17.9634C59.2978 19.4101 65.482 24.1696 70.2127 31.1918C70.9226 32.2456 71.5992 33.3496 72.2399 34.5ZM15.5 64.5C15.5 74.9402 17.7538 84.6129 21.5914 92.5H10.6238C4.58615 84.594 1 74.7158 1 64H15.5017C15.5006 64.1665 15.5 64.3331 15.5 64.5ZM35.8501 93.5H23.2185C24.0159 95.0138 24.874 96.4526 25.7873 97.8082C30.119 104.238 35.6695 108.771 41.8445 110.601C42.7635 110.721 43.6909 110.814 44.6259 110.881C43.6333 110.207 42.6955 109.249 41.82 108.064C39.998 105.598 38.3782 102.062 37.0266 97.7367C36.6089 96.4 36.216 94.9852 35.8501 93.5ZM58.9734 97.7367C59.3911 96.4 59.784 94.9852 60.1499 93.5H72.7815C71.9841 95.0138 71.126 96.4526 70.2127 97.8082C65.881 104.238 60.3305 108.771 54.1555 110.601C53.2365 110.721 52.3091 110.814 51.3741 110.881C52.3667 110.207 53.3045 109.249 54.18 108.064C56.002 105.598 57.6218 102.062 58.9734 97.7367Z" fill="black"/>
</svg>
