<svg width="126" height="128" viewBox="0 0 126 128" fill="none" xmlns="http://www.w3.org/2000/svg">
<path fill-rule="evenodd" clip-rule="evenodd" d="M47.99,18h0.5v1h-0.5h-32.99v76h33h0.5h0.5c6.1368,0 11.3832,3.8123 13.5,9.198v-71.198v-0.5c0,-7.4558 -6.0442,-13.5 -13.5,-13.5h-0.5v-1h0.5c6.6973,0 12.3341,4.5405 14,10.7112c1.6659,-6.1707 7.3027,-10.7112 14,-10.7112h0.5v1h-0.5c-7.4558,0 -13.5,6.0442 -13.5,13.5v0.5v71.198c2.1168,-5.3857 7.3632,-9.198 13.5,-9.198h0.5h0.5h33v-76h-32.99h-0.5v-1h0.5h33.49h0.5v0.5v77v0.5h-0.5h-33.5h-0.5h-0.5c-7.2885,0 -13.2279,5.776 -13.4909,13h61.4909v-77.9995l-7.857,0.0074l-0.5,0.0005l-0.001,-1l0.5,-0.0005l8.358,-0.0079l0.5,-0.0005v0.5005v79v0.5h-0.5h-62h-0.5h-0.5h-62h-0.5v-0.5v-79v-0.5005l0.50047,0.0005l8.35715,0.0079l0.5,0.0005l-0.00094,1l-0.5,-0.0005l-7.85668,-0.0074v77.9995h61.4909c-0.263,-7.224 -6.2025,-13 -13.4909,-13h-0.5h-0.5h-33.5h-0.5v-0.5v-77v-0.5h0.5zM46.9999,31h-0.5h-20h-0.5v-1h0.5h20h0.5zM46.9999,41h-0.5h-20h-0.5v-1h0.5h20h0.5zM46.4999,50h0.5v1h-0.5h-20h-0.5v-1h0.5zM46.9999,61h-0.5h-20h-0.5v-1h0.5h20h0.5zM46.254,69.373h0.5v1h-0.5h-19.6826h-0.5v-1h0.5zM46.754,80.2143h-0.5h-19.6826h-0.5v-1h0.5h19.6826h0.5zM79.0001,30h0.5h20h0.4999v1h-0.4999h-20h-0.5zM79.0001,40h0.5h20h0.4999v1h-0.4999h-20h-0.5zM99.5001,50h0.4999v1h-0.4999h-20h-0.5v-1h0.5zM79.0001,60h0.5h20h0.4999v1h-0.4999h-20h-0.5zM99.4286,69.373h0.5v1h-0.5h-19.6826h-0.5v-1h0.5zM79.246,79.2143h0.5h19.6826h0.5v1h-0.5h-19.6826h-0.5z" fill="black"/>
</svg>
