<svg width="126" height="128" viewBox="0 0 126 128" fill="none" xmlns="http://www.w3.org/2000/svg">
<path fill-rule="evenodd" clip-rule="evenodd" d="M14.5 18H14V18.5V95.5V96H14.5H48H48.5H49C56.2884 96 62.2279 101.776 62.4909 109H1V31.0005L8.85668 31.0079L9.35668 31.0084L9.35762 30.0084L8.85762 30.0079L0.500474 30L0 29.9995V30.5V109.5V110H0.5H62.5H63H63.5H125.5H126V109.5V30.5V29.9995L125.5 30L117.142 30.0079L116.642 30.0084L116.643 31.0084L117.143 31.0079L125 31.0005V109H63.5091C63.7721 101.776 69.7115 96 77 96H77.5H78H111.5H112V95.5V18.5V18H111.5H78.01H77.51V19H78.01H111V95H78H77.5H77C70.8632 95 65.6168 98.8123 63.5 104.198V33V32.5C63.5 25.0442 69.5442 19 77 19H77.5V18H77C70.3027 18 64.6659 22.5405 63 28.7112C61.3341 22.5405 55.6973 18 49 18H48.5V19H49C56.4558 19 62.5 25.0442 62.5 32.5V33V104.198C60.3832 98.8123 55.1368 95 49 95H48.5H48H15V19H47.99H48.49V18H47.99H14.5ZM46.9999 30H46.4999H26.4999H25.9999V31H26.4999H46.4999H46.9999V30ZM46.9999 40H46.4999H26.4999H25.9999V41H26.4999H46.4999H46.9999V40ZM46.4999 50H46.9999V51H46.4999H26.4999H25.9999V50H26.4999H46.4999ZM46.9999 60H46.4999H26.4999H25.9999V61H26.4999H46.4999H46.9999V60ZM46.254 69.373H46.754V70.373H46.254H26.5714H26.0714V69.373H26.5714H46.254ZM46.754 79.2143H46.254H26.5714H26.0714V80.2143H26.5714H46.254H46.754V79.2143ZM79.0001 30H79.5001H99.5001H100V31H99.5001H79.5001H79.0001V30ZM79.0001 40H79.5001H99.5001H100V41H99.5001H79.5001H79.0001V40ZM79.5001 50H79.0001V51H79.5001H99.5001H100V50H99.5001H79.5001ZM79.0001 60H79.5001H99.5001H100V61H99.5001H79.5001H79.0001V60ZM79.746 69.373H79.246V70.373H79.746H99.4286H99.9286V69.373H99.4286H79.746ZM79.246 79.2143H79.746H99.4286H99.9286V80.2143H99.4286H79.746H79.246V79.2143Z" fill="black"/>
</svg>
