<svg width="119" height="128" viewBox="0 0 119 128" fill="none" xmlns="http://www.w3.org/2000/svg">
<path fill-rule="evenodd" clip-rule="evenodd" d="M59,19h-56c-1.10457,0 -2,0.8954 -2,2v68c0,1.1046 0.89543,2 2,2h56v1h-14.5v11h14.5v1h-25c-1.1046,0 -2,0.895 -2,2v1c0,1.105 0.8954,2 2,2h25v1h-25c-1.6569,0 -3,-1.343 -3,-3v-1c0,-1.657 1.3431,-3 3,-3h9.5v-11h-40.5c-1.65685,0 -3,-1.3431 -3,-3v-68c0,-1.6569 1.34315,-3 3,-3h56zM59,22h-55v63h55v1h-55c-0.55228,0 -1,-0.4477 -1,-1v-63c0,-0.5523 0.44772,-1 1,-1h55zM59.01,22v-1h54.99c0.552,0 1,0.4477 1,1v63c0,0.5523 -0.448,1 -1,1h-54.99v-1h54.99v-63zM59.01,91h56.229c1.105,0 2,-0.8954 2,-2v-68c0,-1.1046 -0.895,-2 -2,-2h-56.229v-1h56.229c1.657,0 3,1.3431 3,3v68c0,1.6569 -1.343,3 -3,3h-40.739v11h9.4999c1.6568,0 3,1.343 3,3v1c0,1.657 -1.3432,3 -3,3h-24.9899v-1h24.9899c1.1046,0 2,-0.895 2,-2v-1c0,-1.105 -0.8954,-2 -2,-2h-24.9899v-1h14.49v-11h-14.49z" fill="black"/>
</svg>
