<svg width="147" height="128" viewBox="0 0 147 128" fill="none" xmlns="http://www.w3.org/2000/svg">
<path fill-rule="evenodd" clip-rule="evenodd" d="M33,19h-30c-1.10457,0 -2,0.8954 -2,2v86c0,1.105 0.89543,2 2,2h16v-6c0,-0.552 0.4477,-1 1,-1h13v1h-13v6h13v1h-13h-17c-1.65686,0 -3,-1.343 -3,-3v-86c0,-1.6569 1.34315,-3 3,-3h30zM33,24h-31v-1h31zM33.01,24v-1h39.99v1zM33,27h-13v4h13v1h-13c-0.5523,0 -1,-0.4477 -1,-1v-4c0,-0.5523 0.4477,-1 1,-1h13zM33.01,27v-1h19.99c0.5523,0 1,0.4477 1,1v4c0,0.5523 -0.4477,1 -1,1h-19.99v-1h19.99v-4zM33,35h-13v30h13v1h-13c-0.5523,0 -1,-0.4477 -1,-1v-30c0,-0.5523 0.4477,-1 1,-1h13zM33.01,35v-1h39.99v1zM73,65v1h-39.99v-1zM113,65v1h-39.99v-1zM113.01,65h14.99v-30h-14.99v-1h14.99c0.552,0 1,0.4477 1,1v30c0,0.5523 -0.448,1 -1,1h-14.99zM113,69h-18v30h18v1h-18c-0.5523,0 -1,-0.4477 -1,-1v-30c0,-0.5523 0.4477,-1 1,-1h18zM113.01,69v-1h14.99c0.552,0 1,0.4477 1,1v30c0,0.5523 -0.448,1 -1,1h-14.99v-1h14.99v-30zM113,103h-39.99v-1h39.99zM113.01,103v-1h14.99c0.552,0 1,0.448 1,1v6h15c1.105,0 2,-0.895 2,-2v-86c0,-1.1046 -0.895,-2 -2,-2h-30.99v-1h30.99c1.657,0 3,1.3431 3,3v86c0,1.657 -1.343,3 -3,3h-16h-14.99v-1h14.99v-6zM113,110h-39.99v-1h39.99zM33.01,110v-1h39.99v1zM33.01,102h39.99v1h-39.99zM33.01,99h19.99v-30h-19.99v-1h19.99c0.5523,0 1,0.4477 1,1v30c0,0.5523 -0.4477,1 -1,1h-19.99zM33,69h-13v30h13v1h-13c-0.5523,0 -1,-0.4477 -1,-1v-30c0,-0.5523 0.4477,-1 1,-1h13zM73.01,99h17.99v-30h-17.99v-1h17.99c0.5523,0 1,0.4477 1,1v30c0,0.5523 -0.4477,1 -1,1h-17.99zM73,99v1h-16c-0.5523,0 -1,-0.4477 -1,-1v-30c0,-0.5523 0.4477,-1 1,-1h16v1h-16v30zM113,19h-39.99v-1h39.99zM113,24h-39.99v-1h39.99zM113.01,23h31.99v1h-31.99zM113,34v1h-39.99v-1zM73,19h-39.99v-1h39.99zM2,21c0,-0.5523 0.44772,-1 1,-1c0.55228,0 1,0.4477 1,1c0,0.5523 -0.44772,1 -1,1c-0.55228,0 -1,-0.4477 -1,-1zM7,21c0,0.5523 -0.44772,1 -1,1c-0.55228,0 -1,-0.4477 -1,-1c0,-0.5523 0.44772,-1 1,-1c0.55228,0 1,0.4477 1,1zM8,21c0,-0.5523 0.44771,-1 1,-1c0.55228,0 1,0.4477 1,1c0,0.5523 -0.44772,1 -1,1c-0.55229,0 -1,-0.4477 -1,-1z" fill="black"/>
</svg>
