<svg width="92" height="128" viewBox="0 0 92 128" fill="none" xmlns="http://www.w3.org/2000/svg">
<path fill-rule="evenodd" clip-rule="evenodd" d="M0 18.0057H0.5H29.5005H30.0005V18.5057V109.506V110.006H29.5005H0.5H0V109.506V18.5057V18.0057ZM1 19.0057V109.006H29.0005V19.0057H1ZM30.9998 18.0057H31.4998H60.5003H61.0003V18.5057V109.506V110.006H60.5003H31.4998H30.9998V109.506V18.5057V18.0057ZM31.9998 19.0057V109.006H60.0003V19.0057H31.9998ZM62.4995 18.0057H61.9995V18.5057V109.506V110.006H62.4995H91.5H92V109.506V18.5057V18.0057H91.5H62.4995ZM62.9995 109.006V19.0057H91V109.006H62.9995Z" fill="black"/>
</svg>
