<svg width="92" height="128" viewBox="0 0 92 128" fill="none" xmlns="http://www.w3.org/2000/svg">
<path fill-rule="evenodd" clip-rule="evenodd" d="M0,18h0.5h29.0007h0.5v0.5v29.0007v0.5h-0.5h-29.0007h-0.5v-0.5v-29.0007zM1,19v28.0007h28.0007v-28.0007zM31,18h0.5h29.0007h0.5v0.5v29.0007v0.5h-0.5h-29.0007h-0.5v-0.5v-29.0007zM32,19v28.0007h28.0007v-28.0007zM91.5007,18h0.5v0.5v29.0007v0.5h-0.5h-29.0007h-0.5v-0.5v-29.0007v-0.5h0.5zM91.0007,47.0007v-28.0007h-28.0007v28.0007zM0,49h0.5h29.0007h0.5v0.5v29.0007v0.5h-0.5h-29.0007h-0.5v-0.5v-29.0007zM1,50v28.0007h28.0007v-28.0007zM60.5007,49h0.5v0.5v29.0007v0.5h-0.5h-29.0007h-0.5v-0.5v-29.0007v-0.5h0.5zM60.0007,78.0007v-28.0007h-28.0007v28.0007zM62,49h0.5h29.0007h0.5v0.5v29.0007v0.5h-0.5h-29.0007h-0.5v-0.5v-29.0007zM63,50v28.0007h28.0007v-28.0007zM29.5007,80h0.5v0.5v29.001v0.5h-0.5h-29.0007h-0.5v-0.5v-29.001v-0.5h0.5zM29.0007,109.001v-28.001h-28.0007v28.001zM31,80h0.5h29.0007h0.5v0.5v29.001v0.5h-0.5h-29.0007h-0.5v-0.5v-29.001zM32,81v28.001h28.0007v-28.001zM91.5007,80h0.5v0.5v29.001v0.5h-0.5h-29.0007h-0.5v-0.5v-29.001v-0.5h0.5zM91.0007,109.001v-28.001h-28.0007v28.001z" fill="black"/>
</svg>
