<svg width="92" height="128" viewBox="0 0 92 128" fill="none" xmlns="http://www.w3.org/2000/svg">
<path fill-rule="evenodd" clip-rule="evenodd" d="M92 18.0057L92 18.5057L92 47.5062L92 48.0062L91.5 48.0062L0.500182 48.0062L0.000181794 48.0062L0.000181816 47.5062L0.000183084 18.5057L0.000183105 18.0057L0.500183 18.0057L91.5 18.0057L92 18.0057ZM91 19.0057L1.00018 19.0057L1.00018 47.0062L91 47.0062L91 19.0057ZM92 49.0055L92 49.5055L92 78.506L92 79.006L91.5 79.006L0.50018 79.006L0.000180439 79.006L0.000180461 78.506L0.000181729 49.5055L0.00018175 49.0055L0.500182 49.0055L91.5 49.0055L92 49.0055ZM91 50.0055L1.00018 50.0055L1.00018 78.006L91 78.006L91 50.0055ZM92 80.5052L92 80.0052L91.5 80.0052L0.50018 80.0052L0.000180395 80.0052L0.000180374 80.5052L0.000179106 109.506L0.000179084 110.006L0.500179 110.006L91.5 110.006L92 110.006L92 109.506L92 80.5052ZM1.00018 81.0052L91 81.0052L91 109.006L1.00018 109.006L1.00018 81.0052Z" fill="black"/>
</svg>
