<svg width="96" height="128" viewBox="0 0 96 128" fill="none" xmlns="http://www.w3.org/2000/svg">
<path fill-rule="evenodd" clip-rule="evenodd" d="M1 64C1 38.0426 22.0426 17 48 17C73.9574 17 95 38.0426 95 64C95 89.9574 73.9574 111 48 111C22.0426 111 1 89.9574 1 64ZM48 16C21.4903 16 0 37.4903 0 64C0 90.5097 21.4903 112 48 112C74.5097 112 96 90.5097 96 64C96 37.4903 74.5097 16 48 16ZM68.258 64.4283L68.9689 64L68.258 63.5717L33.758 42.7871L33 42.3304V43.2154L33 84.7846V85.6696L33.758 85.2129L68.258 64.4283ZM67.0311 64L34 83.8997L34 44.1003L67.0311 64Z" fill="black"/>
</svg>
