<svg width="96" height="128" viewBox="0 0 96 128" fill="none" xmlns="http://www.w3.org/2000/svg">
<path fill-rule="evenodd" clip-rule="evenodd" d="M48,111c25.9574,0 47,-21.0426 47,-47c0,-25.9574 -21.0426,-47 -47,-47c-25.9574,0 -47,21.0426 -47,47c0,25.9574 21.0426,47 47,47zM96,64c0,26.5097 -21.4903,48 -48,48c-26.5097,0 -48,-21.4903 -48,-48c0,-26.5097 21.4903,-48 48,-48c26.5097,0 48,21.4903 48,48zM33.758,85.2129l-0.758,0.4567v-0.885v-41.5692v-0.885l0.758,0.4567l34.5,20.7846l0.7109,0.4283l-0.7109,0.4283zM34,44.1003v39.7994l33.0311,-19.8997z" fill="black"/>
</svg>
