<svg width="23" height="24" viewBox="0 0 23 24" fill="none" xmlns="http://www.w3.org/2000/svg">
<path fill-rule="evenodd" clip-rule="evenodd" d="M3.5 3H3V3.5V17.5V18H3.5H8.5C9.88071 18 11 19.1193 11 20.5H12C12 19.1193 13.1193 18 14.5 18H19.5H20V17.5V3.5V3H19.5H14.51V4H19V17H14.5C13.5207 17 12.6353 17.4022 12 18.0505V6.5C12 5.11929 13.1193 4 14.5 4V3C13.2268 3 12.1124 3.67979 11.5 4.69621C10.8876 3.67979 9.77316 3 8.5 3V4C9.88071 4 11 5.11929 11 6.5V18.0505C10.3647 17.4022 9.47934 17 8.5 17H4V4H8.49V3H3.5ZM0 20.5V5H1V20H9V21H0.5H0V20.5ZM23 20.5V5H22V20H14V21H22.5H23V20.5ZM9 7H6V6H9V7ZM6 11H9V10H6V11ZM9 15H6V14H9V15ZM14 7H17V6H14V7ZM17 11H14V10H17V11ZM14 15H17V14H14V15Z" fill="black"/>
</svg>
