<svg width="16" height="24" viewBox="0 0 16 24" fill="none" xmlns="http://www.w3.org/2000/svg">
<path fill-rule="evenodd" clip-rule="evenodd" d="M1.12901,7.25446c0.00018,2.03155 0.62314,4.56574 1.89287,7.10474c1.26972,2.5389 2.92369,4.5575 4.54903,5.7763c1.65209,1.2388 3.13619,1.561 4.17219,1.0429l1.2298,-0.615l-2.2364,-4.472l-1.22982,0.6151c-0.81634,0.4082 -1.76016,0.0675 -2.53611,-0.5144c-0.80271,-0.6019 -1.5769,-1.5618 -2.15991,-2.7275c-0.58302,-1.1658 -0.88658,-2.361 -0.88667,-3.3643c-0.00008,-0.96991 0.29344,-1.92946 1.10978,-2.33772l1.22978,-0.61503l-2.23645,-4.47194l-1.22978,0.61503c-1.036,0.51811 -1.66849,1.89885 -1.66831,3.96382zM9.05939,15.8121l1.67701,-0.8387l0.4472,-0.2236l0.2236,0.4472l2.6837,5.3663l0.2237,0.4472l-0.4472,0.2236l-1.677,0.8387c-1.5573,0.7788 -3.47225,0.1729 -5.21943,-1.1373c-1.77392,-1.3302 -3.51937,-3.4814 -4.84348,-6.1291c-1.32411,-2.6476 -1.99829,-5.33458 -1.99848,-7.55185c-0.00019,-2.18383 0.66374,-4.0795 2.22101,-4.8583l1.67698,-0.83867l0.4472,-0.22365l0.22364,0.4472l2.68375,5.36633l0.22364,0.44719l-0.44719,0.22365l-1.67698,0.83867c-0.29506,0.14756 -0.55714,0.59218 -0.55707,1.44323c0.00007,0.8176 0.25242,1.86 0.78105,2.9171c0.52863,1.057 1.21134,1.8843 1.86546,2.3748c0.68087,0.5105 1.19382,0.5675 1.48889,0.42z" fill="black"/>
</svg>
