<svg width="23" height="24" viewBox="0 0 23 24" fill="none" xmlns="http://www.w3.org/2000/svg">
<path fill-rule="evenodd" clip-rule="evenodd" d="M8.49,3v1h-4.49v13h4.5c0.97934,0 1.8647,0.4022 2.5,1.0505v-11.5505c0,-1.38071 -1.11929,-2.5 -2.5,-2.5v-1c1.27316,0 2.3876,0.67979 3,1.69621c0.6124,-1.01642 1.7268,-1.69621 3,-1.69621v1c-1.3807,0 -2.5,1.11929 -2.5,2.5v11.5505c0.6353,-0.6483 1.5207,-1.0505 2.5,-1.0505h4.5v-13h-4.49v-1h4.99h0.5v0.5v14v0.5h-0.5h-5c-1.3807,0 -2.5,1.1193 -2.5,2.5h-1c0,-1.3807 -1.11929,-2.5 -2.5,-2.5h-5h-0.5v-0.5v-14v-0.5h0.5zM0,20.5v-15.5h1v15h8v1h-8.5h-0.5zM23,21h-0.5h-8.5v-1h8v-15h1v15.5zM9,7h-3v-1h3zM6,10h3v1h-3zM9,15h-3v-1h3zM14,6h3v1h-3zM17,11h-3v-1h3zM14,14h3v1h-3z" fill="black"/>
</svg>
