<svg width="20" height="24" viewBox="0 0 20 24" fill="none" xmlns="http://www.w3.org/2000/svg">
<path fill-rule="evenodd" clip-rule="evenodd" d="M9.50621,3.91034c-4.69442,0 -8.5,3.80558 -8.5,8.49996c0,4.6945 3.80558,8.5 8.5,8.5c1.37829,0 2.67999,-0.328 3.83119,-0.9103h-3.34189v-1h4.88009c0.3723,-0.3037 0.7184,-0.6383 1.0343,-1h-5.91439v-1h6.66629c0.2053,-0.3193 0.3897,-0.6533 0.5515,-1h-7.21779v-1h7.60899c0.1039,-0.3252 0.1888,-0.659 0.2533,-1h-7.86229v-1h7.99059c0.0133,-0.1948 0.0201,-0.3914 0.0201,-0.5897c0,-0.1375 -0.0033,-0.2743 -0.0097,-0.4103h-8.00099v-1h7.89419c-0.0568,-0.3406 -0.134,-0.6744 -0.2301,-1h-7.6596v-0.99999h7.2944c-0.1517,-0.34599 -0.3258,-0.67993 -0.5204,-1h-6.774v-1h6.0623c-0.2763,-0.33444 -0.5777,-0.64737 -0.9013,-0.93593h-5.16549v-1h3.78929c-1.2567,-0.73348 -2.7186,-1.15374 -4.27859,-1.15374zM0.00621,12.4103c0,-5.24667 4.2533,-9.49996 9.5,-9.49996c5.24669,0 9.49999,4.25329 9.49999,9.49996c0,5.2467 -4.2533,9.5 -9.49999,9.5c-5.2467,0 -9.5,-4.2533 -9.5,-9.5z" fill="black"/>
</svg>
