<svg width="21" height="24" viewBox="0 0 21 24" fill="none" xmlns="http://www.w3.org/2000/svg">
<path fill-rule="evenodd" clip-rule="evenodd" d="M19.625,12c0,-4.90153 -3.9735,-8.875 -8.875,-8.875c-4.90153,0 -8.875,3.97347 -8.875,8.875c0,4.9015 3.97347,8.875 8.875,8.875c4.9015,0 8.875,-3.9735 8.875,-8.875zM10.75,2.125c5.4538,0 9.875,4.42119 9.875,9.875c0,5.4538 -4.4212,9.875 -9.875,9.875c-5.45381,0 -9.875,-4.4212 -9.875,-9.875c0,-5.45381 4.42119,-9.875 9.875,-9.875zM10.7454,9.4246l0.3254,-0.37962l0.7592,0.65079l-0.3254,0.37963l-1.97106,2.2996l1.97106,2.2996l0.3254,0.3796l-0.7592,0.6508l-0.3254,-0.3796l-2.25003,-2.625l-0.27891,-0.3254l0.27891,-0.3254z" fill="black"/>
</svg>
