<svg width="21" height="24" viewBox="0 0 21 24" fill="none" xmlns="http://www.w3.org/2000/svg">
<path fill-rule="evenodd" clip-rule="evenodd" d="M1.875 12C1.875 7.09847 5.84847 3.125 10.75 3.125C15.6515 3.125 19.625 7.09847 19.625 12C19.625 16.9015 15.6515 20.875 10.75 20.875C5.84847 20.875 1.875 16.9015 1.875 12ZM10.75 2.125C5.29619 2.125 0.875 6.54619 0.875 12C0.875 17.4538 5.29619 21.875 10.75 21.875C16.2038 21.875 20.625 17.4538 20.625 12C20.625 6.54619 16.2038 2.125 10.75 2.125ZM10.7546 9.4246L10.4292 9.04498L9.66998 9.69577L9.99537 10.0754L11.9665 12.375L9.99537 14.6746L9.66998 15.0542L10.4292 15.705L10.7546 15.3254L13.0046 12.7004L13.2835 12.375L13.0046 12.0496L10.7546 9.4246Z" fill="black"/>
</svg>
