<svg width="20" height="24" viewBox="0 0 20 24" fill="none" xmlns="http://www.w3.org/2000/svg">
<path d="M9.875,2.125c5.4538,0 9.875,4.42119 9.875,9.875c0,5.4538 -4.4212,9.875 -9.875,9.875c-5.45381,0 -9.875,-4.4212 -9.875,-9.875c0,-5.45381 4.42119,-9.875 9.875,-9.875zM9.875,3.125c-4.90153,0 -8.875,3.97347 -8.875,8.875c0,4.9015 3.97347,8.875 8.875,8.875c4.9015,0 8.875,-3.9735 8.875,-8.875c0,-4.90153 -3.9735,-8.875 -8.875,-8.875zM9.87988,9.4248l2.25002,2.625l0.2783,0.3252l-0.2783,0.3252l-2.25002,2.625l-0.32519,0.3799l-0.75977,-0.6504l0.3252,-0.3799l1.97068,-2.2998l-1.97068,-2.2998l-0.3252,-0.37989l0.75977,-0.65039z" fill="black"/>
</svg>
