<svg width="21" height="24" viewBox="0 0 21 24" fill="none" xmlns="http://www.w3.org/2000/svg">
<path fill-rule="evenodd" clip-rule="evenodd" d="M10.75,20.875c4.9015,0 8.875,-3.9735 8.875,-8.875c0,-4.90153 -3.9735,-8.875 -8.875,-8.875c-4.90153,0 -8.875,3.97347 -8.875,8.875c0,4.9015 3.97347,8.875 8.875,8.875zM20.625,12c0,5.4538 -4.4212,9.875 -9.875,9.875c-5.45381,0 -9.875,-4.4212 -9.875,-9.875c0,-5.45381 4.42119,-9.875 9.875,-9.875c5.4538,0 9.875,4.42119 9.875,9.875zM13.0046,12.0496l0.2789,0.3254l-0.2789,0.3254l-2.25,2.625l-0.3254,0.3796l-0.75922,-0.6508l0.32539,-0.3796l1.97113,-2.2996l-1.97113,-2.2996l-0.32539,-0.37963l0.75922,-0.65079l0.3254,0.37962z" fill="black"/>
</svg>
