<svg width="81" height="100" viewBox="0 0 81 100" fill="none" xmlns="http://www.w3.org/2000/svg">
<path d="M63.6873,34.398v10.236c0,0 -3.6197,-0.1501 -6.3065,-0.863c-3.7447,-1.0019 -6.1446,-2.5403 -6.1446,-2.5403c0,0 -1.6659,-1.1019 -1.7912,-1.1769v21.1524c0,1.1757 -0.3112,4.1176 -1.2443,6.5702c-0.818,2.0972 -1.9871,4.0398 -3.4572,5.7447c0,0 -2.3013,2.8529 -6.3437,4.7678c-3.6447,1.7273 -6.854,1.6884 -7.8121,1.7273c0,0 -5.5345,0.2225 -10.5262,-3.1694l-0.025,-0.0251v0.0251c-1.6877,-1.1777 -3.1926,-2.5974 -4.4664,-4.2139c-1.5797,-2.0148 -2.549,-4.4051 -2.7992,-5.1054v-0.0251c-0.3977,-1.1895 -1.2319,-4.0675 -1.1069,-6.8452c0.1989,-4.894 1.8411,-7.9098 2.2764,-8.6602c1.1437,-2.0578 2.6378,-3.9002 4.4151,-5.4444c2.0282,-1.7003 4.3868,-2.9618 6.927,-3.7049c2.5402,-0.7431 5.2068,-0.9517 7.8317,-0.6126l-0.0125,10.4988c-0.8647,-0.2819 -1.7685,-0.425 -2.6779,-0.424c-4.8041,0 -8.6976,3.9172 -8.6976,8.7552c0,4.8376 3.8935,8.7551 8.6976,8.7551c1.4958,0.002 2.9662,-0.386 4.2663,-1.1259c1.2474,-0.7085 2.3016,-1.7131 3.0697,-2.9248c0.7681,-1.2116 1.2268,-2.5937 1.3353,-4.0243c0,-0.0072 0,-0.0148 0,-0.0224c0.0062,-0.03 0.0062,-0.06 0.0062,-0.0887c0.004,-0.0702 0.0103,-0.1302 0.0103,-0.1952c0.0224,-0.5229 0.0224,-1.0517 0.0224,-1.5871v-39.8711h10.311c-0.0162,0 -0.1236,0.9881 0.1365,2.5152h-0.0125c0.3112,1.8399 1.1569,4.4677 3.4206,7.0579c0.9047,0.9783 1.9241,1.8442 3.0355,2.5791c0.3825,0.2489 0.7768,0.4784 1.182,0.6879c2.6366,1.3145 5.2119,1.7147 6.4802,1.5772z" fill="black"/>
</svg>
