<svg width="60" height="100" viewBox="0 0 60 100" fill="none" xmlns="http://www.w3.org/2000/svg">
<path fill-rule="evenodd" clip-rule="evenodd" d="M31.0323,52.8155l16.5615,4.5189c2.3465,0.3176 4.5598,1.2764 6.3964,2.7708c1.8367,1.4943 3.2256,3.4664 4.0137,5.6992h-4.3533c-0.7268,-1.2009 -1.7026,-2.232 -2.8617,-3.0238c-1.1591,-0.7918 -2.4745,-1.3258 -3.8575,-1.5661l-15.7808,-4.7318l-15.6624,3.9747c-2.3277,0.2209 -4.4967,1.2771 -6.10591,2.9733c-1.60924,1.6963 -2.5499,3.9178 -2.64806,6.2538v2.366h18.00477l0.0473,3.9274h-21.8139v-6.2934c0.05441,-3.2167 1.28997,-6.301 3.4714,-8.6657c2.18142,-2.3647 5.1563,-3.8445 8.3582,-4.1576zM20.5889,43.067c-0.5315,-1.4198 -0.7697,-2.9327 -0.7001,-4.4471c0,-0.1664 -0.0486,-0.4917 -0.1099,-0.9014c-0.1042,-0.6971 -0.245,-1.6387 -0.245,-2.4582c-0.327,-1.6491 -0.5561,-3.316 -0.6861,-4.9922c0,-5.5362 5.4653,-10.2681 12.2319,-10.2681c6.7665,0 12.2555,4.7319 12.2555,10.2681c-0.1088,1.6745 -0.3142,3.3413 -0.6152,4.9922l-0.0207,0.1427c-0.1854,1.2737 -0.4051,2.7836 -0.4051,3.2169c0.0696,1.5144 -0.1686,3.0273 -0.7002,4.4471c-0.5316,1.4198 -1.3455,2.7171 -2.3926,3.8135c-1.0472,1.0963 -2.3057,1.969 -3.6996,2.5652c-1.3939,0.5962 -2.8943,0.9036 -4.4103,0.9036c-1.5161,0 -3.0164,-0.3074 -4.4103,-0.9036c-1.3939,-0.5962 -2.6525,-1.4689 -3.6996,-2.5652c-1.0471,-1.0964 -1.8611,-2.3937 -2.3927,-3.8135zM39.5497,30.2681c0,-3.5725 -3.7382,-6.4826 -8.47,-6.4826c-4.6609,0 -8.4464,2.9101 -8.4937,6.4826c0,0.7318 0.2702,2.5652 0.4989,4.117c0.0153,0.1038 0.0304,0.2064 0.0452,0.3073c0.242,1.2984 0.4079,2.6098 0.4969,3.9275c-0.0571,1.0093 0.0925,2.0195 0.4395,2.969c0.347,0.9495 0.8841,1.8182 1.5784,2.5528c0.6944,0.7347 1.5314,1.32 2.4597,1.72c0.9284,0.4 1.9287,0.6063 2.9396,0.6063c1.0108,0 2.0111,-0.2063 2.9395,-0.6063c0.9284,-0.4 1.7654,-0.9853 2.4597,-1.72c0.6944,-0.7346 1.2315,-1.6033 1.5784,-2.5528c0.347,-0.9495 0.4966,-1.9597 0.4396,-2.969c0.105,-1.3173 0.2787,-2.6283 0.5205,-3.9275c0.2664,-1.4638 0.4559,-2.9406 0.5678,-4.4243zM30.7248,69.1878h4.1167c0.9069,-0.0536 1.8058,0.1961 2.5552,0.7097c0.3204,0.2752 0.571,0.6223 0.7314,1.013c0.1604,0.3907 0.226,0.8138 0.1913,1.2347c-0.0212,0.384 -0.1357,0.7571 -0.3336,1.0869c-0.1979,0.3298 -0.4732,0.6064 -0.802,0.8058c0.4342,0.2238 0.8074,0.55 1.0871,0.9505c0.2797,0.4005 0.4576,0.8631 0.5182,1.3479c0.0606,0.4847 0.0021,0.9769 -0.1705,1.4339c-0.1725,0.457 -0.4539,0.8651 -0.8197,1.1888c-0.7826,0.585 -1.7451,0.8779 -2.7208,0.8281h-4.3533zM32.7358,73.4937h1.4905c0.4955,0.0312 0.9891,-0.084 1.4196,-0.3312c0.1732,-0.0997 0.3156,-0.2452 0.4116,-0.4204c0.096,-0.1753 0.1418,-0.3736 0.1326,-0.5733c0.0194,-0.1882 -0.0096,-0.3782 -0.0841,-0.5521c-0.0745,-0.1738 -0.1922,-0.3258 -0.3418,-0.4416c-0.3662,-0.2325 -0.7978,-0.3404 -1.2303,-0.3075h-1.7981zM32.6885,78.1073h2.1766c0.4721,0.0298 0.9399,-0.1039 1.325,-0.3785c0.1557,-0.1236 0.2799,-0.2825 0.3621,-0.4635c0.0823,-0.181 0.1204,-0.3789 0.111,-0.5776c0.0161,-0.2109 -0.016,-0.4228 -0.0939,-0.6195c-0.0779,-0.1968 -0.1995,-0.3733 -0.3556,-0.5161c-0.3194,-0.2797 -0.7352,-0.424 -1.1593,-0.4022h-2.3659zM44.0923,69.1878v10.5993h-2.0111v-10.5993zM57.2942,71.6483c0.4212,0.8611 0.632,1.8098 0.6151,2.7682c0.0554,0.9896 -0.1229,1.9784 -0.5205,2.8864c-0.4274,0.8086 -1.0649,1.4869 -1.8454,1.9637c-0.8255,0.4823 -1.7648,0.7355 -2.7208,0.7335c-0.9743,0.0283 -1.9358,-0.2265 -2.7682,-0.7335c-0.775,-0.469 -1.399,-1.1505 -1.7981,-1.9637c-0.4136,-0.881 -0.628,-1.8422 -0.628,-2.8155c0,-0.9732 0.2144,-1.9345 0.628,-2.8154c0.4081,-0.8284 1.0496,-1.5192 1.8454,-1.9874c0.7742,-0.464 1.6533,-0.7244 2.5552,-0.7571c0.999,-0.0216 1.9836,0.241 2.8392,0.7571c0.7839,0.458 1.4107,1.1426 1.7981,1.9637zM51.0718,77.7288c0.4782,0.3311 1.0513,0.4972 1.6325,0.4731c0.5498,0.0048 1.0902,-0.1426 1.5615,-0.4258c0.5005,-0.31 0.8962,-0.7634 1.1356,-1.3013c0.2941,-0.6783 0.4316,-1.4142 0.4022,-2.153c0.0118,-0.6661 -0.1172,-1.3272 -0.3785,-1.94c-0.2173,-0.5429 -0.587,-1.0113 -1.0647,-1.3486c-0.4782,-0.3122 -1.0377,-0.4768 -1.6088,-0.4732c-0.5558,0.0001 -1.0991,0.1648 -1.5615,0.4732c-0.4968,0.335 -0.8901,0.8021 -1.1357,1.3486c-0.291,0.6382 -0.4365,1.3332 -0.4259,2.0347c-0.0142,0.6816 0.1148,1.3587 0.3786,1.9873c0.2113,0.54 0.5828,1.0024 1.0647,1.325z" fill="black"/>
<path d="M47.5674,57.5298l-0.0129,-0.0018l-0.0126,-0.0034l0.0519,-0.1902zM30.9846,52.6241l0.05,-0.0124l0.0496,0.0135l-0.0519,0.1903zM54.1147,59.9522v0l-0.1245,0.153zM58.1899,65.7388l0.0927,0.2628h-0.2787v-0.1972zM53.6506,66.0016h-0.1111l-0.0575,-0.0951l0.1686,-0.1021zM50.6777,62.9434v0l0.1112,-0.1628zM46.8976,61.4088l-0.0116,-0.0021l-0.0112,-0.0033l0.0566,-0.1889zM31.1021,56.2915l0.0529,-0.0134l0.0523,0.0157l-0.0567,0.1889zM15.5367,60.6485l-0.0148,0.0038l-0.0151,0.0014l-0.0186,-0.1963zM9.52532,63.5664v0l-0.14303,-0.1357zM6.73423,69.6845l-0.19716,-0.0082v0.0082zM6.73423,72.2476h-0.19716v-0.1971h0.19716zM24.739,71.8533h0.1948l0.0023,0.1948l-0.1971,0.0024zM24.9834,75.9755l0.0024,0.1996h-0.1995v-0.1972zM2.9724,76.1751h-0.19716v-0.1972h0.19716zM2.9724,69.6845l-0.19716,-0.0033v0.0033zM6.29888,60.8851v0l0.14492,0.1337zM14.8497,57.0525l-0.014,0.0035l-0.0145,0.0014l-0.0192,-0.1962zM19.8888,38.6199l0.1972,0.009v-0.009zM19.5839,37.7476v0l0.195,-0.0291zM19.7273,35.2219l0.0038,0.019v0.0194h-0.1972zM18.6512,30.2834l-0.0006,-0.0076v-0.0077h0.1972zM43.5323,30.2681v0.0128l-0.1971,-0.0128zM42.5249,35.2319l0.001,-0.007l0.1941,0.0354zM42.8944,35.4314v0l-0.1951,-0.0284zM42.2942,38.6199h-0.1974l0.0004,0.009zM35.5018,49.4457l0.0775,0.1813v0zM39.7468,30.2681v0.0075l-0.0005,0.0074l-0.1966,-0.0149zM22.586,30.2681l-0.1972,-0.0026v0.0026zM23.0849,34.3851l0.195,-0.0288v0zM22.9363,34.7286l-0.0014,-0.0075l0.1952,-0.0287zM23.8237,38.6066l0.0008,0.0122l-0.0007,0.0122l-0.1968,-0.0111zM24.2517,41.5212v0l-0.1852,0.0677zM25.7882,44.0063v0l-0.1433,0.1354zM28.0266,46.0427v0l0.078,-0.181zM33.9057,45.6806v0l0.078,0.1811zM38.207,41.6566v0l-0.1852,-0.0677zM38.2645,38.631l-0.0007,-0.0134l0.001,-0.0134l0.1966,0.0157zM39.1758,34.7277l-0.0001,0.0008l-0.1938,-0.0361zM35.0781,79.7871l0.01,-0.1971h-0.01zM30.7248,79.9843h-0.1972v-0.1972h0.1972zM37.9296,79.1067l-0.0061,0.0054l-0.0066,0.0049l-0.118,-0.158zM38.6186,77.7702l-0.1844,-0.0696v0zM38.9847,76.3118v0l-0.1956,0.0245zM38.2709,74.9884l-0.1616,0.1129v0zM37.0935,74.2132l-0.3131,-0.1613l0.3011,-0.1826l0.1023,0.1686zM37.9858,73.2321l0.1691,0.1014v0zM38.1225,72.1343l0.0003,-0.0053l0.1966,0.0162zM37.5082,69.7349l0.0088,0.0061l0.0081,0.007l-0.1284,0.1495zM34.8531,69.3846l-0.0116,0.0007v-0.1975zM30.5276,69.1878v-0.1972h0.1972v0.1972zM34.5488,71.0642l-0.0074,0.0005h-0.0075v-0.1971zM32.5386,70.8676v-0.1972h0.1972v0.1972zM35.8699,71.0087l0.0077,0.0049l0.0072,0.0056l-0.1206,0.1559zM36.2872,71.5391v0l-0.1812,0.0776zM35.9931,72.178l-0.0007,-0.0147l0.0015,-0.0147l0.1962,0.0202zM36.2304,72.8368v0l-0.1729,-0.0947zM35.7443,73.3334l-0.0002,0.0001l-0.0982,-0.171zM34.2263,73.2966h0.0124l-0.0124,0.1971zM32.7358,73.6909h-0.1972v-0.1972h0.1972zM35.0645,75.3468l-0.0101,0.0005v-0.1974zM32.4913,75.1499v-0.1972h0.1972v0.1972zM36.3436,75.4038l0.0033,0.0028l-0.1332,0.1455zM36.5693,76.0682l-0.1833,0.0725v0zM36.4663,76.697l-0.0006,-0.0121l0.001,-0.0121l0.1965,0.0149zM36.5522,77.2653l-0.1795,-0.0816v0zM36.3126,77.8832l-0.0079,0.0063l-0.1146,-0.1607zM34.8651,77.9101h0.0125l-0.0125,0.1972zM32.6885,78.3045h-0.1972v-0.1972h0.1972zM42.0812,79.9843h-0.1971v-0.1972h0.1971zM41.8841,69.1878v-0.1972h0.1971v0.1972zM44.2894,79.7871v0.1972h-0.1971v-0.1972zM44.0923,68.9906h0.1971v0.1972h-0.1971zM52.6569,68.9275l-0.0042,-0.1971l-0.0029,0.0001zM55.3966,69.8548l-0.0024,-0.0014l0.1019,-0.1688zM50.2031,69.8537l-0.0014,0.0008l-0.1,-0.1699zM48.0778,71.5882l0.0016,-0.0034l0.1769,0.0872zM48.0793,77.3897l-0.0015,-0.003l0.1785,-0.0838zM50.1565,79.0979l0.0005,0.0003l-0.1026,0.1684zM52.8168,79.803l0.0062,-0.0002l-0.0004,0.1973zM55.6462,79.4349l-0.0033,0.002l-0.0995,-0.1703zM57.5694,77.382l-0.0029,0.0066l-0.0034,0.0064l-0.1743,-0.0921zM57.7125,74.4275l-0.0005,-0.0073l0.0002,-0.0072l0.1971,0.0035zM57.1171,71.735l-0.0013,-0.0026l0.1784,-0.0841zM49.8257,74.4135l0.0001,0.0071l-0.1973,-0.0041zM50.1889,76.3276l0.0019,0.0044l-0.1837,0.0718zM50.2343,72.4626l-0.0005,0.001l-0.1794,-0.0818zM51.0798,70.8697l0.0009,-0.0006l0.1094,0.1641zM52.7516,70.56v0.1972h0.0012zM54.4682,70.8681l0.006,0.0039l-0.1138,0.1612zM55.2437,72.4591l-0.0017,-0.0041l0.1831,-0.0732zM55.6066,74.3297l-0.0004,-0.0114l0.1974,0.0035zM55.5823,76.5532l-0.0007,0.0018l-0.1802,-0.0802zM54.3696,77.9437l-0.0023,0.0014l-0.1015,-0.169zM52.6961,78.005l0.0099,-0.0005l-0.0017,0.1974zM51.1814,77.5649l0.0026,0.0017l-0.1122,0.1622zM47.5419,57.5246l-16.5615,-4.5189l0.1038,-0.3805l16.5615,4.519zM53.8658,60.2581c-1.8085,-1.4715 -3.9879,-2.4156 -6.2984,-2.7283l0.0529,-0.3908c2.3824,0.3225 4.6296,1.296 6.4944,2.8132zM57.818,65.87c-0.7761,-2.1985 -2.1436,-4.1404 -3.9522,-5.6119l0.2489,-0.3059c1.8648,1.5173 3.2749,3.5196 4.0752,5.7866zM53.6506,65.6073h4.3533v0.3943h-4.3533zM50.9001,62.6178c1.1824,0.8077 2.1778,1.8595 2.9192,3.0845l-0.3373,0.2042c-0.7123,-1.1768 -1.6685,-2.1872 -2.8043,-2.9631zM46.9651,61.0203c1.4108,0.2451 2.7526,0.7898 3.935,1.5975l-0.2224,0.3256c-1.1359,-0.7759 -2.4248,-1.2992 -3.7801,-1.5346zM31.2073,56.2938l15.7807,4.7319l-0.1132,0.3777l-15.7808,-4.7319zM15.4397,60.2663l15.6624,-3.9748l0.097,0.3823l-15.6624,3.9747zM9.23926,63.295c1.64204,-1.7308 3.85514,-2.8085 6.23024,-3.0339l0.0373,0.3926c-2.2802,0.2164 -4.405,1.2511 -5.98148,2.9127zM6.53724,69.6763c0.10016,-2.3837 1.05999,-4.6505 2.70202,-6.3813l0.28606,0.2714c-1.57645,1.6617 -2.49795,3.838 -2.59411,6.1264zM6.53707,72.0505v-2.366h0.39432v2.366zM24.739,72.2476h-18.00477v-0.3943h18.00477zM24.5891,75.9803l-0.0473,-3.9275l0.3943,-0.0047l0.0473,3.9274zM2.9724,75.7808h21.8139v0.3943h-21.8139zM3.16956,69.6845v6.2934h-0.39432v-6.2934zM6.58871,61.1525c-2.14861,2.3291 -3.36559,5.367 -3.41918,8.5354l-0.39427,-0.0067c0.05523,-3.2651 1.30938,-6.3959 3.52362,-8.7961zM14.8212,57.0574c-3.1537,0.3084 -6.08387,1.766 -8.23249,4.0951l-0.28983,-0.2674c2.21424,-2.4002 5.23392,-3.9023 8.48402,-4.2201zM31.08,53.0068l-16.2303,4.0457l-0.0953,-0.3826l16.2302,-4.0458zM20.0858,38.6289c-0.0684,1.4879 0.1656,2.9741 0.6878,4.369l-0.3693,0.1383c-0.5409,-1.4448 -0.7833,-2.9843 -0.7125,-4.5254zM19.9739,37.6893c0.0598,0.4001 0.1121,0.7453 0.1121,0.9306h-0.3944c0,-0.1476 -0.045,-0.4529 -0.1077,-0.8723zM19.7311,35.2603c0,0.8022 0.1381,1.7288 0.2428,2.429l-0.39,0.0583c-0.1037,-0.694 -0.2472,-1.6505 -0.2472,-2.4873zM19.0444,30.2529c0.1293,1.6684 0.3574,3.3276 0.6829,4.969l-0.3868,0.0767c-0.3285,-1.6567 -0.5587,-3.3313 -0.6893,-5.0152zM31.0797,20.1972c-6.6895,0 -12.0347,4.6729 -12.0347,10.0709h-0.3944c0,-5.6744 5.5854,-10.4653 12.4291,-10.4653zM43.138,30.2681c0,-5.3976 -5.3683,-10.0709 -12.0583,-10.0709v-0.3944c6.8431,0 12.4526,4.7904 12.4526,10.4653zM42.5261,35.2249c0.2996,-1.6434 0.504,-3.3026 0.6123,-4.9695l0.3935,0.0255c-0.1092,1.6821 -0.3156,3.3564 -0.6179,5.0147zM42.5042,35.3746l0.0207,-0.1427l0.3902,0.0567l-0.0207,0.1428zM42.097,38.6199c0,-0.2326 0.0573,-0.7331 0.1347,-1.3191c0.0784,-0.5924 0.1798,-1.2897 0.2725,-1.9262l0.3902,0.0568c-0.0928,0.6372 -0.1938,1.3317 -0.2717,1.921c-0.0788,0.5958 -0.1314,1.0668 -0.1314,1.2675zM41.4094,42.9979c0.5222,-1.3949 0.7562,-2.8811 0.6878,-4.369l0.3939,-0.0181c0.0709,1.5411 -0.1715,3.0806 -0.7124,4.5254zM39.0588,46.7443c1.0287,-1.0771 1.8283,-2.3516 2.3506,-3.7464l0.3693,0.1383c-0.541,1.4447 -1.3692,2.7648 -2.4348,3.8805zM35.4243,49.2645c1.3694,-0.5858 2.6058,-1.4431 3.6345,-2.5202l0.2851,0.2724c-1.0655,1.1156 -2.3462,2.0036 -3.7646,2.6103zM31.0915,50.1522c1.4894,0 2.9633,-0.302 4.3328,-0.8877l0.155,0.3625c-1.4184,0.6067 -2.9451,0.9195 -4.4878,0.9195zM26.7587,49.2645c1.3694,0.5857 2.8434,0.8877 4.3328,0.8877v0.3943c-1.5427,0 -3.0694,-0.3128 -4.4879,-0.9195zM23.1242,46.7443c1.0287,1.0771 2.2651,1.9344 3.6345,2.5202l-0.1551,0.3625c-1.4184,-0.6067 -2.699,-1.4947 -3.7646,-2.6103zM20.7736,42.9979c0.5222,1.3948 1.3219,2.6693 2.3506,3.7464l-0.2852,0.2724c-1.0655,-1.1157 -1.8938,-2.4358 -2.4347,-3.8805zM31.0797,23.5883c4.7895,0 8.6671,2.9535 8.6671,6.6798h-0.3943c0,-3.4187 -3.5987,-6.2855 -8.2728,-6.2855zM22.3888,30.2655c0.0493,-3.7238 3.9714,-6.6772 8.6909,-6.6772v0.3943c-4.6024,0 -8.2513,2.8668 -8.2966,6.2882zM22.8898,34.4138c-0.2272,-1.5414 -0.501,-3.3952 -0.501,-4.1457h0.3943c0,0.7131 0.2666,2.5261 0.4968,4.0882zM22.9351,34.7211c-0.0149,-0.1009 -0.03,-0.2034 -0.0453,-0.3073l0.3901,-0.0575c0.0153,0.1039 0.0304,0.2065 0.0453,0.3074zM23.4303,38.6332c-0.0885,-1.3101 -0.2534,-2.6138 -0.494,-3.9046l0.3877,-0.0723c0.2433,1.3059 0.4102,2.6249 0.4997,3.9503zM23.8813,41.6566c-0.3562,-0.9747 -0.5097,-2.0118 -0.4512,-3.0478l0.3937,0.0222c-0.0555,0.9825 0.0901,1.966 0.4279,2.8902zM25.5016,44.2772c-0.7128,-0.7542 -1.2641,-1.6459 -1.6203,-2.6206l0.3704,-0.1354c0.3377,0.9243 0.8606,1.7699 1.5365,2.4851zM28.0266,46.0427c-0.953,-0.4106 -1.8122,-1.0113 -2.525,-1.7655l0.2866,-0.2709c0.6759,0.7152 1.4907,1.2849 2.3945,1.6743zM31.0442,46.6651c-1.0378,0 -2.0645,-0.2118 -3.0176,-0.6224l0.1561,-0.3621c0.9037,0.3894 1.8774,0.5902 2.8615,0.5902zM34.0617,46.0427c-0.953,0.4106 -1.9798,0.6224 -3.0175,0.6224v-0.3943c0.984,0 1.9577,-0.2008 2.8615,-0.5902zM36.5867,44.2772c-0.7128,0.7542 -1.572,1.3549 -2.525,1.7655l-0.156,-0.3621c0.9037,-0.3894 1.7185,-0.9591 2.3944,-1.6743zM38.207,41.6566c-0.3562,0.9747 -0.9075,1.8664 -1.6203,2.6206l-0.2866,-0.2709c0.6759,-0.7152 1.1988,-1.5608 1.5366,-2.4851zM38.6582,38.6088c0.0585,1.036 -0.095,2.0731 -0.4512,3.0478l-0.3703,-0.1354c0.3377,-0.9242 0.4833,-1.9077 0.4278,-2.8902zM39.1757,34.7285c-0.2405,1.2924 -0.4133,2.5966 -0.5178,3.907l-0.3931,-0.0313c0.1056,-1.3242 0.2802,-2.6419 0.5232,-3.9478zM39.7463,30.283c-0.1124,1.4905 -0.3028,2.9741 -0.5705,4.4447l-0.3879,-0.0706c0.2652,-1.457 0.4538,-2.927 0.5652,-4.4038zM35.0781,79.9843h-4.3533v-0.3943h4.3533zM37.9169,79.117c-0.8194,0.6125 -1.8272,0.9192 -2.8489,0.867l0.0201,-0.3938c0.9299,0.0475 1.847,-0.2316 2.5928,-0.7891zM38.8031,77.8398c-0.1839,0.4871 -0.4837,0.9219 -0.8735,1.2669l-0.2614,-0.2953c0.3418,-0.3025 0.6047,-0.6838 0.766,-1.1108zM38.9847,76.3118c0.0646,0.5165 0.0022,1.041 -0.1816,1.528l-0.3689,-0.1392c0.1612,-0.4271 0.2158,-0.887 0.1592,-1.3399zM38.4325,74.8755c0.2981,0.4268 0.4876,0.9198 0.5522,1.4363l-0.3913,0.0489c-0.0566,-0.4529 -0.2228,-0.8852 -0.4841,-1.2594zM37.2741,73.8626c0.4627,0.2385 0.8603,0.5861 1.1584,1.0129l-0.3232,0.2258c-0.2614,-0.3742 -0.6101,-0.6791 -1.0158,-0.8881zM38.1549,73.3335c-0.2144,0.3573 -0.5126,0.657 -0.8689,0.873l-0.2045,-0.3372c0.3015,-0.1828 0.5539,-0.4363 0.7353,-0.7386zM38.5163,72.156c-0.023,0.4161 -0.147,0.8202 -0.3614,1.1775l-0.3381,-0.2028c0.1814,-0.3024 0.2863,-0.6444 0.3057,-0.9964zM38.3105,70.8356c0.1722,0.4195 0.2426,0.8738 0.2054,1.3257l-0.393,-0.0323c0.0321,-0.3899 -0.0286,-0.7818 -0.1772,-1.1437zM37.5251,69.748c0.3441,0.2954 0.6132,0.6681 0.7854,1.0876l-0.3648,0.1497c-0.1485,-0.3618 -0.3807,-0.6833 -0.6775,-0.9382zM34.8299,68.9909c0.9506,-0.0561 1.8928,0.2057 2.6783,0.744l-0.223,0.3253c-0.7132,-0.4889 -1.5689,-0.7266 -2.4321,-0.6756zM30.7248,68.9906h4.1167v0.3943h-4.1167zM30.5276,79.7871v-10.5993h0.3943v10.5993zM34.5339,71.0647h-1.7981v-0.3943h1.7981zM35.6585,71.3416c-0.3303,-0.2098 -0.7195,-0.3071 -1.1097,-0.2774l-0.0298,-0.3932c0.4749,-0.0361 0.9488,0.0824 1.3509,0.3377zM35.9248,71.6944c-0.0613,-0.143 -0.1581,-0.2681 -0.2812,-0.3633l0.2412,-0.3119c0.1762,0.1362 0.3147,0.3152 0.4024,0.5199zM35.9939,72.1486c0.016,-0.1548 -0.0078,-0.3111 -0.0691,-0.4542l0.3624,-0.1553c0.0878,0.2047 0.1218,0.4284 0.099,0.6499zM35.8845,72.6474c0.0786,-0.1436 0.1162,-0.306 0.1086,-0.4694l0.3939,-0.0183c0.011,0.2358 -0.0432,0.47 -0.1566,0.6771zM35.5475,72.9916c0.1418,-0.0816 0.2584,-0.2007 0.337,-0.3442l0.3459,0.1894c-0.1134,0.207 -0.2816,0.3788 -0.4861,0.4966zM34.2387,73.297c0.4569,0.0287 0.9121,-0.0775 1.309,-0.3055l0.1964,0.342c-0.464,0.2664 -0.9961,0.3906 -1.5301,0.357zM32.7358,73.2966h1.4905v0.3943h-1.4905zM32.933,70.8676v2.6261h-0.3944v-2.6261zM35.0544,75.3471h-2.3659v-0.3944h2.3659zM36.0838,75.7004c-0.2808,-0.2459 -0.6464,-0.3728 -1.0193,-0.3536l-0.0202,-0.3938c0.4752,-0.0244 0.9413,0.1373 1.2993,0.4508zM36.386,76.1407c-0.0669,-0.1689 -0.1713,-0.3205 -0.3054,-0.4431l0.2662,-0.291c0.1782,0.1631 0.3169,0.3645 0.4058,0.589zM36.4667,76.6728c0.0137,-0.1812 -0.0139,-0.3631 -0.0807,-0.5321l0.3666,-0.1451c0.0889,0.2245 0.1255,0.4663 0.1072,0.7071zM36.3727,77.1837c0.0694,-0.1525 0.1014,-0.3193 0.0936,-0.4867l0.3939,-0.0185c0.0108,0.2299 -0.0333,0.459 -0.1285,0.6684zM36.0675,77.5743c0.1313,-0.1041 0.2359,-0.238 0.3052,-0.3906l0.359,0.1632c-0.0952,0.2095 -0.2388,0.3933 -0.4191,0.5363zM34.8776,77.9105c0.4268,0.027 0.8498,-0.0939 1.198,-0.3423l0.229,0.3211c-0.422,0.3009 -0.9346,0.4474 -1.4519,0.4148zM32.6885,77.9101h2.1766v0.3944h-2.1766zM32.8856,75.1499v2.9574h-0.3943v-2.9574zM41.8841,79.7871v-10.5993h0.3943v10.5993zM44.0923,79.9843h-2.0111v-0.3943h2.0111zM44.2894,69.1878v10.5993h-0.3943v-10.5993zM42.0812,68.9906h2.0111v0.3943h-2.0111zM52.6527,68.7304c1.0363,-0.0224 2.0576,0.25 2.9452,0.7854l-0.2037,0.3376c-0.8236,-0.4968 -1.7714,-0.7495 -2.733,-0.7288zM50.0004,69.5155c0.8027,-0.4811 1.7142,-0.7512 2.6494,-0.785l0.0143,0.394c-0.8687,0.0315 -1.7154,0.2823 -2.461,0.7292zM48.0794,71.5849c0.4251,-0.8629 1.0933,-1.5825 1.9224,-2.0702l0.1999,0.3398c-0.7627,0.4487 -1.3775,1.1108 -1.7685,1.9046zM47.4311,74.4874c0,-1.0022 0.2208,-1.992 0.6467,-2.8992l0.357,0.1676c-0.4013,0.8547 -0.6094,1.7874 -0.6094,2.7316zM48.0778,77.3867c-0.4259,-0.9072 -0.6467,-1.8971 -0.6467,-2.8993h0.3943c0,0.9443 0.2081,1.877 0.6094,2.7317zM49.9523,79.4353c-0.8072,-0.4885 -1.4573,-1.1985 -1.873,-2.0456l0.354,-0.1737c0.3824,0.7793 0.9805,1.4325 1.7232,1.8819zM52.8283,80.1971c-1.0123,0.0295 -2.0115,-0.2352 -2.8764,-0.7621l0.2051,-0.3368c0.7998,0.4872 1.7237,0.732 2.6598,0.7048zM55.6428,79.4368c-0.8558,0.5 -1.8295,0.7625 -2.8207,0.7604l0.0009,-0.3943c0.9209,0.002 1.8257,-0.2419 2.6209,-0.7065zM57.5631,77.395c-0.444,0.8399 -1.1062,1.5446 -1.9169,2.0399l-0.2056,-0.3365c0.7502,-0.4583 1.363,-1.1104 1.7739,-1.8876zM58.1062,74.4054c0.057,1.0206 -0.1268,2.0402 -0.5368,2.9766l-0.3612,-0.1582c0.3851,-0.8796 0.5579,-1.8376 0.5043,-2.7963zM57.4713,71.5617c0.4349,0.889 0.6526,1.8686 0.6351,2.8582l-0.3942,-0.0069c0.0163,-0.9272 -0.1877,-1.845 -0.5951,-2.678zM55.5955,69.5144c0.8183,0.478 1.4727,1.1927 1.877,2.0498l-0.3567,0.1682c-0.3703,-0.7851 -0.9697,-1.4397 -1.7192,-1.8776zM49.8257,74.4206c-0.0137,0.654 0.1101,1.3037 0.3632,1.907l-0.3636,0.1525c-0.2745,-0.6541 -0.4087,-1.3585 -0.3939,-2.0678zM50.2338,72.4635c-0.2789,0.6117 -0.4183,1.2778 -0.4081,1.95l-0.3943,0.0059c-0.0111,-0.7306 0.1405,-1.4546 0.4436,-2.1194zM51.3003,71.1966c-0.4663,0.3145 -0.8355,0.753 -1.066,1.266l-0.3597,-0.1617c0.2606,-0.5799 0.6781,-1.0756 1.2052,-1.4312zM52.7516,70.7572c-0.5168,0.0001 -1.0221,0.1532 -1.4521,0.44l-0.2188,-0.328c0.4947,-0.33 1.0761,-0.5062 1.6708,-0.5064zM54.2526,71.1983c-0.4458,-0.2911 -0.9674,-0.4445 -1.4998,-0.4411l-0.0024,-0.3944c0.6097,-0.0038 1.2072,0.172 1.7178,0.5053zM55.242,72.455c-0.2031,-0.5075 -0.5488,-0.9454 -0.9953,-1.2608l0.2274,-0.3221c0.5088,0.3593 0.9026,0.8582 1.134,1.4364zM55.6065,74.3183c0.0113,-0.6383 -0.1123,-1.2719 -0.3628,-1.8592l0.3627,-0.1547c0.2723,0.6384 0.4067,1.327 0.3944,2.0209zM55.2205,76.3964c0.2823,-0.6512 0.4143,-1.3576 0.3861,-2.0667l0.394,-0.0157c0.0306,0.7684 -0.1124,1.5337 -0.4183,2.2392zM54.162,77.6085c0.4669,-0.2892 0.836,-0.7121 1.0593,-1.2139l0.3602,0.1604c-0.2554,0.574 -0.6777,1.0579 -1.2119,1.3887zM52.706,78.0048c0.5134,0.0044 1.0181,-0.1332 1.4582,-0.3977l0.2031,0.338c-0.5024,0.3019 -1.0786,0.4591 -1.6647,0.454zM51.184,77.5667c0.4429,0.3067 0.9738,0.4605 1.5121,0.4383l0.0163,0.3939c-0.624,0.0259 -1.2394,-0.1525 -1.7529,-0.508zM50.1907,76.332c0.1966,0.5025 0.5423,0.9328 0.9907,1.2329l-0.2193,0.3277c-0.5153,-0.345 -0.9127,-0.8394 -1.1386,-1.4169z" fill="black"/>
</svg>
