<svg width="82" height="100" viewBox="0 0 82 100" fill="none" xmlns="http://www.w3.org/2000/svg">
<path fill-rule="evenodd" clip-rule="evenodd" d="M77.2628,18.5488h1.5c1.1046,0 2,0.8955 2,2v1.5v55.0953v1.5c0,1.1045 -0.8954,2 -2,2h-1.5h-73.46031h-1.5c-1.10457,0 -2,-0.8955 -2,-2v-1.5v-55.0953v-1.5c0,-1.1045 0.89543,-2 2,-2h1.5zM39.6849,49.2004c0.5631,0.2816 1.2258,0.2816 1.7889,0l31.1834,-15.5917c0.6776,-0.3388 1.1056,-1.0313 1.1056,-1.7888v-4.2711c0,-1.1045 -0.8954,-2 -2,-2h-62.46031c-1.10457,0 -2,0.8955 -2,2v4.2244c0,0.7575 0.428,1.45 1.10557,1.7888zM10.1969,42.2827c-1.32979,-0.6649 -2.89441,0.3021 -2.89441,1.7888v27.5726c0,1.1045 0.89543,2 2,2h62.46031c1.1046,0 2,-0.8955 2,-2v-27.5259c0,-1.4867 -1.5646,-2.4537 -2.8944,-1.7888l-27.8294,13.9147c-1.5484,0.7742 -3.3709,0.7742 -4.9193,0z" fill="black"/>
</svg>
