<svg width="61" height="100" viewBox="0 0 61 100" fill="none" xmlns="http://www.w3.org/2000/svg">
<path fill-rule="evenodd" clip-rule="evenodd" d="M3.88243,27.5096c1.91012,26.8723 23.91697,48.2678 50.83117,49.4593l2.1139,-13.9065l-11.5966,-1.7612c-2.3726,-0.3658 -4.6956,0.9067 -5.6781,3.0755l-0.6663,1.4738l-1.4084,-0.7918c-9.0986,-5.1032 -16.598,-12.6104 -21.6829,-21.709l-0.7499,-1.3378l1.3666,-0.7003c2.3517,-1.2098 3.4622,-3.9091 2.6365,-6.4254l-3.653,-11.1498zM57.2508,80l-1.2986,-0.0287c-29.4279,-0.5853 -53.62975,-24.0608 -55.09827,-53.439l-0.05487,-1.1314l16.49084,-5.4011l4.5727,13.964c1.1184,3.4047 -0.0496,7.0316 -2.7854,9.1508c4.5466,7.6587 10.9355,14.0607 18.5916,18.6334c1.7926,-2.498 4.8838,-3.8542 8.0063,-3.376l14.5258,2.2054z" fill="black"/>
</svg>
