<svg width="60" height="100" viewBox="0 0 60 100" fill="none" xmlns="http://www.w3.org/2000/svg">
<path d="M46.6642,50.8337c-0.0017,2.2089 -0.8799,4.3268 -2.4418,5.8887c-1.5619,1.5619 -3.6798,2.4401 -5.8887,2.4418c-2.2089,-0.0025 -4.3267,-0.8809 -5.8889,-2.4425c-1.5623,-1.5617 -2.4415,-3.6791 -2.4448,-5.888c0.0025,-2.21 0.8818,-4.3287 2.4448,-5.8912c1.563,-1.5624 3.682,-2.4408 5.892,-2.4425c2.2087,0.0033 4.3258,0.8826 5.8869,2.445c1.5612,1.5623 2.4388,3.6801 2.4405,5.8887zM60,32.4989v35.0022c0,3.3149 -1.3168,6.494 -3.6609,8.838c-2.344,2.3441 -5.5231,3.6609 -8.838,3.6609h-35.0022c-3.31462,-0.0008 -6.49329,-1.318 -8.83712,-3.6618c-2.34382,-2.3438 -3.66094,-5.5225 -3.66178,-8.8371v-35.0022c0.00084,-3.3146 1.31796,-6.4933 3.66178,-8.8371c2.34383,-2.3438 5.5225,-3.661 8.83712,-3.6618h35.0022c3.3149,0 6.494,1.3168 8.838,3.6609c2.3441,2.344 3.6609,5.5231 3.6609,8.838zM49.9989,50.8337c0.0008,-2.3186 -0.6894,-4.5848 -1.9824,-6.5093c-1.293,-1.9246 -3.1302,-3.4202 -5.277,-4.2958c-2.1469,-0.8757 -4.506,-1.0918 -6.7762,-0.6207c-2.2702,0.4712 -4.3485,1.6081 -5.9696,3.2658c-1.0831,-1.1115 -2.3781,-1.9945 -3.8085,-2.5966c-1.4303,-0.602 -2.967,-0.911 -4.5189,-0.9087c-3.0476,0.0709 -5.9466,1.3314 -8.077,3.5119c-2.1304,2.1806 -3.3231,5.1081 -3.3231,8.1565c0,3.0485 1.1927,5.976 3.3231,8.1565c2.1304,2.1806 5.0294,3.4411 8.077,3.512c1.5526,0.0011 3.0896,-0.3094 4.52,-0.9131c1.4305,-0.6038 2.7251,-1.4884 3.8074,-2.6017c1.6207,1.6573 3.6984,2.7941 5.9681,3.2655c2.2696,0.4713 4.6281,0.2558 6.7747,-0.6191c2.1466,-0.8749 3.9839,-2.3695 5.2774,-4.2931c1.2935,-1.9236 1.9846,-4.1889 1.985,-6.507z" fill="black"/>
</svg>
