<svg width="60" height="100" viewBox="0 0 60 100" fill="none" xmlns="http://www.w3.org/2000/svg">
<path d="M0,50c0,-16.56 13.44,-30 30,-30c16.56,0 30,13.44 30,30c0,16.56 -13.44,30 -30,30c-16.56,0 -30,-13.44 -30,-30zM42.8425,60.2825c-8.635,-5.165 -18.76,-5.3575 -28.6675,-3.17c-2.46,0.5225 -2.0225,3.945 0.265,3.945c0.35,0 0.9675,-0.1925 1.44,-0.315c17.91,-3.67 24.2825,3.3975 26.3,3.3975c1.8475,0 2.7225,-2.5425 0.6625,-3.8575zM46.3384,56.0276c0.2855,-0.1188 0.5446,-0.2929 0.7626,-0.5122c0.2179,-0.2194 0.3904,-0.4797 0.5073,-0.7659c0.117,-0.2862 0.1762,-0.5928 0.1742,-0.902c0,-1.05 -0.3875,-1.8025 -1.3675,-2.3825c-8.805,-5.2375 -21.4525,-7.17 -33.2425,-3.8575c-2.9175,0.8225 -2.2075,4.85 0.47,4.85c0.545,0 0.86,-0.1575 1.44,-0.315c10.03,-2.7225 21.3,-0.9175 28.8625,3.5575c1.2925,0.68 1.21,0.4325 1.4925,0.5075c0.3092,0 0.6154,-0.0611 0.9009,-0.1799zM9.265,40.3825c0,1.6075 1.22,2.855 2.8175,2.855c0.58,0 1.125,-0.1925 1.5625,-0.3125c9.965,-2.7825 25.3675,-1.55 33.975,3.59c0.545,0.315 0.9325,0.4725 1.5625,0.4725l0.0025,0.0025c2.9,0 3.9725,-3.9775 1.245,-5.55c-10.64,-6.21 -27.7525,-7.255 -39.06,-3.945c-1.0875,0.315 -2.105,1.245 -2.105,2.8875z" fill="black"/>
</svg>
