<svg width="76" height="100" viewBox="0 0 76 100" fill="none" xmlns="http://www.w3.org/2000/svg">
<path fill-rule="evenodd" clip-rule="evenodd" d="M67.0625,73.572l0.0781,0.4658l1.0188,3.6953l0.1218,0.5341c-0.0024,0.1963 -0.0831,0.3836 -0.2242,0.5209c-0.1412,0.1374 -0.3313,0.2136 -0.5289,0.2119l-0.4343,-0.1366l-4.9469,-2.7761c-0.3719,-0.2112 -0.7656,-0.3416 -1.2,-0.3416l-0.6625,0.0994c-2.4005,0.6687 -4.882,1.0062 -7.375,1.003c-12.475,0 -22.5907,-8.201 -22.5907,-18.3149c0,-10.1138 10.1157,-18.3117 22.5907,-18.3117c12.475,0 22.5906,8.1979 22.5906,18.3086c0,5.5243 -3.0437,10.4896 -7.8062,13.8495c-0.3813,0.2608 -0.6313,0.6956 -0.6313,1.1924zM54.3813,38.5291l-1.4719,-0.0373c-13.6532,0 -24.7219,8.9743 -24.7219,20.0445c0.0031,1.8323 0.3104,3.6516 0.9094,5.3845l-1.4875,0.0373c-3.0938,0 -6.0813,-0.4316 -8.85,-1.2079l-0.7969,-0.1149c-0.5065,0.0068 -1.0023,0.146 -1.4375,0.4036l-5.9344,3.3351l-0.525,0.1646c-0.49685,0 -0.9031,-0.3944 -0.9031,-0.8819l0.14687,-0.6428l1.22183,-4.4343l0.0938,-0.559c-0.0008,-0.2813 -0.0704,-0.5583 -0.2026,-0.8071c-0.1323,-0.2488 -0.3233,-0.462 -0.55677,-0.6213c-5.71563,-4.0306 -9.36563,-9.9927 -9.36563,-16.6131c0,-12.1416 12.1375,-21.9791 27.1094,-21.9791c13.5219,0 24.7312,8.0302 26.7719,18.5291zM46.5214,55.3914c0.3633,-0.1451 0.6942,-0.3599 0.974,-0.6321c0.2797,-0.2722 0.5028,-0.5965 0.6564,-0.9544c0.1536,-0.3579 0.2347,-0.7423 0.2388,-1.1313c0,-1.621 -1.3468,-2.9314 -3.0125,-2.9314c-1.6625,0 -3.0094,1.3104 -3.0094,2.9314c0.0083,0.7851 0.3299,1.5349 0.8942,2.0846c0.5643,0.5496 1.3251,0.8542 2.1152,0.8467c0.3915,0.0041 0.78,-0.0684 1.1433,-0.2135zM62.5559,54.7582c0.5643,-0.5497 0.8858,-1.2995 0.8941,-2.0846c0,-1.621 -1.3469,-2.9314 -3.0094,-2.9314c-1.6656,0 -3.0125,1.3104 -3.0125,2.9314c0.0041,0.389 0.0853,0.7734 0.2389,1.1313c0.1536,0.3579 0.3766,0.6822 0.6564,0.9544c0.2797,0.2722 0.6107,0.487 0.9739,0.6321c0.3633,0.1451 0.7518,0.2176 1.1433,0.2135c0.7902,0.0075 1.551,-0.2971 2.1153,-0.8467zM22.1875,34.9456c0,-1.9408 -1.6187,-3.5182 -3.6156,-3.5182c-1.9969,0 -3.6125,1.5774 -3.6125,3.5182c0.0049,0.4666 0.1022,0.9275 0.2864,1.3567c0.1842,0.4291 0.4517,0.818 0.7871,1.1444c0.3355,0.3264 0.7324,0.584 1.168,0.758c0.4356,0.174 0.9015,0.261 1.371,0.2561c1.9969,0 3.6156,-1.5744 3.6156,-3.5152zM40.2594,34.9456c0,-1.9408 -1.6188,-3.5182 -3.6157,-3.5182c-1.9968,0 -3.6125,1.5774 -3.6125,3.5182c0.0049,0.4666 0.1023,0.9275 0.2865,1.3567c0.1842,0.4291 0.4516,0.818 0.7871,1.1444c0.3355,0.3264 0.7323,0.584 1.168,0.758c0.4356,0.174 0.9015,0.261 1.3709,0.2561c1.9969,0 3.6157,-1.5744 3.6157,-3.5152z" fill="black"/>
</svg>
