<svg width="68" height="100" viewBox="0 0 68 100" fill="none" xmlns="http://www.w3.org/2000/svg">
<path d="M48.3179,20.0402c0.7316,-0.0507 1.466,-0.0507 2.1976,0c2.379,0.1255 4.7025,0.7623 6.8105,1.8667c2.1732,1.1431 4.0911,2.7125 5.6381,4.6133c4.3985,5.3833 5.5509,12.6467 3.6649,19.1c-0.1966,0.6963 -0.6548,1.2907 -1.2797,1.66c-0.294,0.1709 -0.6215,0.2767 -0.9603,0.31c-0.3388,0.0334 -0.6809,-0.0064 -1.0028,-0.1167c-0.3327,-0.1247 -0.6372,-0.3139 -0.8959,-0.5565c-0.2588,-0.2426 -0.4667,-0.5338 -0.6116,-0.8568c-0.3136,-0.6828 -0.373,-1.4543 -0.1675,-2.1767c0.686,-2.3447 0.8042,-4.8177 0.345,-7.2166c-0.4404,-2.3572 -1.4575,-4.5701 -2.9614,-6.4434c-1.4411,-1.7801 -3.3429,-3.1354 -5.5007,-3.92c-2.0955,-0.7508 -4.3654,-0.8783 -6.5325,-0.3666c-0.6532,0.1166 -1.3165,-0.0534 -1.8592,-0.4667c-0.5427,-0.4167 -0.9213,-1.0467 -1.0553,-1.76c-0.1341,-0.7099 -0.0156,-1.4442 0.335,-2.0767c0.326,-0.6015 0.8774,-1.0507 1.5343,-1.25c0.7576,-0.1717 1.5268,-0.2876 2.3015,-0.3466zM27.4943,28.4835v0.0067c2.1205,-0.25 3.7654,0.2133 4.9178,1.5c1.6381,1.81 1.7822,4.95 0.7336,8.68c-0.5494,1.8833 1.5679,0.8167 1.5679,0.8167c6.8172,-3.1567 12.8975,-3.33 15.0683,0.1133c1.1624,1.8367 0.9714,4.4267 -0.1006,7.41c-0.5025,1.37 0.2077,1.5333 1.1457,1.8533c3.8492,1.3134 8.0602,4.4534 8.0602,10.0667c0,9.29 -12.1371,21.07 -30.3477,21.07c-13.8858,0 -28.0395,-7.4167 -28.0395,-19.68c0,-6.4067 3.62135,-13.8467 9.9394,-20.8367c5.7955,-6.41 12.3883,-10.4433 17.0582,-11zM50.0934,29.9902c2.3316,0.1533 4.5124,1.32 6.0702,3.2433c1.0286,1.2872 1.7234,2.8062 2.0234,4.4234c0.3115,1.6466 0.2278,3.3533 -0.2446,4.9533c-0.075,0.2902 -0.2097,0.5618 -0.3956,0.7975c-0.1858,0.2358 -0.4188,0.4306 -0.6842,0.5722c-0.2654,0.1416 -0.5575,0.2269 -0.8577,0.2505c-0.3002,0.0235 -0.6021,-0.0151 -0.8865,-0.1135c-1.1624,-0.4234 -1.7387,-1.84 -1.3568,-3.1267c0.4556,-1.5333 0.2077,-3.2267 -0.8375,-4.5167c-1.0485,-1.29 -2.6599,-1.7233 -4.087,-1.39c-0.2827,0.0709 -0.5777,0.0787 -0.8638,0.0228c-0.2861,-0.0559 -0.5563,-0.1741 -0.791,-0.3461c-0.2472,-0.1774 -0.4567,-0.4017 -0.6164,-0.66c-0.1662,-0.2657 -0.282,-0.5594 -0.3418,-0.8667c-0.2613,-1.3166 0.4858,-2.7333 1.675,-3.01c0.7173,-0.1837 1.4576,-0.2623 2.1976,-0.2333zM26.0303,46.4302c-11.0784,1.2167 -19.5539,8.7267 -18.83365,16.7867c0.72025,8.0433 10.36155,13.6 21.45005,12.3833c11.0919,-1.2167 19.4501,-8.7233 18.7298,-16.7867c-0.6264,-7.0433 -8.0969,-12.1366 -17.3697,-12.5c-1.3265,-0.0619 -2.6559,-0.0229 -3.9765,0.1167zM27.4943,54.4135c5.1657,1.4067 7.8658,6.5834 5.7553,11.5767c-2.1474,5.11 -8.2779,7.8 -13.4971,6.02c-5.0485,-1.7233 -7.2327,-6.96 -5.0217,-11.69c1.6214,-3.4767 5.2059,-5.8767 8.9947,-6.2533c1.2659,-0.1234 2.5472,-0.0057 3.7688,0.3466zM21.3236,61.7035c-1.3233,-0.01 -2.6968,0.8434 -3.4572,2.0867c-1.0184,1.6633 -0.5594,3.62 1.0486,4.3967c1.6314,0.8 3.7955,-0.03 4.8139,-1.7334c0.9949,-1.7233 0.4824,-3.66 -1.1491,-4.4c-0.3918,-0.1959 -0.8188,-0.3126 -1.2562,-0.3433z" fill="black"/>
</svg>
