<svg width="60" height="101" viewBox="0 0 60 101" fill="none" xmlns="http://www.w3.org/2000/svg">
<path d="M18.4303,26.1571c-7.7064,0.3723 -11.29318,4.2563 -11.64594,12.3738c-0.13495,3.1847 -0.16573,4.1381 -0.16573,12.1978c0,8.0622 0.02841,9.0156 0.16573,12.1977c0.35039,8.1025 3.92774,12.0015 11.64594,12.3763c2.9949,0.1459 3.8946,0.1761 11.4802,0.1761c7.5904,0 8.4853,-0.0302 11.4826,-0.1761c7.7064,-0.3723 11.2932,-4.2613 11.646,-12.3738c0.1349,-3.1821 0.1633,-4.1355 0.1633,-12.1977c0,-8.0597 -0.026,-9.0156 -0.1633,-12.1978c-0.3504,-8.12 -3.9467,-12.0015 -11.646,-12.3738c-2.9973,-0.1459 -3.897,-0.1761 -11.4826,-0.1761c-7.5856,0 -8.4829,0.0302 -11.4802,0.1736zM41.6275,20.7261c10.3272,0.5031 16.059,6.6058 16.5231,17.5583c0.1373,3.2199 0.1704,4.2462 0.1704,12.4443c0,8.198 -0.0331,9.2269 -0.1728,12.4467c-0.4664,10.9727 -6.2148,17.0552 -16.5231,17.5583c-3.0304,0.1459 -3.9988,0.1811 -11.7146,0.1811c-7.7158,0 -8.6818,-0.0352 -11.7146,-0.1811c-10.32721,-0.5031 -16.05193,-6.5957 -16.52544,-17.5583c-0.13731,-3.2198 -0.17046,-4.2487 -0.17046,-12.4467c0,-8.1981 0.03315,-9.2244 0.17283,-12.4468c0.47351,-10.9727 6.2077,-17.0552 16.52547,-17.5583c3.0304,-0.1459 3.9964,-0.1811 11.7122,-0.1811c7.7158,0 8.6842,0.0352 11.717,0.1836zM44.4993,50.7287c0,8.5628 -6.532,15.5031 -14.5888,15.5031c-8.0567,0 -14.5888,-6.9428 -14.5888,-15.5031c0,-8.5603 6.5321,-15.5006 14.5888,-15.5006c8.0568,0 14.5888,6.9403 14.5888,15.5006zM39.3807,50.7287c0,-5.5568 -4.2403,-10.0621 -9.4702,-10.0621c-5.2299,0 -9.4702,4.5053 -9.4702,10.0621c0,5.5592 4.2403,10.062 9.4702,10.062c5.2299,0 9.4702,-4.5028 9.4702,-10.062zM48.4839,34.6168c0,1.9998 -1.5247,3.6223 -3.4069,3.6223c-1.8846,0 -3.4116,-1.6225 -3.4116,-3.6223c0,-1.9998 1.527,-3.6224 3.4116,-3.6224c1.8822,0 3.4069,1.6226 3.4069,3.6224z" fill="black"/>
</svg>
