<svg width="90" height="100" viewBox="0 0 90 100" fill="none" xmlns="http://www.w3.org/2000/svg">
<path d="M53.5721,72.3984v-19.4293l22.0602,18.1193c0.6203,-0.5208 1.1168,-1.1755 1.4532,-1.916c0.3363,-0.7405 0.5037,-1.5478 0.49,-2.3624v-23.7739h-68.46879v23.7739c0.0014,0.7373 0.14894,1.4668 0.43392,2.1455c0.28499,0.6788 0.70167,1.293 1.22537,1.8065c1.0655,1.0454 2.5065,1.6364 4.0086,1.6364zM10.7398,29.0409c-1.0698,1.0541 -1.67239,2.4876 -1.67239,3.9785v6.2632h68.46879v-6.2632c0,-1.4909 -0.6026,-2.92 -1.6724,-3.9785c-1.0655,-1.0542 -2.5196,-1.6452 -4.0348,-1.6452h-57.0544c-1.5109,0 -2.9649,0.591 -4.0348,1.6452zM81.4923,75.8873l7.3403,5.9986h-21.7196l-13.5802,17.4004v-19.3896h-38.7582c-1.7467,0 -3.4715,-0.3352 -5.08713,-0.9969c-1.61565,-0.6616 -3.07847,-1.6275 -4.31423,-2.8493c-1.22926,-1.205 -2.20572,-2.6477 -2.87115,-4.2421c-0.66544,-1.5944 -1.00623,-3.3078 -1.00205,-5.0381v-33.7509c0.00372,-1.7284 0.34944,-3.4385 1.01683,-5.0299c0.6674,-1.5914 1.643,-3.032 2.86947,-4.2371c2.51318,-2.4712 5.88096,-3.8556 9.38826,-3.8594h57.0544c1.7645,-0.0205 3.516,0.3061 5.157,0.9615c1.6276,0.6497 3.1128,1.6163 4.371,2.845c1.2491,1.2171 2.2439,2.6749 2.9256,4.2872c0.6745,1.604 1.0192,3.3297 1.0131,5.0723v33.751c-0.0076,1.691 -0.3474,3.3636 -0.9995,4.921c-0.6521,1.5574 -1.6036,2.9686 -2.7995,4.1519z" fill="black"/>
</svg>
