<svg width="81" height="100" viewBox="0 0 81 100" fill="none" xmlns="http://www.w3.org/2000/svg">
<path d="M36.4774,20c2.896,-0.0063 5.776,1.8726 6.288,4.4937c0.9152,4.7053 -3.3856,10.8442 -5.1648,15c-4.2944,9.9947 -7.8176,18.3474 -11.968,28.0105c-2.0288,4.7242 -3.6096,9.9474 -7.3408,12.4548c-15.41441,0.9978 -3.9104,-16.6674 -1.632,-22.92c-3.5008,-6.8779 -8.09601,-14.8832 -12.23681,-22.3579c-1.888,-3.4106 -6.5952,-9.9064 -1.9008,-13.5821c1.7344,-1.3579 5.584,-1.399 7.3408,0c5.44641,4.3326 8.53121,16.1684 13.04641,21.5084c1.6736,-2.9558 3.1808,-7.0137 4.896,-11.04c1.5584,-3.66 2.848,-8.8011 5.168,-10.4684c1.0183,-0.7254 2.245,-1.1105 3.5008,-1.099zM73.7734,23.8337c2.688,-0.0253 5.3504,1.4874 5.696,4.6231c0.8768,7.9327 -9.5104,10.7306 -11.4208,15.2779c2.8352,3.9695 9.4112,6.8369 11.6928,11.3211c2.16,4.241 -0.4128,10.0737 -6.256,8.7726c-2.8512,-0.6379 -5.4432,-4.7873 -8.1536,-7.3579c-2.8224,-2.6747 -5.9456,-5.1 -8.16,-7.3579c-1.5104,-2.3684 -1.0848,1.6074 -1.0848,3.9632v6.7926c-0.2976,2.4284 -1.568,3.8369 -3.808,4.2411h-3.264c-2.3552,-0.2842 -3.3344,-1.999 -3.8048,-4.2411v-31.4116c0.0416,-6.0031 10.8352,-6.0031 10.8736,0v11.0369c1.744,-0.9253 2.7904,-2.5705 4.08,-3.9663c1.1142,-0.921 2.118,-1.9646 2.992,-3.1106c1.8391,-1.6791 3.5644,-3.4756 5.1648,-5.3778c0.9728,-2.1 3.2224,-3.18 5.4496,-3.2053z" fill="black"/>
</svg>
