<svg width="63" height="100" viewBox="0 0 63 100" fill="none" xmlns="http://www.w3.org/2000/svg">
<path d="M1.5,71.0295c0,-4.9544 4.01629,-8.9707 8.9706,-8.9707c4.9544,0 8.9707,4.0163 8.9707,8.9707c0,4.9543 -4.0163,8.9706 -8.9707,8.9706c-4.95431,0 -8.9706,-4.0163 -8.9706,-8.9706z" fill="black" stroke="white" stroke-width="0.5"/>
<path d="M40.9271,76.6136h-9.248c0,-7.1129 -2.8256,-13.9346 -7.8553,-18.9642c-5.0296,-5.0296 -11.8512,-7.8552 -18.96415,-7.8552v-9.2481c9.56195,0.0123 18.72875,3.8162 25.49005,10.5775c6.7613,6.7613 10.5652,15.9281 10.5774,25.49z" fill="black" stroke="white" stroke-width="0.5"/>
<path d="M61.6154,75.8796h-9.2481c-0.0244,-12.3911 -4.9576,-24.2677 -13.7195,-33.0295c-8.7618,-8.7618 -20.6384,-13.695 -33.02951,-13.7195v-9.248c14.84761,0.0122 29.08351,5.9158 39.58241,16.4147c10.4988,10.4988 16.4024,24.7348 16.4147,39.5823z" fill="black" stroke="white" stroke-width="0.5"/>
</svg>
